<mxfile host="Electron" modified="2024-08-29T07:11:18.982Z" agent="Mozilla/5.0 (Windows NT 10.0; Win64; x64) AppleWebKit/537.36 (KHTML, like Gecko) draw.io/22.1.2 Chrome/114.0.5735.289 Electron/25.9.4 Safari/537.36" etag="ifh3SuwzAMpPatEbDc2Y" version="22.1.2" type="device">
  <diagram name="Page-1" id="hSPu9U5RkOxetQ8Sldr4">
    <mxGraphModel dx="1206" dy="702" grid="1" gridSize="10" guides="1" tooltips="1" connect="1" arrows="1" fold="1" page="1" pageScale="1" pageWidth="4681" pageHeight="3300" background="none" math="0" shadow="0">
      <root>
        <mxCell id="0" />
        <mxCell id="1" parent="0" />
        <mxCell id="qmfGkKpHFtfPqxLsQfzV-29" value="" style="edgeStyle=orthogonalEdgeStyle;rounded=0;orthogonalLoop=1;jettySize=auto;html=1;strokeColor=#000000;" parent="1" source="qmfGkKpHFtfPqxLsQfzV-2" target="qmfGkKpHFtfPqxLsQfzV-28" edge="1">
          <mxGeometry relative="1" as="geometry">
            <Array as="points">
              <mxPoint x="1010" y="740" />
              <mxPoint x="1010" y="740" />
            </Array>
          </mxGeometry>
        </mxCell>
        <mxCell id="qmfGkKpHFtfPqxLsQfzV-2" value="" style="shape=cylinder3;whiteSpace=wrap;html=1;boundedLbl=1;backgroundOutline=1;size=15;" parent="1" vertex="1">
          <mxGeometry x="800" y="450" width="270" height="280" as="geometry" />
        </mxCell>
        <mxCell id="qmfGkKpHFtfPqxLsQfzV-3" value="" style="shape=image;verticalLabelPosition=bottom;labelBackgroundColor=default;verticalAlign=top;aspect=fixed;imageAspect=0;image=https://qdrant.tech/img/logo.png;" parent="1" vertex="1">
          <mxGeometry x="828" y="570" width="214" height="72" as="geometry" />
        </mxCell>
        <mxCell id="qmfGkKpHFtfPqxLsQfzV-10" style="edgeStyle=orthogonalEdgeStyle;rounded=0;orthogonalLoop=1;jettySize=auto;html=1;entryX=0;entryY=0.5;entryDx=0;entryDy=0;strokeColor=#000000;" parent="1" source="qmfGkKpHFtfPqxLsQfzV-5" target="qmfGkKpHFtfPqxLsQfzV-7" edge="1">
          <mxGeometry relative="1" as="geometry" />
        </mxCell>
        <mxCell id="qmfGkKpHFtfPqxLsQfzV-11" style="edgeStyle=orthogonalEdgeStyle;rounded=0;orthogonalLoop=1;jettySize=auto;html=1;entryX=0;entryY=0.5;entryDx=0;entryDy=0;strokeColor=#000000;" parent="1" source="qmfGkKpHFtfPqxLsQfzV-5" target="qmfGkKpHFtfPqxLsQfzV-8" edge="1">
          <mxGeometry relative="1" as="geometry" />
        </mxCell>
        <mxCell id="qmfGkKpHFtfPqxLsQfzV-14" style="edgeStyle=orthogonalEdgeStyle;rounded=0;orthogonalLoop=1;jettySize=auto;html=1;strokeColor=#000000;" parent="1" source="qmfGkKpHFtfPqxLsQfzV-5" target="qmfGkKpHFtfPqxLsQfzV-9" edge="1">
          <mxGeometry relative="1" as="geometry" />
        </mxCell>
        <mxCell id="qmfGkKpHFtfPqxLsQfzV-5" value="PDF Document" style="rounded=1;whiteSpace=wrap;html=1;" parent="1" vertex="1">
          <mxGeometry x="460" y="520" width="120" height="160" as="geometry" />
        </mxCell>
        <mxCell id="qmfGkKpHFtfPqxLsQfzV-15" style="edgeStyle=orthogonalEdgeStyle;rounded=0;orthogonalLoop=1;jettySize=auto;html=1;strokeColor=#000000;" parent="1" source="qmfGkKpHFtfPqxLsQfzV-7" target="qmfGkKpHFtfPqxLsQfzV-2" edge="1">
          <mxGeometry relative="1" as="geometry" />
        </mxCell>
        <mxCell id="qmfGkKpHFtfPqxLsQfzV-7" value="Chunk 1" style="rounded=0;whiteSpace=wrap;html=1;" parent="1" vertex="1">
          <mxGeometry x="660" y="500" width="80" height="50" as="geometry" />
        </mxCell>
        <mxCell id="qmfGkKpHFtfPqxLsQfzV-16" style="edgeStyle=orthogonalEdgeStyle;rounded=0;orthogonalLoop=1;jettySize=auto;html=1;strokeColor=#000000;" parent="1" source="qmfGkKpHFtfPqxLsQfzV-8" edge="1">
          <mxGeometry relative="1" as="geometry">
            <mxPoint x="800" y="590" as="targetPoint" />
          </mxGeometry>
        </mxCell>
        <mxCell id="qmfGkKpHFtfPqxLsQfzV-8" value="Chunk 2" style="rounded=0;whiteSpace=wrap;html=1;" parent="1" vertex="1">
          <mxGeometry x="660" y="565" width="80" height="50" as="geometry" />
        </mxCell>
        <mxCell id="qmfGkKpHFtfPqxLsQfzV-9" value="Chunk n" style="rounded=0;whiteSpace=wrap;html=1;" parent="1" vertex="1">
          <mxGeometry x="660" y="660" width="80" height="50" as="geometry" />
        </mxCell>
        <mxCell id="qmfGkKpHFtfPqxLsQfzV-18" style="edgeStyle=orthogonalEdgeStyle;rounded=0;orthogonalLoop=1;jettySize=auto;html=1;entryX=0;entryY=0.5;entryDx=0;entryDy=0;entryPerimeter=0;strokeColor=#000000;" parent="1" source="qmfGkKpHFtfPqxLsQfzV-9" target="qmfGkKpHFtfPqxLsQfzV-2" edge="1">
          <mxGeometry relative="1" as="geometry" />
        </mxCell>
        <mxCell id="qmfGkKpHFtfPqxLsQfzV-24" style="edgeStyle=orthogonalEdgeStyle;rounded=0;orthogonalLoop=1;jettySize=auto;html=1;entryX=0;entryY=0.25;entryDx=0;entryDy=0;strokeColor=#000000;" parent="1" source="qmfGkKpHFtfPqxLsQfzV-19" target="qmfGkKpHFtfPqxLsQfzV-22" edge="1">
          <mxGeometry relative="1" as="geometry" />
        </mxCell>
        <mxCell id="qmfGkKpHFtfPqxLsQfzV-19" value="Basic Prompt" style="rounded=1;whiteSpace=wrap;html=1;" parent="1" vertex="1">
          <mxGeometry x="460" y="765" width="120" height="60" as="geometry" />
        </mxCell>
        <mxCell id="xc2eHRiwwFAbVCIYUw1M-2" style="edgeStyle=orthogonalEdgeStyle;rounded=0;orthogonalLoop=1;jettySize=auto;html=1;exitX=1;exitY=0.5;exitDx=0;exitDy=0;entryX=0;entryY=0.5;entryDx=0;entryDy=0;strokeColor=#000000;" parent="1" source="qmfGkKpHFtfPqxLsQfzV-22" target="xc2eHRiwwFAbVCIYUw1M-1" edge="1">
          <mxGeometry relative="1" as="geometry" />
        </mxCell>
        <mxCell id="qmfGkKpHFtfPqxLsQfzV-22" value="" style="shape=parallelogram;perimeter=parallelogramPerimeter;whiteSpace=wrap;html=1;fixedSize=1;" parent="1" vertex="1">
          <mxGeometry x="630" y="775" width="170" height="70" as="geometry" />
        </mxCell>
        <mxCell id="qmfGkKpHFtfPqxLsQfzV-23" value="" style="shape=image;verticalLabelPosition=bottom;labelBackgroundColor=default;verticalAlign=top;aspect=fixed;imageAspect=0;image=https://dspy-docs.vercel.app/img/logo.png;" parent="1" vertex="1">
          <mxGeometry x="660" y="785" width="52.33" height="50" as="geometry" />
        </mxCell>
        <mxCell id="qmfGkKpHFtfPqxLsQfzV-25" value="DSPY" style="text;html=1;strokeColor=none;fillColor=none;align=center;verticalAlign=middle;whiteSpace=wrap;rounded=0;" parent="1" vertex="1">
          <mxGeometry x="720" y="795" width="60" height="30" as="geometry" />
        </mxCell>
        <mxCell id="qmfGkKpHFtfPqxLsQfzV-28" value="Top Chunks for DSPY Query" style="rounded=0;whiteSpace=wrap;html=1;" parent="1" vertex="1">
          <mxGeometry x="930" y="920" width="140" height="75" as="geometry" />
        </mxCell>
        <mxCell id="xc2eHRiwwFAbVCIYUw1M-1" value="Dspy Prompt" style="rounded=1;whiteSpace=wrap;html=1;" parent="1" vertex="1">
          <mxGeometry x="820" y="785" width="100" height="55" as="geometry" />
        </mxCell>
        <mxCell id="xc2eHRiwwFAbVCIYUw1M-3" style="edgeStyle=orthogonalEdgeStyle;rounded=0;orthogonalLoop=1;jettySize=auto;html=1;entryX=0.145;entryY=1;entryDx=0;entryDy=-4.35;entryPerimeter=0;strokeColor=#000000;" parent="1" source="xc2eHRiwwFAbVCIYUw1M-1" target="qmfGkKpHFtfPqxLsQfzV-2" edge="1">
          <mxGeometry relative="1" as="geometry" />
        </mxCell>
        <mxCell id="xc2eHRiwwFAbVCIYUw1M-11" style="edgeStyle=orthogonalEdgeStyle;rounded=0;orthogonalLoop=1;jettySize=auto;html=1;exitX=0;exitY=0.5;exitDx=0;exitDy=0;entryX=1;entryY=0.5;entryDx=0;entryDy=0;strokeColor=#000000;" parent="1" source="xc2eHRiwwFAbVCIYUw1M-5" target="xc2eHRiwwFAbVCIYUw1M-10" edge="1">
          <mxGeometry relative="1" as="geometry" />
        </mxCell>
        <mxCell id="xc2eHRiwwFAbVCIYUw1M-5" value="" style="shape=parallelogram;perimeter=parallelogramPerimeter;whiteSpace=wrap;html=1;fixedSize=1;" parent="1" vertex="1">
          <mxGeometry x="610" y="910" width="190" height="120" as="geometry" />
        </mxCell>
        <mxCell id="xc2eHRiwwFAbVCIYUw1M-6" value="" style="shape=image;verticalLabelPosition=bottom;labelBackgroundColor=default;verticalAlign=top;aspect=fixed;imageAspect=0;image=data:image/png,iVBORw0KGgoAAAANSUhEUgAAA78AAAIzCAYAAADI5a6NAAAAAXNSR0IArs4c6QAAAARnQU1BAACxjwv8YQUAAAAJcEhZcwAADsMAAA7DAcdvqGQAAP+lSURBVHhe7J0HeBzl1YWPeu+9y5Jtyb3b2Ni4YTC919ASICT8EEgCAULoIQRCCSQklIRQAqH3XmzjgnHvvatYstV7l/45szOr0Wp21VbSSrqvn3l2vhlZ2p2d8p1b3VoUIAiCIAiCIAiCIAiDGHftVRAEQRAEQRAEQRAGLSJ+BUEQBEEQBEEQhEGPiF9BEARBEARBEARh0CPiVxAEQRAEQRAEQRj0iPgVBEEQBEEQBEEQBj1S7VkQBEEY8DQ2NqKqqgpNTU3q4ubmBnd3d3h6eiIgIAAeHh7aTwqCIAiCMFQR8SsIgiAMCJqbm1FYWIijR4+qS1FRESorK1FRUYHq6mrtp8wJDAxUl6CgIERFRSE+Pl5dwsLCVKEsCIIgCMLgR8SvIAiC4LIUFBRgz5492Ldvnyp4GxoatD3OwdfXF0lJSRg5ciQyMjIQHBys7REEQRAEYbAh4lcQBEFwKY4fP44tW7Zg9+7dqne3L0lISEBmZiYmTpyoeokFQRAEQRg8iPgVBEEQ+h3m6dLDu27dOhw6dEjb2n8wX3j06NGYPn266hmW0GhBEARBGPiI+BUEQRD6DRaq2rBhA1atWoXy8nJtq2sRGxuLefPmqWHRIoIFQRAEYeAi4lcQBEHoc1i8aseOHViyZAlKSkq0rZ3Dy8tLzdX18fFR11nRWV/osTWiV3+myOZSX1+P2tpadeH2rkAP8KJFi5CcnKxtEQRBEARhICHiVxAEQehTcnNz8emnnyIvL0/b4hi2KdKrNfv5+TmtbRGLZ9XU1KgVo7l09nHInODTTjsNISEh2hZBEARBEAYCIn4FQRCEPoGe1++//x4rV67sUGjSg8vKy1zo5e3tcGN6otkuiaHXbJ3UEfQ6L168WC2MJaHQgiAIgjAwEPErCIIg9Dr08n7wwQdqJWdHeHt7q713KXptQ5j7Cor00tJSdekoNHrEiBE466yzpEWSIAiCIAwARPwKgiAIvcrmzZvxySefOBSSzN2NiopSQ5tdxZNKbzAFMNstcd0eAQEBuPTSS9WcYEEQBEEQXBcRv4IgCEKvQMH4zTffYPXq1dqW9jB/NzIyUs2fddXwYYr24uJitTCXvUcmP8eZZ56JSZMmaVsEQRAEQXA1RPwKgiAITqeurg7vvPMO9u/fr21pT1BQEGJiYpxWwKq34WfKz89XK0XbY+bMmWpF6P4K2RYEQRAEwT4ifgVBEASnQpH43//+F9nZ2dqWtlDsUvRS/A40+MikF7iwsFDb0p7JkyerXmARwIIgCILgWoj4FQRBEJxGR8KXlZsTEhLUnrwDGXp/2bKJxbHMYPgzC2GJABYEQRAE10HEryAIguAUOhK+rIhMj+9gEYQUvhTA9sKg2Qbp7LPPHnICmLnePDb2DAPCwIKRGixIJ4YcQRAGAyJ+BUEQhB5DwfPWW29hz5492pa2sKhVeHj4oOuJy8/NPGB7vYFPOukkLFiwQBsNLjh9YDVsGgCOHj2qvvJY0AgiDD4oglmRPT4+Xl0YwcHxQI/iEARhaCHiVxAEQegx3333HVasWKGN2sIJMoXvYIWPUYq+8vJybUtbLrjgAowbN04bDWz4WenZX7t2LQ4cOICamhptjzAUoSCmEGaYP89xeogFQRBcGRG/giAIQo/Ytm0b3nvvPW3UlsEufHUcCWB6xn7605+qnrKBSkNDA7Zv3441a9aon1MQbPHz81NF8NSpU4fENS8IwsBExK8gCILQbY4fP44XXnjBNL8zIiJCDXceKvBxmpeXZxoCzcrWN954oyoQBhIUvStXrlQ9veLlFTrLiBEj1HD/uLg4bYsgCIJrIOJXEARB6BZNTU3497//reZ72kKxx4nvYMvx7QjmAGdlZZnmvY4fPx7nn3++NnJ9cnJy8MEHH6CoqEjbIgidhwWymPM+Z86cAdPLWxCEwY+IX0EQBKFbLF++HEuWLNFGrfj4+CA5OblH1WH5/zMzM7VR33D48GHs3btXG3UfekuPHDmiGgdsufjiizF69Ght5JrQi79s2TKsWrVK9WZ3BPM8WcmbBg8u9G5T7PD7H2rGj8EGv38uPJfr6+vVqAZ9qa6u1n7KMbGxsTjvvPPUSu+CIAj9jYhfQRAEocscO3YMzz//vOrpNELBk5qa2uPCN/wdM2fO1EZ9w86dO7FlyxZt1DMYIkwPsC3+/v5q+HNgYKC2xbXg98r8bYazO8Lb21v17FPYsHeziNyhB40kjApg5EdZWZm21RzeF+bNm4fZs2f3yCgmCILQU0T8CoIgCF2Cj42XX35Z9W7aQjEUEhKijboPxdQpp5xiWjiHE+6OJtu28PdRpDEH2Z4wd6b4JQUFBSguLtZGrUyZMgVnnXWWNnIdKGJeffVVu32LCT28eosbETGCTmVlpdrqisYTW4OYEZ77Z5xxhpw7giD0GyJ+BUEQhC7B0OA33nhDG7VCbybbnjjLCxgWFqYKYNuJMkMuv/jiC9Ow4o5gOO7YsWNNQ4+dLX4pAmggYLioER4fen8pIF2FjoQvPb0ZGRlqETNBsAfPdd4fCgsLtS3tmTx5Ms4880wRwIIg9Aty5xEEQRA6DQXdt99+q41a4USWOX3ODH8tKSnBnj17tFErzCvtbt9cCmYKXGfk9nYEj4lZtVvanM2OYX/RkfCNjo7GtGnTRPgKHUIjyZgxYzBq1Ci1xZcZGzduxCeffOLQQywIgtBbiPgVBEEQOs3WrVtN80EZnmxvstsT2EOYIZW2sBhWT3qJUgD3ResehlqbhYFT1JuFjfc1joQvv08KGXrJe5rDLQwdaACjIYwGE3vX6KZNm/Dxxx+LABYEoc8R8SsIgiB0CnosWQHYFookhij3BvTUrlu3Thu1wgn29OnTu+1pZrGeAwcOaKPehR5Ts/dpdiz7ErZjevvtt+0K3wkTJrhUaLYwsGDVd6YYMHLAjM2bN2P9+vXaSBAEoW8Q8SsIgiB0CrYCYhEnW1hEqjfz9/Lz89W/bQsFN8Mru8uhQ4e0td6FXlMz4wBDr80KYvUVX3/9NUpLS7VRK7rwZXi5IPQE3hd4jdprc/TNN99IH2lBEPoUEb+CIAhCp1i7dq221gqFEisA9zbME6Sn0hZ6lror0hhOzbzivoDhn2beXzOvdl+wf/9+bNiwQRu1IsJXcDY875mmYCaA2RP7ww8/lPBnQRD6DBG/giAIQoewtdDu3bu1USuhoaHdDj3uChS+zBO0hdWbZ8yYoY26Tl5enrbWu/B9mhkJ+Jlsq0H3Nsx1/uijj7RRW5jjK8JXcDa6AOb9wpbs7GysXr1aGwmCIPQuIn4FQRCEDtm+fbua82uLM3r6dhaGKTME2hbmpY4YMUIbdY2cnBw1lJtLVVWVtrV3MJv4M9+2LypPG2G4M9tF2cL+vb2Vuy0IFMBsl0VDkC1Llixx2B5JEATBWYj4FQRBEDrEXsshhsn2JQwTNuvvy1Bdf39/bdR5mG/ItkNcGArcm7Dys5+fnzZqxcyj3lvQg89CQ7bwfaWlpWkjQegdeJ6lp6dro1Z4TYv3VxCEvkDEryAIguAQekQZmmhLX+T62sI8XbY/soVFpdhaxdUxCynet2+fWn26L2B1XTMPPkNSzTxyguBs2PvarAUS26j1RfsxQRCGNiJ+BUEQBIcwLNdWMDGEsTueVmdAT6lZoar4+HikpKRoI9ckMDBQW2uF+cxm1aydDYsLmRW5YiGivgxfF4Y2vHeYpSnw/DTL6xcEQXAmIn4FQRAEh5iFAwcEBPRqeyNHUIiz8rSZB3PKlClqf1FXhR5qhj/b0tsh12THjh2orq7WRq0w11cQ+hKGP7P/tS28rqXysyAIvYmIX0EQBMEhubm52lorFL/9CfvjmhWKovCdPHmyNnJNzI6d2TF2JrrBwBaGYfdH+LogmBld2He6rwvACYIwtBDxKwiCINiFnkJOSG0xK9zU1zBH0KxCc2pqqhoC7aqYHTu2XDIr5OUsysvLcfToUW3Uinh9hf6ClcXNUid27dqlrQmCIDgfEb+CIAiCXcwEE3P2vL29tVH/wSJRLOBkBotf9XUl6s5iFvbMz8J2S72FmWeZxyc6OlobCULfwvsIi1/Z0ttREIIgDG1E/AqCIAh2MRO/FG+cuLoCfH9HjhzRRq3QozRx4kRt5FqwqjJzf20xO9bOwux3M9y5v/K2O4c7fAJDEROXiKTkFCQnxiM2KhyBPl2vSu3u6YewqFjEJyYhOSkR8bFRCA306fIkyN3TFyER0YhLUH5PivKekhIQFx2BID9P9PyKcFM+b7jldyu/NzoiGF4dvEE3D28Eh0cpnytZLfbGY8T/5+Oadp92mPW+Zr9fFoETBEHoDdxazCqGCIIgCILCRx991K4CKyesrBDsKlCMn3HGGabeaPbv7U2PanehGK2oqNBGFubMmYOFCxdqI+fy6quv4uDBg9rIAsXSsGHDtJEr4Q7/iCSkD0tAWIA33G1UZUtLE2rLC5F98ACOltVrW83xDopBSmoSYsIC4Nn+F6GhrhzHc7OQlVOEOgezIa+AKCTz90QEwdv295CWZtRVFuNo9mFkH6+Eo5JNbt6RGJGZhCAvNzRUHMWevfmoc/NF3PDRSI8PgqfVsNSC6vydWLu7/fnr5h2MhJRUJMaEKULXzUZ4t6ClqQ4lx3Jw6FAOKhq0zS4Ii1utWLGiXfG6a665Rk1fEARBcDbi+RUEQRDsYivQiJnXsj+pra3F5s2btVFbRo4cqa25FmbH0OxYd5bvvvtOreZsBoWFmefXrOdw/+OOkMTRmDQmFRGB7YUvcXPzgF9IDNLSE9A+gFzHHcFxmZg0MRMJEYHthS9RRKaXbwgS0sZi0rgk+Jr8COCB0IRRmDJ5NJKigs2FL3Fzh09QJIaNmoTJoxLg52B25e4biLDQEOX4ByM0PBS+7j6IzxiHEfHBBuFrwSx03zskEROmTEB6Qjh82wlfomzz8EV4fDomThmH2CDX7d/MyAOz9l8S+iwIQm8h4lcQBEGwi5kgc8Vc2gMHDuD48ePaqBVXCc+2xewY9kT8zp8/H48//jjOPvtsrF69WttqgZWxaSCwxRXFr0dQEjLSIuBFkamI9vqK4zi0Zzs2b9yIjZu2YtfeQ8gvrkRjc4si8DzgYefr9YscjtEjYuCn/4DqmS3BsaM5yM7ORX5BMarrm6D6G5VzxDc0AqHetr/MDcHxmRgzPBq+ht9TX1WK43nK78nKRm7ecZRU1kF5OxYUYR4YnY6xGTHonInIDUGJI5EWE6AI/RY01pbjuPIej+YXoKKmAQ0NbT3bnoEJGDM2DaE+HqrobWmqQUHOQezcthkbN27Cth17cCS/DA3qG3KDh284RoweifB2n811MDsPezMFQBCEoY2IX0EQBMEulZWV2lorrlpIyqz3r22or6vgbPFLD9q///1vhIeHY9asWZg7dy6+/PJLdZ/Zd0jPs+v1Q3ZHZFws/FTvqiIEK3OxdfNOHMkrRGl5OcrLihXxegS7t67Hmg07sP/wMdS0/bpV3DzDkZYeC1/NS9vSVI3cvRuxZv0WRTzvx4ED+7B7x1as/XENtu07isqGZgYKU2u3wUMRmiPSI+GlGVBaGiuRvXsjfly3GTv3KL/n4AHs27MTW9avwcadWervUXFzR0B0GoZFd3x83bzCkJISDk/l79cWH8amdRuxU3mPe3fvwIY1P2DdniLtJxXcApAyYhiC1UTgFjTVFmL3pg3YsT8Lx4tKUV5ehqKCPBzavQkbduSgukkXwFFISw132QmfmefX7JwVBEFwBiJ+BUEQBFOYj2fWSshVxW9UVFQbTy/7hbqqB4lFr2xxNOGn57aoqAjZ2dnYvXs3NmzYoOZKUuC+//77eO211/DCCy9g7Nix6s8vX74cp512GiZNmoQPP/ywnVHA7O/3O25+CAryVj2aFHcVhfmotNP9qaGqEHkFFaa5tUGxSQj31aY3LQ0oOrwT+/NM8nCb61Gcuxcb129VzpUsFNcbj5EnYpOTEKh5fFuaa5G7exsOHDPL521GZcFBbNt1FDW6C9jNG9GJ8fBrPR1NYcEqL+WraKrJx+6dR1DloNuVb2QSYoMthbX4fnL27sGxykbLThtqiw5hf47yXlX96w7/qDiX9f6anYsNDS6cqCwIwoBGCl4JgiAIprD9zh//+Edt1EpaWprL5f0ydHLx4sVWYc7exF9//XWv9s7tCRSzepVqCtk9e/ao75UCngYH9lfmK5eampoefw72VD3xxBPVCtgUG6yGPX36dG2vi+AWjIypExAXQDHUjOKD67E1q9qyr7O4+WP4pClICLaEBTdV52Lz+n2ocFSBygQ3nzhMmj4Swar4bUFN4R5s2J4Pc6mp44WE0VMxPNrHIuCbq3Bg0wZk2/xxj+BUTJ2Yas0LbmmuQfb2jThY7EjweSF53DQMi6BxoAX1xQewfmsOHJX7cvdLwKRpwxGkhpA34Oiutdh73PVEJQvS2earswXXjTfeqI0EQRCch3h+BUEQBFNoG2UlZVvPjKvl0TLkl6G+uvClUPzhhx9cVvgS4zGkd3rfvn1qiPaaNWuwfft2df3YsWOqN9gZn4NefBosXLq1UUsd6uoZgEzcEBydgOAuBhm4+YQiJNDdIj4VAV1dXIDKLgpf4hsWjgC9uFVLPYryCzsQvqQBhcdLoEYbEzc/hIbaL8llgcL6MLIcCl/lV3mGIlTz+jI+u7y4yKHwJc21laiq1T3RHggM9LesC4IgDGFE/AqCIAh2oYfSlUUkGTdunJrrqsPKz2VlZdpo8MKcXfbqpbc4MTER6enpGD16dJscSh6XO++8EzfddBPGjx9vFd0Uw65HHYqLKrTiUW7wDIzHuImjEBeieVI7gad/IHx1w0JLEyrKKzUx3RXcEBgUaK003dJUidKyzl0D9ZXlrXnIyvvwC/B3PNGisD7WsbD2CAiEn4f+mxpQXd2R9CUNaGi0vhl4+7pajrcFs3PR1SJLBEEYPIj4FQRBEEyx5yV0pWwZ9hseNWqUNrJ4UZnr6+oYjyHzci+88EJceeWVag7v0qVLVc81w6EZDrp//34115fVrCnqaZCgYOArx9zO/fy5L774QhW89NjffvvtahXsX/ziF+3ytF3VoFGRdwh5FY1W769XYAwyJk7HdEUEJ8eEwKsDFezl49NaAVoRlrW13RH5HvDz9bIK7ua6GtRaRaRjWuqVn9ULXyl4eXcs3DtzOXl4+6I1ZdcL8RnTcMIJJzheZkxAXGDrNezu7oJ53gpm56Kr1hUQBGHgI+JXEARBMIXi10wAu4rX0NvbW53k695M5sb++OOP6rqrY5zw02s7ZswYTJgwAaeeeirmzZuHmTNnYvLkyaonlx5d/gw9vPT00uNrFnpOEaz/f+YQP/bYYwgNDTVtJcOCQnV1ddrIdWhpKseB7TtwtLRt+yC/0BikjZqIGTMmYnhiBHzszF48PY0CrwlNnRStbfFSfk/r8W1pbERDZ39NSxMaDd5WN0VwOkNyenh50pFswc0dnj6+qoHD8eLTpr9xS4srevthWujNNXtQC4IwGBDxKwiCIJhCgWU2CWUhLFdgxowZauEmHebLuqKgM8PsGPZkws8CX0888QTefPNNvPLKK0hOTtb2WIpdUQzZ0pPWSr1JS30J9m1ehy17jqCoqr5VBCti0tM3FInpYzF1ciai/G1lpSI22xgF2rcv6hTK72jza4zrXUTPYO4pbd6CIrBrK8tRzvZPnVzKSo7jSHax9gtcC7PzMD4+XlsTBEFwLiJ+BUEQBLu4qvjVvaE6bP+Tl5enjVwfZ4tf8uijj6reY1soCM3EhKuKXwuNKMs/hG3r1mDjtr3IKahAo7WNkCUcOnPscIS2iY5tsYlK8ICHNQa6C7Q0K7/HIFrdPWBwBHeAu+FvKtK3qbEThbI6psn4uVoakL9/CzZu3NjpZdOWXTha7nqVnvl9mXl+RfwKgtBbiPgVBEEQ7OKK4pehvwwJ1ikpKcGWLVu00cDA2eKX4c2OGHjiV6cJlcVHsX/HBqzZuBv5FfWaL9UNHn7RSEkIbOMVbWhobPX2unnB26cb4hcNqG9o9dm6+/jaDbO2xc1L+VlDYnJ9ba1TfL9N9Q2GKtIe8Ooo+XmAwFZeZjUE4uLitDVBEATnIuJXEARBsIuZIKuv70yl2d7Btq0RRSSLQ/UkDzkgIEAtEsWlr1oBmR3Dnnp+HWEmfhkO6yr5252hofIY9mzdg8Ia7T27uSMwLAxG529jbU1rfq4ifgMCOmo1ZEYzaqrrWsWvhz8C/Tt3XngGBsGvtUw0qioUcWcZ9Yim2mrUGcSvf7c+l+vBcH1bmNvOvHZBEITeQMSvIAiCYBdORG1hleH+gmG9zGHVYUgnRVxPmDp1qlooiguLaPU29HSZHcPo6GhtzfmYiV8aDgoKCrTRwKCloQSFJa3eXzcPzzYhyU1V5ahu1AW9G4LCI9B1GdWCyvKKNv16I6KC2ubdmuKp/Fy4tSJ1S3MFikudE2rcXFOBSmvlajcEhoZ343O5FrwOzFIVxOsrCEJvIuJXEARBsEtCQoK21gq9lv3hMeSkODMzUxsBOTk5aiufnmLsEdwXXm1WWjY7fmbH2lmEhISYiorc3FxtbaDgDk/P1qkLc2qtIlWhpbEUxWUNVnHsGRyPhHDHPWN9QpMwYcpoRLb2EkJDWQHK6ls9zEGxyYjycyx/vYITkBTtq4nkFtSVHEdRreHN9YSWChQW1xg+VxwSI3rfUNOb0OtbXV2tjVoxti4TBEFwNiJ+BUEQBLvQG+nh0b5ZS197fxkGyerOOpw0s7pzT2GurF4Jme2H+kLUmx27wMBANZe5t2DRq+nTp2ujVug1d5XcX4/gFEyZNh6pMUF22wN5BsQgOtxTE5jNqFHef1vfaiOOHy1AvaY53dx9kJCRidggk76xbl4ITxqNiePSEBYQAH9DfnBLYwly8yqtlabdvcMxfPQIRPiZvzNvRfiOGp0Mf63YVUtTFXKzjjml2JWFZpQcPYpKTem7ufsifmQm4kMcC3tO8/xCohEXFehyEz4ar2yhkWbkyJHaSBAEwfmI+BUEQRDswtzamJgYbdSKmcemN2E/Xz8/P3Wd4ZLs5+sML21SUpK2ZvHI9gVmx643vb46Y8eOtR5DI67i/fXw8Ye/fzhSMydhhiKCh6fEIyI0GIGKMA0KCUdcSgYmTkhDsOb5bWksx9H8cs0b2kp9SRayC1q9pB4+EciYOBUTMtORFB+LmNg4JKWOwISp0zAuLRp+imBtUWRqa39e0oLSnAM4VtVo/T3eQXEYO2Uqxuu/JzoG8YmpGDlmMqZNHI5wXw+LKG9pQHHWPuSWO9eQ0lSdh4NZZZqnm58rHCMmTMXEzDTER4cjJCgAAQGByrEKQ1RsAoaNHI1J009Q3ttoDE+NhX+rtu932JO7qKhIG7Uybdo0U2ObIAiCsxDxKwiCIDjEKBB1zNqT9Bb0BBlzVnft2oVjx45po+7DSXZaWpo26hvxS+FuduzMjrGz8fLyalMlWyc/P7/HedPOoKmuFvWs/OvmDu+AcCQOG4lxEydjqiKIpkwaj4xhcQj0tgjMluY6HDu4H8eqjYJVpx65+/aorX30vW4evgiLTUL6yEyMysxAemoCwgK8Lf18WxpRdjQbx2va/q6WxjLs37kPhdWtAtjN0w/h+u8ZPQojh6ciPioYXlqRq5aWehRn78buI2VwfgxBM0qO7MTe3HJrqDc926GxyRg5ejwmTZmmiMepyrGagDGZI5ASH40Qf2/wrbWwfZPlv/Q7vAbM0hVoaDM7PwVBEJyJiF9BEATBIRkZGdpaK3V1dX0iFhkGOXHiRG0EFBcXY9u2bdqo+zAMmF4mf39/bUvf5Psy5Jnh1bYYc5l7E35mfnZb2CfZ7H31JU3lWdi1NxelNYpoNdO0RNnRUF2EQzs2Y8/RSqu4taWloRT7t27G/qOlqDf27DWi/66dm7B1f6FpiHJT9THs3LQFB46WoM6YXGyLIi7rKgpwcNsmbDtYZBOK3ZaWhjrUNrIlUwuaGmpRq8dod4p6HNu/BZt3HUFJtYPjpNHS3ICqknwc3J8LUztBP0DDVWFhoTZqhZEJxutREAShN3BTbr4ucjsUBEEQXBGKor/85S/tclWZD2ysvOxs6Jk95ZRT2vSwXbduXbdzVCn62MqILYVSUlIQERGh7bFAD+jSpUu1Ue9w/PhxtS+xkcjISNx0003aqPd5//33sXXrVm3UCr3P6enp2qg/8YR/SBjCQ4Pg7+cDT3c3tbBVXW0VKspKUFxaja7IdA/vQIRHhiMk0B9eDJluqlfO5RpUlpagqKy60x5Rdy9/hIWHITgwAD7enmB6b3NTA2pqKlGhfKclFbV97F31gB+PU4jlOHmp4cLNaG60fL6qygqUl1eirk04d//CewivYVtDC6/LX/ziF71a8VwQBIGI+BUEQRA6xEwwsQgVRaSZJ9EZTJkypU+L32RlZWHVqlXayPnwcctwT9uJ/+zZs3HyySdro96HOcfPPvssqqqqtC2t0MtuNDYIgrPg+c97iK3xh8yfPx9z587VRoIgCL2HhD0LgiAIHWLWfoShz71V9Zk5vn1d9bW3w7jpsTYLLe7r1i4MLT377LO1UVu2b9/ep/ncwtCAwnfPnj2mwpfF3mgAEgRB6AtE/AqCIAgdMmLECLUdjy1mk9mewtZDrO7c1/R2zq/ZsWLvXWMxr76CedzGXGqdxsZGbN682WXaHwkDH134Mq3AFha5Ovfcc6XCsyAIfYaIX0EQBKFDOEmdOnWqNmqFIsnZHtOoqCg1pLqv6U3PL1u7mHnJ2Xu3t8LGO2Lx4sWmvYUpgLds2SICWOgxFL4spmYmfMnChQvV610QBKGvkJxfQRAEoVNQDD311FNobm5b1ocVmWNjY7VRz6Hnl7+zr+Hn643+xXzMZmdnqwLYCMOPf/3rX6stiPqLnJwcvPbaa2oIuy00eDD0XIoQCd2B5xQ9vqzQbsa4ceNw3nnnqcWuBEEQ+goRv4IgCEKneffdd9W8UFtSU1P7xVs7EGAObW5urjZqZc6cOarnq79xJIAJPXMMe/f29ta2CIJ9OK1kO6P9+/erUQRmTJgwAeecc44IX0EQ+hy56wiCIAidhhVZzcJ0CwoKtDXBCIWA2bGhd3vmzJnaqH9JTEzElVdeadd4wffP9jR8FXu54AiG9rMPN0Od7QnfSZMmifAVBKHfkDuPIAiC0GnoBeTk1Ra2zZEqwe1hkSuzQlqsbsuwZ1eBAviqq65SRbkZzIfesWMH1q9fj6NHj9oVNsLQgwaR0tJS7Ny5E2vWrLEb5kzYvuyss84S4SsIQr8hYc+CIAhClygvL8czzzzTTgCxYuuwYcOkcqsGw4iPHDnSzlvKIlM333xzv+b62oPhquzpzFdH8DtmnjeXgIAAETNDDJ7TPL+LiopUY4hZz2gjPF/mzZuHE088Uc4VQRD6FRG/giAIQpdZsmQJli9fro1aCQoK6pfWPa4GH60UvmZ5tCzyw5xHV4VGDX63K1as6FSYM8Pg2QaL3z0XPz8/VexQ5PRXJWvBOfD7Z4E7LoxgYFE4fems95/3A7YzksJpgiC4AiJ+BUEQhC7DMNjnn38ehYWF2pZW2LvWrIXOUIL5sWbhn8OHD8dPfvKTASEK6dH78MMPcfz4cW2LIHQeGkDmz5+v5rZLNIggCK6CiF9BEAShW7BK8L///e923kEKu6SkJNUDOBRhWHheXp42aoX5tDfeeOOAMgzQu7d69WqsXbtW9fYJQkfQ45+ZmakKX+nhKwiCqyHiVxAEQeg23377LVauXKmNWqGnh+2P2Ct2KMFevuzpa/ZoPf/88zF+/HhtNLBoampSK/iy6vPhw4e1rYLQCkPep06dismTJ6vrgiAIroiIX0EQBKHb0DP40ksvqSGytrB1Dj3AQyXkkTmRWVlZqlC0ZezYsbjgggsGRQ4sw6Apgg8ePKgWPBKGLqxYzkrhrAA/cuRICW8WBMHlEfErCIIg9IiysjK8+OKLpq2OGOrLyfFgnxQ7Er4s+PPTn/7UJas79xT2dWWIN40ffOXCIl/MCadhRKYYAx9Gb/Dc5RIZGamez8zr5ytD+KWomSAIAwkRv4IgCEKPYajvyy+/bCr+BrsAdiR8WQX55z//+ZAvACYIgiAIroA0WxMEQRB6DMObzz77bG3UFnoHKY7pDRxsMMfXnvClx+zSSy8V4SsIgiAILoJ4fgVBEASnwarAn3/+uTZqCz2/CQkJg6YKNMO98/PztVFbKHwvv/xypKWlaVsEQRAEQehvRPwKgiAITsWRACYxMTEICQkZsLmCfGyyj29JSYm2pS0ifAVBEATBNRHxKwiCIDidNWvW4IsvvtBG7QkICEBsbOyAa4XEEG56e1nUyQwRvoIgCILguoj4FQRBEHqF7du348MPP1Sr/prh7u6ueoHZE9TVvcB8VBYXF6OwsFDb0h5+jssuu0ytgisIgiAIgush4lcQBEHoNXJzc/Hmm2+ioqJC29Ie5gBHRUW5ZC4wH5Fs4cQwZ0cFu5jLzOJWFMCCIAiCILgmIn4FQRCEXqW8vBxvv/02cnJytC3msC0Q+4j6+PhoW/oPPhqrq6tVTy9DnR0xYcIEnHnmmYOyj68gCIIgDCZE/AqCIAi9DlsBrVq1CsuWLUNzc7O21Rx/f3+EhoaqYrivw6H53ijWWcyK/XsdQU81Re+YMWO0LYIgCIIguDIifgVBEIQ+g8WiPvjgAxw7dkzbYh8Wj2KPXIpgX1/fXhPCFLz08jK8meHZHYlzkpGRgbPOOkt9b4IgCIIgDAxE/AqCIAh9CgtgsR3S8uXLOwwp1mGPYApNelsphL29vbsthvnYY7XmmpoaVfRWVVWp2zpDeHg4Fi5ciNGjRw/YVk2CIAiCMFQR8SsIgiD0CxSfK1asUNsiMSzaEfqjShecfKUIZp4tPcT6wu36z/D/0ItLsa0vLFpF7+7Bgwdx/PhxjB07FmFhYerPO4Kh2HPnzsWUKVPUvyMIgiAIwsBDxK8gCILQr5SWlmL16tXYvHmz3f655MiRI2r7JHp/WV05MTFR7RfcGRjSvG/fPuzevVsVvhS9ixcv7rC4FsOup02bpi4U24IgCIIgDFxE/AqCIAguAYXvli1b1JBoe/106SHm/u+//179eRbG0oUwl9jYWNUzy0cbf8eePXvURa80TeHMXN1Ro0apY3ukpKRgxowZam4vQ64FQRAEQRj4iPgVBEEQXAo+ltgfmF5aLmZCmH13X3rppXY5w+7u7qqXlpWaN23apG1tJSIiAmlpaYiJiUF0dLS66N5fimiK4szMTLXlkiAIgiAIgwsRv4IgCIJLQ6FLj/B3332nhkfv2rVLzdc1g95aPtYoiukF/vbbbzus3hwXF6f26p08eTLGjRunLiNHjpS+vYIgCIIwyBDxKwiCILgc9Nz++OOPquDlwlBnFquyB4tcXXTRRaqAvffee9X/f9ttt6kh0PQQ62KZXuFDhw7ZDavWofClF5hCmPnBuihOSkqyFtQSBEEQBGFgIeJXEARB6Hf4KGKYsi52WQWabYhsYYujE044QW03xPDkq666St325ptv4vTTT8cTTzyhil7C6sxLly5Vqzv/8pe/xBtvvIFHHnkEd955pyp+t23bZl22bt2qFtMy+5tGQkJC2ohhfWHusSAIgiAIro2IX0EQBKFfYPVlXexSpBYVFWl7WmEO78SJE1Wxy2XOnDlq2yFy6aWXYtWqVfj000/VsGW2MkpPT0dWVpa6n3zwwQc499xzVXH9yiuv4NZbb8Xnn3+OWbNmaT/RCsOj6RW2FcV8nx2FTrPYli6EdXFMz3FH1aQFQRAEQeg7RPwKgiAIfUJeXp5V7HLJzs7W9rRlxIgRVrG7YMEChIeHa3taWbJkCW6//XZ88skniI+PV7e98847uPjii9V1neHDh2PHjh2qd5iwgNYdd9yBl19+uVP9fQn7ETPP2FYU5+fnaz9hDqtEM3dYF8X6kpqaqop6QRAEQRD6FhG/giAIQq9QVlaGZcuWqUWnKHYpIM1gwSld7HJhXq0jmPt7zz33qIuxzy+9ufv371cLZJFhw4apLY4ee+wx1eOrw2JYLJw1b968HuXvdjd0mu/ZGDqtr0dFRWk/IQiCIAhCbyDiVxAEQXAKFJUMQ9Y9uxs2bFD78trC/FgKT13sdtRz1xaGR9Nra/SerlmzRvUSU2xfccUV2Lt3L37+85/j/PPPx7XXXqsKUzMPsrPpSeg02y/pglhfRo8ebQ3zFgRBEAShZ4j4FQRBELoFhe369eutYveHH35o13eX+Pr64sQTT7SK3SlTpqghwc6Egveyyy7DGWecgalTp6rC+5JLLlELYa1cuRLffPMNHnjgAe2n+57uhk7TM83QbaMgpqeY25x9DAVBEARhsCPiVxAEQeg0O3futIpdelkZ2mwLRRkFqC52GY5MAdxbMHeYOcBXX321Op4/f7763k477TS1uBVhOHJCQkKn83z7iu6GTvN40itsFMVc2NtYWjEJgiAIgjkifgVBEAS7sHKyLnYpMFm0ygwKMQrdk08+WW0xxJZAfQXDoCMiIrQRcNZZZ6kVoOltptd3oNGT0GkeB1tBPGbMGAQFBWk/IQiCIAhDFxG/giAIghUKSbYdothloSoWkDIjOTnZ6tllri2LVrkKl19+Of73v/+p4cEUjoOF7oZOE1aYthXFrETt5eWl/YQgCIIgDH5E/AqCIAxhqqqqsGLFCqt3d/PmzWpPXFvoUaTI1QUvc05dlRtuuAEvvPCCKtCPHDmibR28dDd0mu2fMjMz24li9iyW0GlBEARhMCLiVxAEYQjBNkGsjKyL3R9//FHdZgvb8cyZM8cqdidOnDhgBNFtt92GJ554Qq0qXVJSom0dWvQkdJoh68ZWTPrC4ykIgiAIAxkRv4IgCIMY3uIpenSxu3z5clRWVmp7W2H464wZM6xi94QTThiwIbH333+/WtmZrZAaGxvFi2mgJ6HT9AjbCmJ6jn18fLSfEARBEATXRsSvIAjCIOPAgQNWscv83YKCAm1PKxSE48ePV4Uui1TRyxsYGKjtHdjQ60vvL6moqBg0n6s36W7oNCt7Z2RktPMUM8fY2IdZEARBEFwBEb+CIAgDnGPHjlnFLhd7ea7p6elWzy7bAUVFRWl7BhfM92XeL8nNzUV8fLy6LnSNnoRO0+DAKtNGQcwlMjJS+wlBEARB6HtE/AqCIAwwysvL8f3331vFLj10ZsTExFjFLpeUlBRtz+CGlZ5Z8ZkwxJehuYLz6EnoNPsQ2wriUaNGwd/fX/sJQRAEQeg9RPwKgiC4OHV1dfjhhx+sYnf9+vVqLqstwcHBao9dXewyFHUo8sknn+Dss89W11nQi7nMQu/T3dBphkczKsFWFHMbw6oFQRAEwVmI+BUEQXAxGFK6ceNGVeiy1+6qVatUb5stLDQ0a9Ysq9idNm2aiAWFZcuWqWHd5Ouvv8aiRYvUdaHv6UnotJ+fH0aPHt1OFDOiQYqYCYIgCN1BxK8gCIILsHv3bqtnl+LNrEUPPWSTJ09WhS6LVJ144omqQBDasmHDBkydOlVdf/fdd3HBBReo64Lr0JPQafacthXEjHKQwmaCIAhCR4j4FQRB6AdycnKsYnfJkiVqYSYzmK+qe3bnzZuHsLAwbY9gjz179ljzfP/973/jZz/7mbouuD7dDZ0mw4YNayeKR4wYMWBbdgmCIAjOR8SvIAhCH0BPLtsO6YKXAs0M9lLVxe6CBQuQkJCg7RE6y9GjR63H7amnnsKtt96qrgsDk56ETnt7e6uGEFtRzOtMQqcFQRCGHiJ+BUEQegGGda5YscIqdjdt2mQ6Uacnl/mpuuBlz1ShZ7C3L4t/kQceeAD33nuvui4MLnoSOh0aGtquNzHH3C4IgiAMXkT8CoIgOAFWX163bp1aoIpid/Xq1aivr9f2tsIc3Tlz5ljF7qRJk9RcXsF50MigF/76zW9+gyeeeEJdF4YGPQmdTkpKaieK6TlmcTlBEARh4CPiVxAEoRvw1skJte7ZZd9dehxt8fT0VKswU+iySNXMmTPVUEyhd2Hxo6qqKlx33XV48cUXta3CUKUnodO8hkeOHNlGEHNh32wxXAmCIAwsRPwKgiB0ksOHD1s9uyxSdfz4cW1PK8wjpOdI9+yy725QUJC2V+gr4uLi1PDXiy++GG+99Za2VRDa0pPQaRpYdC+x0VscGRmp/YQgCILgaoj4FQRBsENBQYEqcnXv7sGDB7U9bUlNTVW9uhS7LFIVHR2t7RH6C3rq6NU79dRT8eWXX2pbBaFz9CR0OjY21iqE9YX9iqUtmSAIQv8j4lcQBEGjsrJSDV/WxS4nvWa3yKioKFXk6t7dtLQ0bY/gKrAfMouMMcz8hx9+0LYKQvfpSeg0w6OHDx9uFcO6pzg9Pd2any4IgiD0PiJ+BUEYsrAg1Y8//qgKXYYzr127Vi1cZQvDGxm+rItdTlqlTYprw+9r+fLlGDNmjOqxE4Teoieh0/QG0yusi2J9iYmJkXuMIAhCLyDiVxCEIQO9M5s3b7Z6dtmKyCyMkQWpTjjhBFXoMpx5+vTpatEbYeBw5pln4rPPPlOr92ZlZWlbBaHv6EnoNPOGjWKYnmIuNMQJgiAI3UfEryAIg5q9e/daxe7SpUtRXFys7WmFIYkTJ060enbZisjf31/bKwxELrvsMrz55ptqv9+ysjJtqyD0Lz0JnSbDhg1rI4q5ML9djHOCIAidQ8SvIAiDiry8PKvY5ZKdna3taQsnjLrYnT9/PsLDw7U9wmDg+uuvx7/+9S81dJSh7NKSRnBlehI6zUiVUaNGtRHE9BInJiZK6LQgCIINIn4FQRjQlJaWYtmyZVaxywmkGWx9o4tdLgyHFQYvv/nNb/DUU0+p6+Xl5dJuShiQ9CR0OjQ0tE0LJl0Uc7sgCMJQRcSvIAgDitraWqxatUoVuixStXHjRjQ1NWl7W+EEb968eVaxS8+IMHS477778OCDD6rr9P7TCyYIg4Gehk7T8GcUxFwyMzNVD7IgCMJgR8SvIAguDYXt+vXrrZ5dtq2hALbF19cXJ554oip0WaSKrW6khcjQ5fHHH8ftt9+uru/YsUOtqCsIg5mehE4zZ5ipILaiOCUlRVIGBEEYVIj4FQTB5aBY0cUu++6aFSyisJ06darVsztr1ixVAAsCee655/DLX/5SXV+9erVavVsQhiI9CZ1mdWnb0GkuERER2k8IgiAMLET8CoLQ77AVjS52lyxZohatMoM9W3Wxyz6uISEh2h5BaMvrr7+OK664Ql3/8ssvceqpp6rrgiD0PHSaNRRsRTGjK9i3WBAEwZUR8SsIQp9TVFSkilxd8O7fv1/b05bk5GSr2OUSGxur7REEx3z88cc455xz1PW3334bF110kbouCIJ9ehI6zfDo4cOHtxHEXNLS0iQFRRAEl0HEryAIvU5VVRVWrFihFqii2N2yZQvMbj0MpVuwYIFV7HIiJQjdgcYVnkOELY+uvfZadV0QhK7Tk9BpeoMZtWPrKY6JiZFWTIIg9DkifgVBcDoNDQ1Ys2aN1bP7448/qttsCQgIwEknnWQVuxMmTJDJkOAU1q1bh+nTp6vrTz75JH7961+r64IgOIeehk5HRka2EcNcKJKZZywIgtBbiPgVBKHH8DZCb64udunlrays1Pa24uXlhRkzZljFLosQcZsgOJvdu3db21ux7dH999+vrguC0Lv0JHSaMEyaQtjoKWYlalakFgRB6CkifgVB6BYHDhxQhS5DmZcuXaqGxdlCLy69ubrYnTNnjlj1hT4hNzfX2tuXXl96fwVB6D96EjrNHsQ0ZuliWF8SEhIkWkgQhC4h4lcQhE5x7Ngxq2eXy5EjR7Q9bUlPT7eKXebvMrRNEPoatscKDQ1V15nvy7xfQRBci56GTvMaN4ph3VssnQAEQbCHiF9BEEwpLy/HsmXLrGKXvXfNYNESXexySUlJ0fYIQv/R1NRkDZO88MIL8c4776jrgiC4Pj0NnU5KSmojirlkZmaqHmRBEIY2In4FQVCpq6vDDz/8YBW7LBhEAWFLcHAw5s2bZxW7LFAiCK4IC6oxpPKUU07BV199pW0VBGGg0pPQaRrDMjIy2oliGmwldFoQhg4ifgVhiMKQsg0bNljF7qpVq1Rruy0+Pj6YNWuWVexOmzZNejYKAwJGJRw/flwtrLZ69WptqyAIg4mehk4HBQWpRlxbUczWe4IgDD5E/ArCEIIVcCl0WaSKIc2lpaXanlbc3d0xZcoUq9g98cQT1T6NgjDQYJ9oFmZjoZydO3dqWwVBGAr0NHQ6Li6unSDmvUSeh4IwsBHxKwiDmJycHKtnl8vRo0e1PW1hLpQudufPn28tFCQIA5lJkyZh8+bNakVYXguCIAg9CZ2mcXjEiBFt2jBxYXsmiYgShIGBiF9BGESUlJRgyZIlVrG7d+9ebU9b2AJGF7tc4uPjtT2CMHg46aST1J7TDGtkATdBEAQzeho6TW+wWeg0Uy8EQXAtRPwKwgCGluqVK1daxe6mTZtMH9RhYWGqR/fkk09Wxe7IkSO1PYIweDn99NPxxRdfqOuNjY3imREEoUv0NHQ6KirKKoR1bzFFsvS7F4T+Q8Sv4PJQzNGDyYdNfX29tnVowurLzNtlKCeFLh/KnNTbwiJVfMAy7JMLe+8yXGsgQaHCar3MsZKejd2Ht/jDhw8jOztbreg9lG75Dz/8MJYvX66uv//+++r5NFTg9U5vFA1dnIALwkCC9Sj4fKuqquqU57WvYR9xeop5b+Wrvs57bGeIjY3FsGHDkJqaqr5yYXrGUDfQce7CY8PQ8oE2ZxEGDiJ+BZeFpybb7bD9jllhpqECwzVZrOfgwYM4cuSIqQGAbRr44GTeER+i7HE4WB6i/GycwNNzzYei0HnYm5ni79ixY9qWocXHH3+sGonIrbfeOmSNKGzlMnfuXPX+IAiuTHFxsRrFxGfeQJue8v0y9YgV5nnP1V+Lioq0n3AMn9mRkZFqqPTs2bOHtNGKLRXZWYIFN0UEC85GxK/gkvC0/Prrr6U9icKePXvw5ptvaqNWoqOjVaHLCS0nt7SYDmb4+a644gpV2AsdQ8PRZ599po2GJuztyzBFTqQuvvjiIV3IjRPICy64QPpyCy4LC1G98sorqKio0LYMDhoaGtTPZhTEXOjVtsfPfvYzedYpMFT8vPPOk5QVwamI+BVcErbh4SIAtbW1ePTRR9WJuy52+TqUQjh1vLy81EkBW1AI9mFOGsN8hzp8vDFyQLDAY3HppZciIyND2yIIrgEF7wsvvDDohK8jWLPDVhBznalMQzlSxRYK4AsvvFAbCULPEfEruBx8IDz55JOmuaxDFYY+03slQM0BvuSSS7SRYAvz45555pkhnSog2IcRI7/85S/FKCC4FAx1ZmX2oQ6n5AydprFbwn1b+cUvfiFpT4LTEPEruBysXvztt99qo1b0AkgyaRsa0PhhFhbG7//mm29GeHi4tkUwwiIxb731ljZqhRMpVhiV62doQCNIZWWlad7klVdeqRbBEwRXgHUsnnrqKbWysi185nt6emojYTDDexWdH2aOjwkTJqjhz4LgDET8Ci7Hq6++qhZ3MsJ8z+TkZLGEDjE4GcrKytJGrZx99tmYPHmyNhKMfPrpp1i/fr02skDDEUPlJW9qaMFcQ1ahtX3Ms4jMokWLtJEg9C+8x7/00kvaqBX2n2ePbmHowHtVbm5uO8M3z4Pf/va32kgQeoYoCcHlYI6rLRICNDRhqxZ/f39t1IrZOSJYMDs2DJkX4Tv0YI68WbqEXD+CK2F2PvJ+JcJ36MHIJLOoLrlnCc5E1ITgcpgFI8jEfehiZvSQgJWuIdfP0MXsu5frR3B15J41dJF7ltDbiPgVBEEQBEEQBEEQBj0ifgVBEARBEARBEIRBj4hfQRAEQRAEQRAEYdAj4lcQBEEQBEEQBEEY9Ij4FYQhhLuXP8IiIhEe4gcpJ+J6NDY3aWuCS+LmhcDQCERGhMBHLiBBUHn74HfIrjyujQTXwg3eASGIiIxAsK/ctASBeNyvoK0LgkuwYcMGVFZWaiMLbHnAXr/OwM0rCLGJ8YgKD0NYWBhCg/2A+hrUNnZcTdDdNwRx8XGItP5fHzRUVaGhWfuBPscTwTGpGDkqA6MyMjFyxDAkJ8QiXHlfTdWVqKpvfWNuvkmYc9pCTMocjuHDhyPavRCHj1XB1WsoVlRUoL6+XhtZSE9PV/s+DzY+PLIcz+94G+F+YYj3j1TbPnSVnTt34vjxthNRtosyaxnVHQbX9QN4B0YjbWQmMjMzkTFyBIalJCBGEbeeLTWoqKw3XB8+GD5zMeZOHaVeP+nxnsg7lI9aF7+Aqqur1X7ZRuLi4pCRkaGNBKFn/HP7//DWtjewq/o40oISEeoTqO3pHEVFRdi2bZs2ssCKv7xHOAdPhMYkIDY6Qv2dYaHB8HVvQHVNQ8fPPzcfhMfFIyaq9f96Nlaj2vBs7Xs6/9wPTJ6BxQunIUO5Z40YkYCm44dRWN2f771jmpqaUFpaqo0ssOvDSSedpI0EoWeI+BWcRnlDFT7L/gFJATHw9vDStnad3hW/nhh+wmLMGjcMSYmJSFSWpORUpKfFovH4ERTV2H8ouPsnYfbJ8zB2eLLh/6Yg1qcEB45W9LmIdPOKwLgT52Hm+HTERoQhKDBAETgBCAoORaTyoB82PBUBNUdxtMQiHL1Dh2HsSOW7oZ5yc4dnUzH2Hi6Gaz8Gh5b4PViei+/2fYYVWSuw5Nhm+HoFIDUoDu7K99VZelf8Dp7rh58lNnMW5s2egJTYSEWIByJAOUYBgcEIi4hGUmo6kkLrkJNdjEb+uHsoRowfiXBffhdu8PBuwrG9R1Du4s56Eb9Cb/O5cr8qqy5AflkWvjz4DbZX5Cn3rUSE+XSuT29vi1//5Ok45aQJSE2y3HcSk5IxLD0NkShE1vFqB/cePwyfeTJmTxiBZMP/TU30xbH9uajuB8NX15777ohKG4dhUX7KHYuPfS/UFe1Ddol6R3NZRPwKvY2EPQtOw9/DB69u/Deu+uxG/H7N37A8f7PrhXG6+cDPz0t9EBhx9w7HiIwEZTpsDzdEpmUiLsDD5v+6w1eZMHfdP9dD3PwwcsZsjEkMhof6x1vQVF+NivIK1DQ0qw9zNw8/xMSEWd9bY3UZKnUXW0sTKkrKXF74DjW8Pby1NeB4ySE8u/ZvuPrr2/HWwe9Q19TWANAvDJbrR/mLIcOmY9bEJOW+ZfnrLc31qK4oR2V1PZotFxACo6MR7K69u+ZqlJbrnqIWNFSUoqKpH2a/guDCtCj/tuWsxm++/R3uUuYB+8pytD39hRt8/PzgaXuTcfNG9PCRiFatweZ4hgxDRnIg9FuAjoevH3xtN/YFXX7uN6OytBz6baqlqRKlZa4tfAWhLxDxKzgNT3dPZWIciqbmBuzIXYMnfngcl39xEx7b+ip2KBN512tSrkxgq6tRr74tNwTEpSDW184DzT0cqcmhlodgcw2qqvtX1HtHjERGgiYaWppRlrUen334ET797FN8+N4H+HrlZmSX1KGhqfV9Nlcfxveff4FvlyzBt19/jiVbjov4dTF8TCImKqqO443N/8EVX9yCF3Z/gLL6tlER/cfAvX74fjJHJ8LHcgGhsTIbP3zxET769DN88tH7+PjLFdhxuAj1DU1oUqeUpAZ7Vn2OL79ZgiXffY3Pv9mEUhf3+gpCf8GrZqcyD7j9uztxx49/xe7SI5Yd/UxLYzVq6ixPPnffWKQk+Knr7XFH9LBkBFpuWqiuqu7352V3nvtlh1bjsy++xpIl3+Grz77BzkIRv4Ig4ldwKiH+kdqahbq6Cqza/zV+v/QeXP3tHfjXno+QX12k7e1/6otzcUybiLt7RSM5MUBdt8UnOhXxQRa/VmN5LvLKOn4MevgGIyYxBcNHZmLUqEwMH5aIqGBf+xedHd1gxbrfDUFRkfDTf1FLOQ7tOoQq/XnXUo/i7F1Y+dUn+HZDbpsHdlNtOQqOHUNBcaUyqe8Y78AopA5nXtFwJEUHtSuS5RMcg2EjlM+n7E+Mar9f6Bq+DtIF6usr8NnO9/DTL36lGpSOVhVqe/qP3rx+4O6D0OgEDEsficxRo5A5YhgSokPgbe8C6vT1o1ybgZEID7BeQCjJ2o3scn1S2IKa0hxsXf0NPvlyPQqNF0pzHUoLj+HY8WJUd2IO6eYZgNiUdGSMykB6cgwCbFzjzJ+OSx2ufD7uj263XxAGOhTBu4+uxx1L7sZtq59QDeH9SUtTCXKOakLWzQtxKYnwVfe0xc0jCsOSgi3P6+YK5OSUqdsd4w6/kCg1ZWJk5iiMyhyB1MQYBPk44abV7ed+M2rKinDs2HGUVDVo2xzhieDoZIzIGIWM4cmIDLR9JnkiNDZF/XzcH9FuvyC4PpLzKziVNYW7cKwsWxu1pU6ZvO8t2InP9n+JFcprfUuzaX5wr+b8unkjZtgIRGsT34aS/dhXGoqECB+4uSkPLq8aHD5caMnxs+KJlLFTkRLuBTflPRce2Ioi32TEBlukXlPFUew5Umz1D/mEJmHi9BNxwtRxGJ6ajIT4OMTGxiFBEcJpI0YgJdILpccLUNVg+R/ekeNw2hnzMXn8OIwdPRIRKER2QWseUmDiVJx6yhx1/+j0QBQcyIVHzHCkRrdagEuPHkB+ha2cbbaEb+q4R2DqKadhzrQJGDsqHUF1R5Gj5QPDPQrTTzsdc6aMR0aKL44fLkPM+Dk4aeY4DEuMR2xcApKHpSMlyh2FeQWodQvByCkn4aTpo5GSoHw+ZX+Ksj8pAsr+QtR2Rll3kqGU81tQW4ZlR77XRua0tDQhu/gAPj/4NbYp516Ccg1F+oZqe3s557cPrh83rxCkjZuGWbOmYYwieJMS4hEXG4u4+ESkpA3HiGFRyklRgMIKy0SuO9dPrU8MRg6PbfX8VuThYG659f/oNLe9gBA//mScOm86xo8dhdTwBmRlafnAyr7Eiadi8bypGDcqFW5Fh1EXOhYnzZ+JUWlJiOf1z9zoYdFoKslDURUQMWwy5iq/KyM1Ufl83D8M6amRaCxW9jvRMy45v0J3qWqsUZ4hzWpUlyOY81te3bExrrgyH98dXoq1yv0rPjAGMX7h6vbezfl1g1+kcu3FBarPy5amUuzZWYJo5WHl5eYGTz8vlGcdRoklhMWKf8IYTBweAU+3FjSUHsSOPC+kJoRoz9xKZO0+gnKrwvRERPJYzDhxJqaMHYmUpATEx8Uqz8V4JKUMw4gRaQjzrFTuyxVa/YAITFt8BuZMnYBxY0cjPdYd+UeOo057C26+CZh16imYpTyPx40ZDi/l7+dXNCM4ruvPfe/IsTj1tHmYMmEsMtMjUJmThTJNA3tHj8fpp89T7o2jkeBdguyKYEyeMw/Tx6Yr8xblnpuQjLThwxDmVoK841XwDE3F9JOU3zVqGBKUz2fZn4qQFmV/QZVBcPcMyfkVeht75ihB6BaxNp5fM3hfzincjZc3/ssF8oObkJ+VC0sUlBu8I5KQENTWf8kHUUq8r+XB2VyiTHhL202SrbjHYtrcWRiZEApvs5wgN08ExY3CrBkj4a/tri/OwdEyfnY3uHn4IDZzDJICLDvdPMIxatwwBHi5K3tbUJp1CEWNLaiuqlFEkPojyt/0w4ipyt+M8Xd4Qbu5+SIgwAvuygPf3dMX/obcTTdF1Pj5eqjVhT39wpB5wjzMyIxpm9fEHMiY0ThhijIpmD0Pk9Ij4WWzPzhuLE6Y6Cj3UzDC9iCv7PscL+7+EIcVAWYW9myPFmXysz1ntepR+dXKP+PH49v7IbXAydePcganTDoJ00cnIdjHNj+YuMErIBbjZs5AapDlbO/O9dNUW43aJn2q5o7g1CmYMTpWOd+1TaYok+iAAEUIKH9HEQO+AX7K5Fnbpezz8fNVry03D19Epc/AvNmjEOFn/AzKteUfjQknTMGYcSdi7vThCPW22a98tgknTHSYhygIXYXP1q9y1uDZne/g4yMrlHO/TttjTmVDNW5f/SR+8vH1uExZ7l77LCoaqrS9PefgsS24Z9n9uGXlo9hctFfb2nfUF2RbI1Z4j0hODjZch8QHiakJluKQyn22KDsLlQ6UnU/cRMydNQZxIbwHaBsNuHn6I3H0CZg6QhPPvA9mW+6Dbspz0z9yJMYM04uDeSA2YyySgrzV39VUkY3Dx2j87d5z3903AP5efLa7w8vXH77KvVDH3dtPeeYo90a+h4g0zJo3G+mKuG77WPdDwpgTMHn0OJw0bzpSInxs9vsjadwJGBvvjIKkgtA3OHzUC0JXifeP0tY6h1l+8DEPVn7tu0l8fWEO8rXYITf3MKSkhLZ5EAYnpiBKjbVsQUNxLnJbzb3t4OTbW9EvzCvKP7QDa1cuxTdffYVvl/2Ifcd0b5QbfKNTEK+LBOVBuGvbIdRqv9bdKwajR8crj0AW5RmLlBBP9f001eZi++7jarhyVX4OiqztDNzgERCHyfNOVz1Pw+OCexR+7O4VieRETgYaUHY8B9lHixVxo30fygM0JGUcMuP84dZSh5K8LGTnl6FBfyIr+4OThg3ZyTsF7NK8jciqzNe22IeT0Ju//i3e3/YGPt35Ln6z5PfYWnxA29s1jijC9xFFAF+39A/Y3pINS+mTvsGZ1w8fSd7e3ryAUHH8MLauW4Ul33yFr75ZivW78q2eEXevKKQkBVsG3bh+WmrzkXO8tY2Rm7s/UsbPxRmnz8ekkfE9Cz9280JMSqJq3KqvKEB21lGU1eqZw7xWkzF+bDx83BhenY+srDxUKNeyvt8zIBGpcTKRHErsL8/B2oIdiuhs66E3o6axDs/seAtXfn0bLv/yVjy36z3VO2sPem//b/lD+Mfav+Hr3R/h3xuex83L/6j+Hnv8aeO/sVe5j/Gc5O9WjWyKGHa2ce3w8W247/sH8eihV1HgX61t7QOaCpGdW2nxVCrPrMjkFAQaZsPu/olIifVW7xsWg53jkGcPH2948v5WVYAD29djxZJv8NVX32D5mp0o0m9Myn0hNjVJM3o34/ie7cjVY5aVfQmjRiHKi/eHVIxJ1+sj1OHwjt3QizP33nNfmZNEJiMuyB0tDZU4poj9/BJ6/bW9yv0xbcJYRPm5K2+pDEezsnC8vM4qxNX7Z1q8GL2FAYOIX6FH7Cg5iDcPfGP1OiUEdE38GtHzgzeEb8amEUdwNKiPCvs0FykPwgrrgzA8KQUh+lPELRApqdGWB1FLE44pN/1qBxOAloY8bF+3Bt9+9imW/rgVB7LzUVhcjIK8Q9i8YR/KtbKLbm4BCAluvfxq8nZi99EaywSYAjN1DNIj4zFmVKzFu9TSgGPKwzKvxvL/Wbxq4+Zs1Bjim9jGICRuBKbNXYzTT56OYZFmmUydo6WpCgfXfYuvvluBld9/gxXbFNFg+NjNDaXYveprfLVsFVYu/Rqr95RaQ57cPUMQpoW0DhV47j+86d+45Zvb8VdlknizMjGll8Ue9U0NeGXLK8r33XpQm5Rtb259TRt1j8LSI9jksQGbM46gxLdW29rLOPH6ARqRvXsdfljyOT7/bjV27M/CscJiFBfmY9+WjThcrM0C3dwQHKKJX4WuXj8sXrVv02ZVtFvfjfL/vINikTnlJJx+xiJMHhGF1trbXUT5rGXZG/DVF99i5arv8c3SbSg1NjNW3k/hgdX46sulWLVqGb5dvhtV1jmtJ8LCWz+bMLCgAeyjI8tVTyuFpyMamxtVD+tvv70TD694RI2E+u/+L7W95tyz7u/4bs8nKK/MR1V1Ib7Y9QH+oQhge7y891PkF+/XRhZYSf4DO+kVFMW7jq7XRq3kFu7BvnLzlKaeUlh1GDnDj2JLai4a3QzXSa/RguNZucrzk+tu8ApJRFK4Lt3cEKqI4TBPi8GuvjAbuRWO31NN3h6s+XEpPvv0W6zdtg85xwpRXFyI3INbsXlfkfZsVMRqYLBWQIu3gHxs35FrLRjoGZCCsSOjkDR6FCLUHOEW1Bbtxc6sVo977z73WfgvBz9+8wWWrFyFpV8vxZ5CY5/zFtQp873lX32J71etwpKvl+OQtc+bG7xDwhE4tB77wgBGxK/Qbd45tAR3L70P/1Mm8fQ63bzyEUT7WnJ4ekSLGwJKgxBbYV48x/k0qw9Cve+7Z1ACkiIsD0LPkBR1nY+r5sZCZOd0JMjrcfwIm8jrD4VWmqqrrJ4r5gh5tcZMKtTgwLY9KGvUHpOe4Rg3ZwYSAvg0YU7iYWzbZwwXbUHJwR+x7IedOF5l06if4clR6ZixYBGmpgap771rNKPkwDpsOFCqFcVqRnFOLiqsD9xmHNu5GluUY2HZ0oiC7DxtIqHg5gUfSzLlgIYFpRiS/Nq+L5BbVaBtNedDZSK59tBSbWSBXpZNRXu0UVtylN/X2NhenDYrk+Ge4tMcgsTsKITVdt/40TWcef0oV0JhFrKOm+SPtVShyipeld/tZQwR7+r1o1yPFYewcukP2JdX2caww4mcp38kMqbMx8KZafDrxqncWHEQa9bsR6V2G2goy2lT5KuhaDd+WJ8F/ePUFuXguP7Dyt/3ckpPc6Gn0Ki1+vh2VZDymu0ICs1bv7kdL214QfW0XvfNHQ6jQF5Tfi89rDqMhHpn63+xpXiftqUtx6qLlfN1kzZqZcnez+2GJe9URKsZR6uOaWttqWtmq6/2zy/i1o2nSWdwV55ZPseDkZEdA8+WvpmW1hdnI79Cu9+6ByI5JdIyIXYLwbCUCM1g14j8rBx0ZEZsqSvCkcPHWp+BVlpQWdlqAHHz9GrTcqns8HYcLNIEppsnojNPxJRhger7aGmuxL6te1HV5t7Ui8995e/tXrsGR/RWSM3lyM413DObi7H1hw3I16x0LQ3FyMnTjJ4K7l7esPjKBcH1EfErdAvmKr6xua3nKrtgpyIClqm5Jd0lLDgRU0smIKNAefj04Y20ocT4IPRHUmosPJR3EJ2qtzpoQe3xbOR1squ9V0Ak0kZNwIwTT8LCRadi8eLTsHjReIRpPUXNPlpD6T7sOKQ8TNQ/4QZvXx9LL7+WOhzZsQu606uVZpRmb8WSz77Ayo37lMmz8hA1vD03j0CkT5mGFGM8VydpqKtrIz6a6xug1edSaEFdba3hm1f2N9Sj0frHlSlS3311vcLXOWtxkzKJZUjyu9tex83f/E7dZo/vsn/Q1tqy1MSDQqL8QpTJlXNvv0EBMfi/6TfjIsxDdHVfGY4sOPv6YR5ZTGomJk2fhXnKZO7UxYtx2mmnIDPa6lLWXlvp+vVDkZqDDcs+x5ffb8DB/ArDOaygTCZDUyZh8vCue2FbmupRb1TULcrYUFCnub7WYAhTUCbZ9a0XmHL9DPALyEUpritXo5S2lxxUw3kdwTzZ3/34FP688s+qIL3pq9/gvUNLtL3tKVfE54fb32pzX6yuKcazyjZ7/Gjn/rAif7O21hYKUzMomgtrzUNzJ8eM19baMj7cvOBZqHcQkqPGaKNWwkOSMFx5PjsTd3dPnDj8FNwx8lcYnR8N36Y+DJxtLm2NWFHuVcEJKYhQlKl3RDISQjWDXUMBsnM6m+vsgaCoFIyeOA2z5y7AolMXY/Fpp2H++Bjr3ardVd1cht3bDlk9ue7evvC23LRQmbMT+46bVWfured+I+q0FlAWWtoWmlTuYbV6CLcK9xveH+sdaKuC4OqI+BW6BfOTzKzDW49tg79WwbEr8La5KPMcvLjgIUQ36YUf+hA+CHPKrA/CoPhkRPvFYFhykOUiUW78eVm5MJ96GPFEbOZsnH7GyZgxcTTSkhMQHRmOsLBQhIYEGgrkmNGI4znH2k6KFVqaKlBYaD98jiHKOXvW4zuGWq/fjzJrThAfplEYlhKijXqA8ek6QGlSztei2tIOJ70MSX5+4wvqhFKH689teN6ud8XX09xT5+luXsAqyCsA04fN10atnDbqPG2t8/j4BOPyidfg5UWP4pTEGeq11Oc47fpRjmVkBuaddgbmz5yEzPQUxMVEIjwsDKGhIfC32+eIdO/6Ub5dlOftxZqln+Ozb9fhSHFdq4Bx80ZcWoo26AkD//pxRXhNc+kM/zvwNa794ldqlNLdS+/FDcseQEl9uba3PfT2Gr2yNPT+d/PLdj25DHc2q1WRVWI/j9+eASzK17zKMdOKaOSyJSYsHamBcdqoLZenn4qIkLaV8ZOiRmFB/GRt1J4Hpv8fEpTrUCcoIBoPzLjFaUYZenpPSFuI5055Er8bfxXCvfrhma/crQqycqzpBh7+8UiO80PcsGStnVALao5lI7+242vXzSsC4+YsxmkLZ2HCqOFIio9BZHgYwkJDERzg4/COXFuYi0Jbl7FyTpcVFjq8X/bJc18QBimOZhLCEIQTiSMV+SioKdG2mBOuTLjNCPePQFgnKj4bCQ2Kxx/nP4CbRl8ELztiofdpQaHyIKzULbC+sRgxcQRi/S2epua6Y8g+2nEOpV/cBJwwIRH+tN4qIqu6OBu7t27C+rVrsXb9PpS1ja9si1sQRoxOaVdx1s0zApljOlFBubkOx/avw/J1h63Ff2hWCAzqj4mFa/F1zhpc+tlN+NnnN+HCj6/DX7f/z+6keV95jmlIclNTnTLBNZ/4Xp1xbjvRyQneqYknaKP23DHhalww7nJEhQ5Tl+un/gI3ZJ7f7vfYw1MR3BTLL5/6JC5JO7nDdiS9i3OuHzevWEyZOQExQfS8sCpzCQ7v2YZN65XrZ+16HC4ycd/q9PT6USbD1YUHsPr7dThqSFvw8A/U1gRX4g1FzF7y6S9w0UfX4Q9rn0VpfYW2pz0HynPx1pZX26QVHFdE6T93vquN2rMqt32kBw1n39mL5rAjWH297UdhnD/8NG2tFRqPT0+aqY3a4qHcU34/4+Y2BubY8OF4+IRb7QpTP+U+8cxJf8B5Yy9VBefVk6/Dk7N+5/B+wef7P066B0+e/Cjum3sPXl70FyQHxmp7uw/F/rRh8/EP5Z5118SfIsbfCWlSPaCxNAdHS7Vzws0HiekTMTwxwGqwO5p1FGa+17Z4InniCRidEKxGmrQ01yr3wr3Ysmm9cs9ai037CzWjoBluCE8fhXjtPmnFzRNxGaM7VzhSnvuC0GVE/ApWWLzqmm9+h199cxuu/+Jm3Pnj03YrQp4QPRaBNsWtOGm/WHmYR3Wy6BV/fsHIM/HigocxNixN29p/NJblIq9EK4CjPAgT9FYHyqOrMi8Lx236ALbHHTFJCdb2QA1le7H025XYtGM39h04gIOHWvv4mRGUPBYjoi1W4pbGMhQU6R4odwSnjMFwa0EOx9QUl6DG4Knt+/Y3rsWesiz8c92zqNcmx01N9Vi69zP8Z++n6tiWWL8w9TuwhWI2PThBG7VlXHg67ph9h9XDEuAfgVtm3ooMG4+LEU4ErxpxOv614CF1OTN5tjqBdfdw/D3z/81MPxkvKhPIX4y6AP6efZXb65ieXz+Ad1QiYgK09j/NZdj2/bdYvXE7du87gAMHDqHYkPNri7Oun5a6YpRWGv5Ox29bcAJbi/fj7zvfwQeHl3VY9ZjhxxSzDcrPMSpjW85q/HrFn+y2y1uWt8H0a9xTsFtba09zi7mhxdhT20iccs2nxUzQRq0sHrZQW2vPooRp+NmUn1vFLD2yf579ezUyxB6jQ1Px+uK/4i8L/4S/n/Iknp93P6KUe5YjAr38cY3yrKXgPD91Xrve+vbg/W5yRIYilG3EWRdhKtSU1JOU9/sE/jDpWvVYuQQtZcjJLVG+aw7c4B+XgmjNetZUk4esPMctoVTco5CUEKjclzloRuHuFfhu1Qbs3L1PuWcdQFaB/SrW7n5JGJcZY8kDVs63koIia3qRh38yxmYy/atzyHNfEDqPiF9BhVUnH1z9BMorLUUweNvcdXQd/rL1VXVsC63Jj5x4B0YnTFc9t6nR43DbibdjetToTvX6DQ6MxQPz7sUtYy/t9IO412kpR1ZOSfsI3+Za5GYd04o/OcIdPj56fdgWNFVXwFj3yic0xG4fUTfPKIwdm2QVC+VZ27Bq/R5U6NWhPUKRMS4NFpnjgxEzFmHu1AxEB9oeOy/EpKcgWBPg9D6XlTpu0zAQaVa+JPaG/jRrpRqp4IhvcteYhjqvyl6trbUlQpncLsw4Wxu1cuG4yx0KzZnRY/GSMiF94+wX8fqpf8W82Enanq7h7iD6YXTCDDy96DHcOeEahPu4WFhbj68fZcLn7WP10LY016DCWgRKuQa8QhCsN8e2oWvXjyKUU6bjlPnTMDw2qF17EL/INCSG6xcqi2WVautCV+A119kJ+Et7P1H7vn6z+yO1//vPv7sTWdqzyIxPDnylrbVSXJaNb3PXaaO2BHj6aWtt8VVEoT3ONfHK0qi1MH6qNmrPwzNuVr2rPj5B8FPuI5dMuAoXOxC/5JyUk1Qx++bZ/8bf59yNlKCOPaw0gI0MSUZSYLS2xTWhgXtC8ol4ZtFfcO/kn/eoG0Tv0ILi7BxDMUcdGuyyUWTIw7eHm4c3fPRbtnLOV1VoLZRUPBESYs+Q4YmE0WMQY4mxVuYL2di0ch0OlmiFrNw8EDlirLVnuTz3BcF5iPgVVFgApNakYMauY1u1tfYwDOqRGb/CK4sew9Oz78BsrbBGvL/9BzJvzSeNOA3/UkTChPARlo0uQwtKcrJR3tRWKDVW5yFbbTLfEc2ortbarSif1Cc6A5MyEhAZGYPUUdOxYO5oBOkPpza4I3LkeCQFWTxezQ2F2L0zFzXF+7ArS6966wb/2EyMYiN5Nx8EhoQifsRkLDjjXJx92smYO3sWZs6ag5NPPxNzRkVaCv0oNNfl41CW/XDAgQg7or5a9pXaG/rF9c/hlm9uw9Pb39T2tsdejq+3AyF785iL8etZv1VD9GalL8KD8+7DT4afqu11DCfaPcmN81AmU7YkRmbi4fkPKtfbzU4JP+wdenr98GertdYfnPtFYcyUDMRFRiI2OROzFsxFepiZ97aL14+y7hsYjLDY4Zg273Scd85pyrU5G7NmzsJJC07D6QvGIERtc6LQUo+cg1mWdaFTUPC+uPtDXPTJ9bjgo5/ht8p16qhSMlNsPt7+tjayUFVdhOcdtAqrazD3plU1mm+nwDSrRXFW2snaWnvOSp6N66b+AuHBiaqQzYyfhj/PvsuhAYz76F19+4x/4s3T/47L00/p1L2AYpYG5cECP/HYxJl4atGjeHDqL5V7Vvs8ZVehsTwXuSWN2nNbo7kGOUfyO2Wwa2mqRrWeF6wI1vjMyRgeH4WomCSMPWEBThwVbjrR9godgbFpwRaPcUsD8vbswvHaEuzZkdXas9w7BqPHaikbQ/y5LwjORMSvoGIv19bTZCLeEfasuyyace/ce/DbcT+BTzd+b1/QVMEHoaH3pzJ1Ls89AmVTJ2hG/uEsVOreJs9gDJ98EhYtWoCZE9MR4tWEmmpj3zwLHgEpGJ+hPbgUoVZ6cAeOqH0F63Fk597W/qDu/kgbPwrB7nXK5NDysHZz90RAaBTik1KQmpKIqBBfLfyKD+UK7N+4EbkOQkUHIofCS3G87pA2Uj6nsizZ+6lahM2M81MXwNNkwnqyMiF2BD23DNFjbm5fGmqMRbI48b79xNtVj5ArpAZ0RM+uH+WMLzyC3DLd8+GJ8NRJmLdoEeafOAnJ4d5oqKk2VB230OXrx6MFNZXVUC9TRXR4+YciJj4JKakpSIgJhXfrBYSSw5uw9XBnq70OXlgEju13dpUetmtM0nn/8FJ8uvNdNDbWqSHJ+/M34/blD9rtebur7Ijyfdt8qQq55TnaWnvGx7Uv1sRrfJZJ2DGhsHxy7n1qhBK9kfzZSydcpaYaOIIC+D8n/1kVso+ecIsLG55cA145jAZ7XDlmD0//PwwLirfscGVaKpGdXayc19pYobHyKLILHdQXMNJchMNZpZb7iXIEvENSMG3uyTh5wWyMGxYBD+W8rzEUo1Jx80f6+AzNyGZpxbbjQJl6FVTl7sJBa39dd4SkjLWkbLTUDunnviA4ExG/gsqo0BQEm1hnT0yapa11nkQbzy/vyfSevbjwETV/qF9paURtdS0alSddizIxq662yelpqcKR/TmoVibMLcokr7GmAAcO2RasUCbP1dWG39Ha9qehaCd+XHcQ5fVGAdCC5oYKHNqyAj/uKlD/X3NTHepUF5cbQhNTEO7tpv69+spsbN/dGiLaVH4AO/YVo0F5sjKC0DMwDknhTdi3bjk27z+G6sb208YW5TNWFhzEuqXfYuMRvRcvt9cp77VRecgrf1+ZmNbUtvYJbLevxqaHYDN/XtvfUIvaNi0RlP/fWIuauiZ1f1NDtbJu+66cR0WwuRhZaac9SGJAFP6gCEjm4/JcZKGoM0ZfgAtT21dbdgU8PLxUL9W1U27Avxf+CbOVCX1PPMlOpZevH/aS3Lx6PbJL6tpMRltaGlCSvRXLV+5EKa+t5iblHKQ3uTvXjycqj6zHivX7UMhembanqrKhoboQezctw5I1h6y9ePm+a5X33aS+70bUKe/b2P6r7b4aG5HejNqa1uNWU2OoKK1i2Wb5/ybHtR9ZW7ATV3/9W9y77AHcueQPuE5Z8quLtL3t+fLwMm2tleqaErshySF2CkJFOEif+eXoC9UKxzrMx//pxGsc5pJyHyOUmJbwvzP+icvST9H2CD3HDRnxU/CYcr9iNJizWyL1DEVc1lajrtFyT6pndEmbq68FZdkHkF/J/sZ8Ntcg/+AhlNoY7Bprqq33Nf6OOusNqhn523/E5kPKfca6TUH5XXXl2di4fCX2F/F3K/fD2jr1vuARlIjkKG/1Z5obqnDI2IqtpQJ7t+1DWb0idHlzcgtEYjLP6/puPfeb65TncaNyz1T+fkNdDep0Y6CC7b5awz7SWKts049bTQ1sNXwDtzXZO66C4Lq4KReXnK2DGFa0/S53PfaVZ2FEcAoWJkwBK0aawVYND6x9Rs2dIqPip+GP02/qcrEL3uQv+OinaFYmqAHKBObWKT9Xc4E7y/PPP4+8vDxtZCE+Ph5BA6h6obt3EKJjoxDs54WmugoU5OWj3EYwOgM3T39EREciNNAfnm58gFWhtKgQxRW2k2vXZpfbUez1PKI8PGsQ2BKKWY2jEAJLnl5ubi4qKyvVdbI1KQ9NYe0F8OJR5+GXoy7QRubUNdXDy91TDTN0VSgSToqd2O1c+HfffRfbt2/XRhYiIyMREeEiRWY6g5sXQqNjERniD4/mOpQV5uNYadve0s7BE4ERUYgMDYKvl5syEa1DZVkxCorK23mYByoFBQUoLi7WRhZCJyZg2KQMTIoY6dCbydZeP/3yN2iwafGVrpyfT866TRu15ZLP/g+1de1TaC4afwWuGL5YG7XCZ9Q139yJ8srWez69s/ecdDemRGZqW9rD4lbbSw7guCKsR4elqUYuoX8orClFpJ95IbDOsHfvXrzxxhvayIK3tzeGDRumjQYCbvANjkJMVCh8PZtRW16EvPwSaxqHMxksz3171NXV4fDhw9rIgqenJ/7whz9oI0HoGSJ+BzGc6P9qxZ+QX7xf2wI17OuJWb912OaguK5cEQgeDitOdsSVX/8Wo6PH4paxl3W5Gu1gEL9C59nqlo2d3m1zyz2bA3BWw4nwgVc78Xs8oBq56Ue1kQWGMf5z0V8Q3UHV06HAoBC/gtMwil/6i7Yl5qMp3CJm6TE9fdR5uD7zXHVsy7L8TXjqhye0USuMQ3jn3P+Ypsvct+E5bD6yUhtZoJj9y8JHMCLE3CN4rLoYz2z/H7JKDyMqMAZXZ57jgjUhhN5icIhfwVmI+BV6Gwl7HsS8f3hZG+FLDh/fhncOLdFG5rDHX0+EL3l41u1q4Q9XacMiuC4HPNsXFGp0r8Iet7YGEJ3oKn8sCD5Z7Y0b6B+lRig8Of+PInyFIUk9GrHX7RgOuRUqa46Tqw+HlluFL2luaVLzc7cVH9C2tMXbjpHUxzcUnm7m+24efSnCQ5K0EeChCOTLJl5jV/gS9ntljuhrp/xF9SiL8BUEQRB6CxG/g5j9ZUe0tbbsLj2orfUeUhhE6CzNdifs9vNcp/qNUHvjvr74Kfz5hFs61R5EEAYbJajGR14rsNF7PdZ4r8GHyjq32aPcTr48C1mZMTUi07QWxMK0hXbz0Bn++sL8B3H3nLvwy2k34blTn8Qlys8LgiAIgisg4ncQEx9g3l4gwc52QXAWzOF9z+t7vOX9FT72+hHHYb/tQmRz+1w9txY3pDZ33C9aEIYyK7y2osm9VewyYmKlZ9uQdyMeTeb1G0K9zVNKmHf+8KzfITlqjBq6TLk7M/1kXGvSB9sIw6GnK/9ncdIJEpEhCIIguBQifgcxF6ctVNsLGWEBqkvSFmmjgYOkpg8cdrjlYov3JjS4V6LFrRHV7kVY5r0alS212k+05cSmkQhoMghg5ase0TAGwW6WgldCz5HrZ2CQh1J85LUab3t/jfe8lmO7m/12Pwx3rnZrW8iKVLkXoskQTWH87pMKQ9Xry4i/Ik5nxYzVRu1hj9a/zbkL/z3rBbx85j9x54Rr7BZNFARnIfesoYt890JvI+J3EMO83WfnP4i5I05TLfdsN/TM3PsR4h2o/YRrwkIXtlRX2w/lE1ppbnZ+Remustuzff5gs1sDdnm0LVKl4wkPnNU4HXPqZ2FU/TjMaZiFyS0p6j5+HrPv3uwcESx4ebUvQiTXj+tD49By7zWocS9Wr5cG9wps996i5vKa4aE8vs0Cjy3+WcseTiKN331InQ/iDsXBxy0U7u6eSIjMwB9PvBOBXv7aT9gn0MvProdYEHqC2T2roUG5BpRFGHrIM1/obaTa8wCEX9mXOT9i9bHNqhF/ZswELE48waXbt3SFjz76CJs2bdJGrYSGhsLfv+NJ2lCC5wIrY2/ebOlxO2PGjH6v6vtF2Bo0e7TvU5pYkYYJdZ3v/9jU1ISSkhLU17Ofa1uuuuoqpKWlaSPByMqVK/Htt99qo1ZYLT0wMNB1ega7ELyOioqK1NeoKOe1zKl2q8c+7+Ooc29AdGMwUhrCNXHanp3eeTgUvE8btRJYG4W5laO0UVtWBuxFmV++NrIQWBup/Pxo1XBUXl5uOpE844wzMG3aNG0kCP1LWVkZnnrqKW3UCiv88nnm4SGRBkOFmpoa9blvS1JSEq699lptJAg9Q8TvAOSF3R/gs53vaSMLoxNm4JEZN2ujgc3Ro0fxwgsvaCPBFl6yOTk5qoFgz5496sPCx8cHI0aMwKJFi3qlJVQzFJEdVIlqn3p4NXoiviIQ3nbyB7fHH0NDpE2ObzOQsSsF/k3d611rhJOh//u//4O7uwSumFFVVYUnn3xSNR4I5vAaKi0tVdtpcKEBafr06ZgyZYrTjANl3nU4ODyXfbu0LYBXYRDGHjWvuXAgvATliUXaqBX3Un9MyIrXRm1pcG/Crvjj1r7X7mX+GJUTA+9m+2KBHpTf/OY38PWVSvyC6/C///1PfZ4NZthybOvWraoRPzY2Vl3Eo9k5zj//fIwfP14bCULPEPE7wKhsqMaVn/0Szc3tJ7Yvn/kPhHkHa6OBzb///W9kZ2drI6GxsRFr165VPbz0UNmGN8+bNw+zZs1S181CyHpCs1sztqYcRUtwa85uS70HRh5IQGBD+wd3o/Lz25Pz0BJSo45bGtwRnx2D2Mqetc/SEa9Vx3z44YfWaAChrdg9ePAgjhw5gooKi4EmJiYGGRkZqncpPT1d7SnuSADXezQpetYN7i2OjS9bk/KsotRI2u4khNT7aKNWynwUsTxSuefZ/OmQ7AiklTguGsVrrsWtBV4ORK/OCSecgMWLF2sjQXANeF2++uqr2mhwoves37Fjh9qLnfelsLAwVQTHxcVZXxmhI7RCg/4tt9yiRgIIgjMQ8TvA2FeWjdu+u0sbteXxhY9ghKG/4kCGYVB8EFLoDXUYtvj444+rD0p70PObnJyMMWPGIDU1FcHBwU7zYB0JKUNxSoE2asWzKBDjcu23GKrxaESjezMCGrzsZCd2HXrnOHEXr69j6urq8MYbb6gib6iTlZWFt956y27ec0hIiHpeTZ482aE3lEag7YnH0BSqCFrlUvQqDsKovCh42BHBm0ZkAX7tQ/ajD8cgodw8OkP1/sYr9zztV/IaG5Mb47TrZ+TIkbjoooucbiATBGfwww8/4Ouvv9ZGgw8arffu3Yt169apYt8eNMTNnj1bvTfxmg0IcI7heCDCz37llVeqhgFBcBYe9yto68IAgMWqPjjwjXITbVsIwtPTFz8dezE83QeHZYyTUAo5TlyZtzaU4UQ1MTFRDZeyB0NcGVK1e/du/Pjjj1ixYgW2bduGAwcOqCGdzKGpra1VBTGFcleEcX5IJRoD21dqbmnwQGyZ/UgDL0UU+DR72M1x7AqcDMyfPx8LFy4U4dsJaCHn9VNYWKguQxXmi//3v/9Vvbu8PsygoUD3CB8/fly9ThiKyHuQ8TrZFVeAhohKi2dWWZr961Hq1oQoOxENx4Oq0OLbvmBPTH44fJvM79PhNX6ILAyBb2kA4vIjkKBcX864fvg5GNJ93nnnifdEcFmY10mv56FDh9pFNw0G+JmYlsJILqYr2TPI8f5D8fv222+rBgEeD96neGyGUroC6y+wvocz6zAIAhHP7wDki+zVeGH9P9HcYnk4cGp07tjLcM3IM9TxYIKnJ3OAN27cqE5MzYofDRXWr1+Pl156SRt1H05+IyMj1QdKdHR0m1eGYNmKy8PeiqgO26WNWomojMe0qmHayPnwfdDqm5mZqQo5Pz9pfdQdKH55/TBPnBOoocRrr72G1atXq8Jvw4YN2tbOwYnmsGHD1EiKxLRkHJ5yHF4BbcP83Zo9sKhghqlnttijGmvDtygncuskPrA6CrMrRmqj3oWCl9fM8OHDMW7cODUaRBAGAjRAMSx4165dqkAcyEKY8xd+Di779+/v1Bxmzpw5uOSSS3D33XerUXBGaAifMGGCuiQkJHTJkD0QoPCnsZKfj591sH0+wTUQ8TtAyakqwPd5G9HU0oSTYichNShO2yMMZh544AH0ZrAGHzzMe+SEmQW0+JqWnobXy75BKfLg5mF5EPn7heNv8x5EpF+oOhYEV+Pdd99VQ3xJSkqKGj74zTffqGN7cKLl6JHomxSC8IxIRIyIQERGFIITQvDu+S/Dy908jDi/ugjvHl6CwppiTIochbOT58hkThAGMceOHVPvM1xYdZ/it6ssXbpUrePBwnS2VbBPPPFE1SjMhQLx8ssvV5/VgiB0HhG/gjCA4OV62WWXqTmMfY2HlyeC48MRmxyPORNnYkLmWKtAZr6xtKMQXAUWlmFlUGOo81//+lfceuut2siCe4AXEuamInfFETRXtHpkmBrAEEx6oOgxt4envzfmzTpJbTHGQlJ8lRA9QRg6MHx5+fLlVsHLdKPOTKuZzsTCjQxrNkKvJwUzI59Y5JL3FCMPPfSQ6hEWI5ogdB8Rvy7GymNb8b89H6O8tgwjIkfgl6MuQpSf40qfwtCCYWAnnXSSGtLIPGCGLDMs+OOPP27z0NXDmwsKCrrV9oYP386Gm/FBzr67uhjWX7nQ6ybCWOgLmAqSXXkMV599Gb5f9r221cITTzyBRx99VL1eimpKkXfAImq9ogMw/0+noHB3AXKWZqFgY3ab62jUqFGqt6XBpwWfr/pa+bk8tNQ2anvbw8gJCmF9oQiXdiaCMDjgvYGV9FmYi2KXfdXN0kn4/GRLI1Z3NsJq8j//+c9x9dVXq/cGveq8zi9/+Uv84x//UNf5t3g/Yc4vKx7rP3vbbbfhscceEwEsCN1ExK8LsaFwNx5a/jBaWEpUIzgwDs8teBABnpLvKLRCzxYLYtCb9cEHH+Diiy9Wc2OfeeYZtU2U7QOXlWyZP8O8o3379mlb2+Lm6Y6WRsdil8U2uPBhT4t3Z6AwZu6krTDmKz3GUoBHcAYfH1mB17a9jm1vr8We1zYhMCwYlSWtxfJOP/10dbLJNlA3vnk/7rzgRlQfsHiGPSP9MOfehUgbMxH3Dr8eL7/8sppfb6yWTQF71tlnYdb5JyMiLgI1+4qwYe0GNad4586ddr09vF6Yc6x7h7lILpsgDBwY/aGL3e+++041KJvB+gChoaFqbq/tM3ju3Llqf3oWnSNsTciqz4QpGfTmUhAvWbJELe6o8/vf/x5PP/00li1bpnY60KNZbrjhBjz77LNiWBaEbiDi14W4ZeWjOHx8mzZq5WdTfo5zUk7SRoJggSFRXE477TS1DQBzgAgLZPzrX/9ShTCrZRsZO3asWj3x/aPf4cCPO1G0LR/NVe0r0lKw0mtMjzELjTmCFml60+iJpijmxIA9VTuDLoxtRbHuMRZhLHSGLcX7cN+yB1ByqBg//GkZJt94AvI3H0XWp3vU6+KOO+7An//8Z3WyyUnotiO78X/f3IEl936G0q356u9gCPRtz96PR6/+vTpm1AMnujQm0cBkLFRDo81Pf/pTdeF5ymuOv5uV1vXFUZs2en+M3mGKY3qJBEHofyhcKTZ1wcsuCmaEh4djwYIF6vOXvXu///77NtFSLJrH5+2NN96oRmcRPlOZp8tKzoQRUwx93rRpE6655hpryLPOli1bVKHMKtEsArZo0SLk51vuWfw9NNTxOSoIQucR8etCXPHVb1BR1V5oXDDuclw14nRtJAitcMI9derUNl6kqsYaeLi5w7PFQ520s2AGvVNGUhaMwoQbJ6NFeVAXHyjCsS15cN/bhANb9piGSFMI8yHNXEiKYXqPHYVE0/pNEctJAT1fFA58YNMi3tnezRS+9oQxLewijAc/jc1Naiizt4fjyd3jW1/Dsh2fYcurGzH6wnHwDfPD8ge+U4Ut8+p4/jN0+eGHH1bDBT/77DPsKD+Ev274D9a/9y12vLQBLQ3Nqhfln//8J66//nrtN1vgOcuWSTQqcQKqw+vu5JNPxrXXXotzzz1XvT4IH6tsM2YUw5zEssWJGfy7LF5j9A7zXBfvsCD0PnzmsZsChS4FL6/XhgZzozCF6CmnnKLeV1hF/4UXXmjXs5epEvTyUvjSOKzDv8Nt7MFOaDjj3+Jz8ssvv1RTl/SQZx3eS/i3+P4In6Fs+acbts8++2y1BshQaoEkCD1FxK8LcdeaZ7Azd602ssCpz58XPIzM0BTLBkGww7HqYjyw/lnkFu5RJtPeWDjiNNw46kJ1As0HLEXwe++9ZxW34ZPjMWzhcETHJ+Pnc67CuVMWqR5bVprkBOCrr75Sc41s4e+bOHGi6kVmayT+H+ZA0fJtJpx12LCf4de0gLOoBz3FzGGiSOADnYK6K8KYAthWFPOVEwqxhA983jr4Ld7a9j80N9UjKmwYfjXhaowLT9f2tuWRzf/B0nWfwE8RvXC3CMbPrlPO9ZJa1TvLEOY9e/bgf//7n3respUIz0FS21SHTes34rxzzlMrtRLm1NFTbBtSyMclDU70BvN3GfP16AW64oorVCHM8GpbmKvPybIuhinIHVWC5e8ziuHp06erRiVBEHoOBasudhlqbC9aiUKWYpceV1ZgZooDw40pOFkQT4fPpHPOOUcVvcawZR0aixnWTCMa4bOK3mVGgRCKXxrPzP7v448/rt6TdLKzs1Wj2969e9UxxTDTOehpFgShY0T8uhAHynNx5/I/or7eMqFyU/6dP+4y8foKHULv2M+X3oeC0rZi9aLxV+CK4Yu1EdQcxr/97W948cUXUV7emg9JmE/E1gp8qOoeJwpTimB9gmBbnIMwrJQPbE4MKDzpGWYIF/uq0ktmZkHXoVV80qRJatgnhTEFLOHERBfEXLriMaZgsfUY6+sUzCKMXZ+vc9bi2bXPaCMLnp6+eGbhI0gIaF9N2VIv4Y/WagkNlXX44up31XUWuuJ5TTjZpOeGE12G6huhJ+XMM89Uq7USTmRff/11azqBLQxDfOedd1QhzKI3RhiNQRHMyuw0+tiDuYS6GOZC746jXsyciBsFMQ1JEgEhCB3Da57PMF3w2nprdVitnc9Ail2KXvbSpch98803Va+snqerQ68tI0WYg8ufNYPC92c/+xleeeUVdcznEe9Fxp+nAZn9uG0NboT3JqZaGKGh7tRTT1UjSsjMmTPx+eefi4FMEDqBiF8Xo6axDsvzN6O6sQYzo8ch1j9C2yMI9tlUtAf3f/+QNmrFzzcUb57+d23UCkXsf/7zH7Vglq13l56xX//612o+kTGUiiJ2zZo1VjHMSYDZ7YMCmJMGLizKxeJcFMJc6PlihWpHjf4pNuhZpiDWRTGLefE92wri7ghjCmCjMNZfKZhFGLsG9uofnD/uclxtxxj4efYPeG37m6iuKUbZvnJ8f+cn6naerzwXOwMNQpdeeim++OILdcxzj6GI9ia1OswJpHeZk1tjjjyjGy688EJVCLNCe0dhzLwueH0YBTENUPbgtcKQSF0MUxhzMi4IQx0+r3j96GKXhiWzyCR6W/mc0sUunz36dcpnI9MgeG3bPmMYPcJc3gsuuMDhc4PPSF7/fN4Spg8xN5hF73pKSUmJWsiPn5MwdYKf1dawJwhCW0T8CsIgwMxTRtzd3PHeuS+rr2ZwMsDJPUOiV6xYoW21wAcoH+5svWD2MGXVSRYE4sOWAoOhWLawcAfDNXUxzMk5reAMHTMKYlqvjSFktlBEcFJCMaIL4tGjR1snHZwE2ApiXSQbe706gsKYwt1WFOseY2lX0zM2F+3DG/s+VSNa5iZMx2mJM+2KwZtWPIzsgl3aqJWfTr4e56bO1UbmVDZU4+UX/oObb7pJHdP4oocWdgbm5dL48/e/W4xG/L+ffPKJes51BCfcn376qeoNpoA25sXzXKL3h6GPXXk/FNM0OulimEXubCvJGuE5rIthLoys0HORBWEwQyMUxS4XelbNIpUIPay62NXbBurwmmUIMkOb+Wq8hmlsYmoDn4tmqQ22cHrNtkasFUBoYOX7svXi9gTeCxilQq82ycjIUD8/+5QLgmCOiN9+oKmlCR5uUp5ecB45VQW4+evb0KycW0aGx07EE7Nac4UcQcs4RfDbb7/dpjAPJ85XXnklbr31VmvFSlt4G2FOJYUwF+YNM8fRluDgYLU6JsO1OPGgFZxQNLANE4WwLogZBmb2O3T4vmjp1gUxF74/W5FK8UsxbBTE+npnhTFFvD1hzAmNCGPHrC3YgUdWPtbm/Jw+bD7unnStNmrL/w58jTe3vKqNLHi4e+G5U59EdCf6njPvjiGKzJvtbFSALUwP4DnPyS8rMbNIDSeZnYWiW2+ZZAyxpJGFFdrpDTrjjDO6HG1AgxWNR7oY5sKxPXhuUgAbBTHP5Y680ILg6hQWFuLbb7+1Cl4zAyxhNATFLheGNMfFxWl7WuGzgNcqPb22IdEUlBS8NFw5SmMwwmciDcfPP/+8OuY1R48vX50NDcdsd0gjHeHf4HHhM0oQhPaI+O1Dvsldh5e3v4EqRahEhKbgN5Ouw5iwYdpeQegZ3+dvwt/XP4f6+ip1HBU6DH+ZfTvCvIPVcWdhHiK9XqxiSY+qEYpW5k9yEuFo8sy8RbZv0MUwxawZbOCve4UpiimOdTjJpyVfF8RcmEvMXEt7cKJPq75REHNsz/OlC2OjIO6uMLYVxXyluBdhDNy4/CG1EJst9570B0yJzNRGrTCH/dEtr2DNwe/UPF5PTx9cP+l6LE46wfIDHcB2RsuXL1dDE/naXVgVmmHQ9K7wfP/LX/6inv9dEY4Uz/T20BvMgnPGnF4W3WL1VwphTrC7C/MZbVstOTp/GclhFMPMUTZWpRUEV4TXDvPrdbHL54HZFJaeXHp0de8unwH2oNGXXl7m9Bqjj2ikOuuss1RDGgtKddVYpBvgCD29vAfQUNpb0IBMcc5CfISCn8eIaUyCILRFxG8fsav0MO5aeq9yo24NoWEBlxdPfRLhPl0TJ8LQoa6pHv/Z+wm2FuyEv5c/zk07GbNjJmh729PQ3IAdJYfg5e6FUaEpdsOdOwNFJnMYmRdMMWiEHlaGhv7kJz/pVIsFhm4yRFrPF87Ly9P2tMLJBot26GKYE3JuM0JBzPeie4f1V3vhbYQFgTgB0MOl+cqQNWOomxlmwlhf74ow5sTHnsd4qISjXvHVb1FRZamkbKSjHubFdWUoq69CUkAMPN07Hy3D1lz0+NLzYts6pKswJJ+FsGgUIixuw8lyd/LDed7Qg8wwSL1QjQ5bMVEEX3TRRT2u2srHOs9Toxjm3zPLeSQ8T3mNGAUxxTi3C0J/wgJ0fGZQyDE1xywaiMKUaTG62GUOr6N7K0UuqzXzOrYtYEXD0HXXXacWsOpuePLNN99sTZtgbi89vnqUU2/C65v3PBa0JIx8Yeg26wIIgtCKiN8+4o+b/oV1h5Zpo1YcFXARhjb0fv32hydw8FjbSfLVk6/D+anztFHvQ88VPWAMiWY4sxFWxqSF215esBm85bAtEic0FMP0zJnl+7KNEkPUdDFsbyLC98eiQLaC2F7rCkJRzZxhoyBmCLW9yr62GIWxURx3RRhzwuZIGLty30aem6/v/wpLjnyPqrpypIQPx6/GXYGkQPNz4O61z2J7Ttte0+SJk/+M4cE9L/xihIYVPaeWk1uGK/YU/k56gXhuEXqCWOmZ52h34DXAc5TeYFaUNlZep/Clt5lCmDnyXfU42YOige9fF8NstWRmhNJheCfz9XUxzPcSESEFGIXeheckQ3b5fOAr+8ObwSJ0utjlc4LPoo44fPiwGtbM6842HYJV4PksY4G6nkTrMFXi6aefVtf5Hunx5X29r+C95fbbb1er3BNGdLAOAT3hgiBYEPHbR9y2+gnsy9ukjVpZPOo8/HLUBdpIEFpZX7gLDy1/WBu1EqaIhZcV0dAfMA+XIpihVQyz0qGVnYVA6A22lxdsj5qaGjWUjZMdLqx2awYrPutCmGGtjrxjvK2xUqdREHNxJEzp5eLfMApiehO6Gg7Kv2EriHWRbBtGbg9dGNuKYr7Sg9Dfwvi5Xe/hi10faCML/n5heF45L4O92hsQDlUcxW1L70FjY2vI74nDT8Hvxl+ljZwHPUQ8Rwg9Ls6a9DESgrnvH3xg+dw8VzipZOh+T6AoZTg0J+R8v0ZooKEI5t/tzOS+K/AasW21xGvEUaslnoNGMcwICqmQLvQEnv80gOreXbbHM4OGSd73eW1T9PLa6Aw8z/UCVrZF6JjLz64GFL281/eU3/72t3jyySfVdRrgKHx5zfQ1/Mx//OMfce+996pjPi/ef/99tdaAIAgifvuMdw4twX83vaSNWnlkwR8xOjRVGwlCKx8e/h7/2WgJXzLi5eWHd89qv70voXWe4aS0otta0DubF2wP/m5OgnQxXFBQoO1phRNuholyIsS/x4lLRyGavNWxX6IuhHVRbPb7dfj+R44cqQphXRSzeFBni57YYiuMjetdEcas5KmLYaMwphDrC2F82Re/UlsK2XLzjFtwcoJ5iN3xmhJ8mr0S1Y21mBSRgVnR45zm1TRC44ze15fHu7veWTM4cb7rrrvw2GOPqWN6Qj/88EM1zNIZ8Dxg0R0WyjJ6vHi+n3322aoQ5jlvmw7gLCh8GR5tFMS2rdCM8FxjeoIuiLl01BZKGNrwPsx7r36PZ20IM4ML7+e83+pil57Zrnhkee3zWnruuefatQvj/ZLRSj/96U+d1hf3d7/7nVoTgDDflsK3J3n8zoApSzRIE95DGGXCtApBGOqI+O0jGpub8PCmf2HjEUs7GeZinjf2UlwlIc+CHfaX5+C2b+9UC/4YiY8YiX/OtVh0+xta7f/73/+qD1lWazbS1bxgMyg26AnWc4XpITbrEcwcTz0Ejq+dnYDz9mfbh5iv9kLtdDh50r3DfOXSU5GlC2OjIO6OMGaOmS6Gja/0GHeU56w/DjoSpRd/9ktlwto+z/q+ufdgsiJs+xMKRE566Xnhd9sbMGeXk2dWReeEnF5bRj44C/7ezz//XP29TDkw5ury+73mmmvUtkm9WUBH59ixY+1aLTkqOsf3ZxTDvDY6Ou+EwQ2NjhS7XFj7gVWazWDhQN6/uTCUmTmrXYX3b72AFaOKdCimmbtPLy9/vzMNbzSI/fnPlmgsFrGj8GVkiCvAewjrFPDezmPAexdFvyAMZUT89jEUNFmVxzAqNBVx/pI/JTjmlX2f44Nt/1MEsOUy9fDwwn1zfo8J4X0fSuUIilSKU4Z8cYJjhOGazLvk0tm8YHtw0q2HyFEQ2wpuHRbvoRDmwrDXrk6+jx49ahXC+mtHQoriUhfEuih2Vo4kveu2glhfHOU220KPsVEUG4Xxe7nf49N9n6K+rhKJkZm4beJPkRIUq/3Ptjy08UWsP9w2RNfXNxSvnfoUvJVztD9hOC4FGr97niO9BSfxF1xwAcrKytTxPffcgwceeMDp3mxGQrDwHCex/O6NLFiwQBX7559/fp94/AmFOHP2jd5he9chYcE55tMbBTEjFHrD6y+4BixAyPoQund379692p62MKVk/vz5VsMlo2y6Az3HegErXvtGaBhlAatf/OIXvdJm6A9/+AMeftiSnsTnGz93Z0Oy+woeGxrn9BaGzzzzjFqUSxCGKiJ+BcHFOVCeixX5m+Hl7ol5cZOREODc3D9nw+qc9AQzxMoYztaTvGB7sK+jPsHiK72ntvDvUgDrYphtL7oz8aYHTBfCuiimR8MRnGzZCuKeGgBsMQpjW3HcFWHsGe4H/7ggBCpLUGwQIlLj8dT592Nsxhg1N84IQ5fv/PGvOHLckp/nrpybv535G8yOGa+O+ws+ztgui62JGPqsF33pLdiKi7169b6gl1xyCf7zn//0iqeTn42GH4pgFtsyFolj6CYjLCiEGZbf1/A8o+gwCmJH0Qo0ChnFMKvRdjeVQOh/aBDh9897MBd+/8Ze8ToM1+d3zfswBS+/expHuotewIqRHrbeZBrB6OVl/9veqqp/33334cEHH1TXaeRdsmSJy7YWYgQJjXX6M5mCnR5rMUIJQxERv4LQx/CSe3nfZ1hy+HvU1lciOTwd14++CJmhzrdK9ydsb8SJCXODuW6Ekx+KE7466+HLCRgFKYUwF+aSmU3AmI+lC2GG1jFMrbswX5i9Jo2C2FGOJGFYqC6E9de4uDhtr/PgeWabY9xdYcwwcttQai6NkV4oaC7H6NBhdis99yWcDOuhwJwQ90V4Hyfd5557LlatWqWOOaFnHnBPzquO4HfHonMUwjzvjFD8UgSzkI8z8527As89nmNGMcz0BWP4thHeA0aNGtVGENN71lu5zULP4b1EF7v0dtq7nzCqRBe7jFToaY4tzy0WsOJzhakBxgJWNDqxUjpFL++tvQmjPO6//351ncYcCl8WgHNl+D2xdgCNg4R5ygzXFgEsDDVE/DoZ5vYW1pYiyi8UHm7y4Bba833+Jjz5Q1uPlIeHD1489QlE+Dqn+IYrQQ8Ve5uyEJFtJU9OcOkJpkfY2WGbeuidLoY5GTeDxbI4OWPhLBbR6qmXgIKTItjoJbYtuGILxa9REHNhzmpvTUqMwpjLg58+jvKjZajMq0BtfgWaq1oreXcE36etMOYrQ1s72zrKWbD6MlsSEXqi+qq/Jc9xCk6e54Qef76XvvACsQI7RTBz740ChNcTw6H5vubNm9dhQbjehikL69evt4phtlpiNIU9WM3dttWSs6MmhM5DTz5D/XXBa8/IR3FLkauHMlP8OgP+fRq0aFC1vZ/yXsOwZubBdydPuKuwkjLTHAj/HoUvQ/sHAszfZ9VnPTKDx43h4v19fxCEvkTEr5PgYfzPvk/x6a4P0dRUB09PX1w67nJcNGyB9hOCYOHOH5/GrqNtG+uTX067CYuTTtBGgw9eI5w8MS+YLSeM6HnBLCLUWx4zTtZ0Icz3oedqGqHngEJB9wzTG+UMAUpRQg+xURDby4PT4URfF8K6KGbObmffz7biA3h1z0eoqK9ASkgyrhl5tt06A3et+Rt25q6xDJTvqb6iDlXHqnFJ5Fk4npWvCmTda9wVjzGFsa0o5iuX3hDG9GLooXz0btiGa/cmPL8ZAql7g5jP+Pbbb2Px4sXquLdhcR+2YaIQ5mTcCAUIhQELZblKNWYeL6YNGL3DvD7MCtrp0Ktv9A7TcNWTnqyCfdjKjgYK3i8pdmm4MHpZdRi2zO9CF7s0ODnTY897pb0CVhRx9PLyGustQ6EtjzzyCH7/+9+r64ys4LOkP1INegKjMPhd6cYnGp+ZrtGTEHRBGEiI+HUSX+esxbNrn9FGrbhC9VPBtbhpxZ+QXbBTG7VyzeTrcF7qPG00uGGBnKefflot5GPMXaTXlbmL9Ab3pteM4dDr1q2zimFOvM0mdgxR1oUwQ6SdVcCKlJeXq147Tu50UcwcUke3ZBZvMYZL8zU1NbXdxG9vWRbuXHY/mppahYSfbyj+Ou9BxPq394xUNFThrh+ftp6X/G0/mfSzdsY7vjdHxbfMDAr2oLfbKIaN6456ODuCkzjmmlPsdeRt7y349yk0KeI4Qf/b3/6mGnb6En52Tma5sHibDt8PhQK9wax862rCkfmIvCaMgpih7Pbg/YLXge4Z5iv7Y/eVEBps8L6si132nNbDY21hYSpd7NJYyDx7Z6IXsGJoMz2VRuhp5flLj6WzvMqdhS3O7rjjDnWdHu5vv/1WvQcPRGh85TONdTMIUzdoYOit/GhBcCVE/DqJO5SJ424Tb96Jw0/B78ZfpY0EAXhmx1v4bs8n2siCm/LvqUWPYlhQvLZlaMB8yeeffx5///vf27UX4sSKIpjhyL09maU3k94yTvxYIdhsws33wIkO3w/fGyfazhYPnGyyz6pREO/cudNUmOvQ+2AriF8t/QZbsiw5qEYWZpyNX425WBu150hFPo7WFCLBPwrJgV3zwNsKY1tx3BVhzLxsW28xXxneSI+qPegJ5PFjXttHH32kbe17mP/LyaRehOdXv/qVGvHQ1zmsNPLwfKY3+JNPPmmTA89oi6uuukoVEoxwcFV4X7BttcQWa/bgucNrU1/Yh7ivw+8HCqxZQAHH+x5fc3JytD1todFv4cKFVsFLA0NvwPsu+/LyfLUtYMXvkV5e5vT2VWVzIyyed9ttt6nrLM5GA0FfpVX0Foy8oADm/Znw+2X0iFwvwmBHxK+TuH31k9ibt1EbtTIjbQF+P/Fn2kgQgPKGKtz94zPIKtihjil8Txt1Hm4Ydb46Horoln7mBdPzY0TPC6ZHuC/6hfKWSNGme4Upis08IPROsk2HLoYp0HpDpHOizzA1oyBmqxmzYl46ngE+8E8NQVh6OMLSIpTXMATFBmN6+gLcPela7af6Dl0YGwVxT4SxrSjmK0NiuY/nEsMS9fYj/QW9r/Su0ptPTj/9dNWz4ki89yYMcXz11VdVYbFnzx5tq4WZM2eqIpiVcfvr/XUWnve2rZb0Y2wGDQ6s8E4hrHuH6bkcijmOjLJhr3Tdu0tDkdkUkEa9WbNmWcUujWq9dbz492mgYWizbQEreiFZQZ2il/nf/QW7F/AZROjl5vHjuTQY4H2B3zO7NBB+76wM3dPCZILgyoj4dRKfZ/+A59f9Qxu1cuP0m3Fq4uC4SQrOJaeqAEV1pUgLikeQl1haCW9HDLejl4wFg4y3J3qqmBPMENLerKRrizH3jQtz38xumww/5kSRC70kvTF54N8tqa9AQ109svYcUoWwLoo5eeF7tYebrwcyxo7G4tkLrV7ijIyMPvdG2sLPZCuMjetdEcY6emsrXRhzcXZoZmdgUZkLL7zQmoNLEcbzurc8Z52Bx5ueaYpg5iQbvaj0+FBsUAhTEA+U8GEeZ3qEeZ1SDNNT7Cg3ndemLoS5UFj1RaGkvobfNQ1nFLq8d1H4GvNmjdDIqIvduXPn9rr3j98Zw/JZwIrXuhHeS3mvZ/oAUz36E/bEveWWW9R1GoYo1HltDCZY/JDGOT3EnBE0PF/4zBWEwYiIXyfBw/ja/i/w+b7PUVNbCn+/cJybcQ4uHrZgwEwghJ7D82BveTZyFWE7OjQVsXYKDAkdQ+HDvGBOkIwTdHol9H7B/dFTkUKNRU44CeIEwSxUkF4STq51MczJdU+LiewoOYQnNv4LRWVH1GiBsYkn4N4pP4e3h5e6nx5PesQohpf/uBKfrPgS5YcK0dJoP2SaE1xOdPRwaS6ZmZkuU/iE1xPDH229xd0RxiwgZust1l97UxjTIEGDzb/+9S91TMPNxx9/3K+eLB3mndMbTSFM8WiE5wFFMEOjB1qVZXoPmdNo9A7TOOQofYCGIKN3mIaKgVgAiDneFLtcGMpsr6I2hQ1DXnl/oujtq0JoNNTRy8tWXUYhznkSo2jo5aUQcwXPPN/nTTfdpK4z0octltgRYDDC7gjnnHOO2iGB8PrnOcS6F4Iw2BDx2wvUNzVYJ6TC0KGmsQ4PrH/OWsnZ3c0Dl4y/ApemL1LHQvegVfrFF19UCwfl5uZqWy1w0sZ+wX2RF2wGb58MudS9wsuWLTPNR2SOGL3BuhjWe9F2lrL6Slz71a8VIdXWazNn+Km4bfyV2qgtpfUVeGffd9i8dRNqDpXCM6sWWzdvUUMdjUXGbGFoOdt2GAUxvUJeXq51T7MVxhSXK1asUM8DTlQ5messFHdmopgLv7uewvf6+OOPq8VyuM6cxddee031CrsKFIcUwXxfvOZ0KADZPopCmNfZQK0Iy9QF21ZLtv3HjbBSOPNMde8wl97ox91T2EKK0TK6d5c1AsxgCPHs2bOtYpdGr766Z9IwxygDFrDisTfCmgXsx01PL683V4G5xzRa8XqlkZAdCubMmaPtHZzQGHHRRRepYc+EHngaUFhrQRAGEyJ+BcFJPLvzHXy9u22RHTc3dzx36l9NK+wKXYMetHfffVcNieYk1gjF2a233qp6hPsiL9genOQxpFQXw2xvZAYneZyEUkx0plrqR0eW46UNL2ijVoIDY/HaKY9ro87BnElWddXzh7kwz9pRESFOnMePH28Nl+Yrve6uVC2YQvK9997DmDFjVCFHYWzmLeZCj2dnoYfMKIiNr10Vxiwmw9x13eP1pz/9CXfeeWe/GG7swXP4ww8/VIUwBZURtq5iuySGow70CTGnPkeOHLGKYS68JhylDjBc3egd5rXQ18WX6L3mNat7d3/44Qe77aHovdbFLlMB+vreyOOrF7BicS0jPHb08l522WX9es82g8bWG264QT1HaARhLjJDwYcCPP+vvPJKtQYHocGH5xnvq4IwWBDxKwhO4oZl9yO/uG3uErl2yg04O2VwW4z7Et6yKDBZHItiwngLY34YrfV9nRdsD3qWdI8MF9uK1oSeNOaQ6WKYk0LbPNzvctfjmTV/1UatBAfGKOL3CW3UfZqamtQiSHr+MF8p3O21OiH0BHNybRTEHPdHJVbCMD1+BuasMpTXHjxfnCWMeb6ZiWK+2sv5puGG1ajz8vLU8dVXX40XXnjB5doOEVbf1Vsm6S1RdGi0oTf4ggsucDnx0l0YEWHbaokCzh68BuhBNXqHGdXhbGMG3wPvH7yXMOXC6Jk3woJvFLr6wnFfw+uL75Uhw/Qg2hawomeRopfHyhWhUL/++uvVz8Hzmjn6Cxa0bfk22OHzgOKfx4Kw2jfTfHiPF4TBgIhfQXASv/3hcezPb1upmNw68zeYHzdZGwnO5ODBg2pBEj6kjUKNQkLvF0xB5grwVrt9+3ZrrvDy5ctVL5stLLyj5+JxSUpKQmNzI6748la1noCRk0acht+O+4k2ci6ctFIMGgUxXx2JQwp5egiMgpgh1L0tjngcGZrISdtDDz2EP/zhD9qersHvyFYYG9e7Iow5YbQnjHmushI0ixEReuXef/99p/aRdiY8rhRevM7YQsroHaX3+/LLL1eFML9zV/JiOwMaKYytltgf3FGUBCMFKOx07zDb4XQ1p5znGYuk8Zhz4blnBq8rnju6d7c/73V6ASt6em3fLz3m7Mt73XXXuXQRpZdfflmNatCFL9uDMV1lKMJjwJQiVromLPZFY8ZgD/0WhgYifrsIc+/+s/dT7C3ehxCfUFymTD7Hh7tOnorQfyxXhO8TigA2EuAfgVdOeRxe7pID3puw8BFzPimE2bvQCCeFer9gV2pvwtDXP7/7LP734RvIXncQtdnmxZvYg5WT24yZ47HEex3qWyrUglfjkmbiD5Ovg49H33kMKYhpcKAQNopiR5V16cXmZ6AQ1kUxvWXOrCZLb92kSZPUdUYDsMeus+GjkqGbtt7i7gpjeggprPQ8dhaWoQB29d6hPAbMC6YQts0vpaGDIpiGp8FYPZkwbYBh9UbvMItr2YPGABqEdM8wF14PxnsRfycLjuneXa6btTLj7+K1o4td5vDSm9qfMEJEL2BlNArwvdKIRy8vDT39XVW+I1599VU195j3OEavsCgdj/FQhve8Bx54QF0IDQK8Ry1evFgdC8JARcRvFyiuK8P/LbkH1TWtIUfu7h54YsEjSAuO17YIQxmGp7684y1UVhcgIWIkfj3haqQH900VTcEyiaT4YV4wJ6VGOOGkCO7vvGCd9w8vwysbLRWASW1JNQq3lSAtPwrfL1nWLkeOMMxy6szpWHTKIpx7+tmq2OhvQc9HCMNjbQUxq2Lbg++ZYcq6d5ivFK/d7TH7+uuvq98roRCld7UvsRXGRlHMpSvFt3gMmMPOz2DrNXYlQcnPzGuMIphh5iy8pENBdt5556lCeMGCBS5ldOoNeK5TsOpimJ5iR5XI6QmmIOYrDUes0m4vxYBGEYowLhSTruA5ZaTFO++8o4pe2/ssw/0Zys/UE/ZTHgjw/sGq5hS+PHcZ3UBjqWDhiSeewG233aau8xlEQwfTHQRhoCLitwv8bcfb+HbPx9qolZnpJ+POCddoI0GwTAwHW/jfQIOTMuYFswgSwzZ1mKep9wvuj5w4nZ9993sUlbX1UpOfTr4eZyfPUb2Z9ARxYX9Os0I8nAhzUsyJGl9dpRotz3/miNoKYkfVdXm9cLKsC2IuFMSdKSp111134c9//rNanIZC05XEFo8FhbFREHdXGLMyrr1Q6v4MmeZnYDVfCmFWUTbCirH0qHFhCP9QgCKK+ee6GOZCb3FnpltM2aD3n8YDtvyh0c5VYFQNw5oZZWNrnKMhjl5eev15HQ4UKORY4InPCB57Gk953IW2sC4BQ9d5DvP++tJLL6lGDkEYiIj47QJ3r30W23PaPthJRvwUPHbCr7WRIAiuBIvFsE0SK3gaQ1P7Oy/4Z9/drfbsteWaydfhvNR52sgCvUJsZ6KLYbZXMoOfQ88VZm6WK3i4dfioYYivLoR1UawXfrIHhZ2tILb1gLIVDwvTcL9tJXBXhsdEF8YMJ/z73/9urdzL89NeFV8zKIzNRLEujPvKGMdQaIpghpEyf1qHf5/nJb3BLPjV3+G6vQ2/O1ZiZhgzr1me712ZbjH0lue9MVyaXuC+NqryPfMz6AWsjIZEegFZZZ2idyD2v6XBhvnquvCloZQh2oI5NBTQQ66H5PO5qvdBFoSBhIjfLvDWwW/xxuaXtVErp486HzcoizB44WXyVc4aLM1dwxHmxE/FGUkn9vlEROg+9E7RWv3000/j0KFD2lYLDCfU+wX3ldfw1X2f471tb2gjCx4eXvjX4qcR7uO4QA49MJyQsngW+zCy2IwtnDzrxXC4sDWRK56vFL9G7zBfc3JytL3mMF+WQlcXxSykQ08zPREsWjNQoXeQk289b50eKJ6X/Gy2XuOueIwZimomjPnaW8KY4o95kxTCPE+NUw1GXzBMnUKY5+VggeHLvC650FhlDAU3kpKSot5zaMih6GIhPHqHmT/rqNUSW00ZxTDP/d7ysjIcmwWs/vnPf6rnmxGKcFYDZlVkV6iq3x3YNo9tlijkKOI5plFGcAyLgLFit16ske3aGHkjCAMJEb9doLG5Sa3oe/j4Nm0LCxpF4h8LHkKod/dy1YSBwT92vouvdn+ojSzMHXEaftNLlXaF3oNWfk7KGRK9YsUKbasFZ+QF7ynLwsbC3eo9YW7cJPh7mrf+YQXnO9c8jX15ll7AnsrP/XrGzZgdM0EddxZ+HopG3SvMsFOzYjkMidaFMCfe0dHR2h7X49ixY6oINnqJbQuZmUEhxVZHFAVcXPkz2oPtsDgJZ1Vhws/B85XCR4ePbYaQ2wri7ghjhpWbiWK+UqQ6Qxjzu6NRgsYn29ZB06dPV0XwpZde2uWqyP0Nz1Man3TBe/ToUW1PW5jHPX/+fPXaY3qCvVxYFsGjADaGS9u2mDLCIlIMN9YrS3Phd9eT74zpFvTyvvHGG+2qWjN/m17ec845x+ULWDmCURa8T/A+yQr19AAzzFzoHKxEznuUbty544478Mgjj4gzQBgwiPjtIk0tTfg6Zy22Fu9FpG8YLk5biCAv51UtFVyPqsYaXPnZjYrIaGuRd3fzwH/O+LsYPgYwDJGlCObkxygYu5sXvOToBjzz41/Rovwj/n5huH/W7cgISVbHZuwsPYziunKMC0tDiHegtrX7MLR76dKlVjFMQWQGvU70dHNCPmvWLJcPQ2UIra0gtvXg25KQkKCKR2PYtKvkRTuCooNebHqjCD1tDOum0OkIW2FsFMVcHPVutoXC2EwUc2G+eVcnu8yFZZ9aeoOZW2kM66YHkx4lCmFWMXbFiTT7ALNFmS522arKbApFYci8XV3sUpRSZHUHpgoYWy3xnkWRbA+mBBjFMI0L9npO6/B70AtY2eZs0yChF7BikbqBzocffoiLL75Y9bDzO2GxNine1HV4Lp522mnWSv98XjJtY7AXtxMGByJ+BaED8quLccOXv9JGbfnroscwLEgqfQ90GGbLBzeLehhDiBmSyJwweoPHjx+vbTWHt9JLv7hZmSC3bfsTHBiHVxY9Cne3/pkUsDWRLoQpPMxa8lB4zJs3T52sUxBnZGQMCCs+v6uHH35YrUZKWFyJlacdQWOGLoR1UUyR7Gqfl0Lx7rvvVgt5EbaGYs4d85u7iy6MjYK4u8KYoshMGPO1M8KYFZL/+9//qsWTGPZrhJ5R9lul6OrPonQ8XvSE6mKXhecogM1IT09XhS6vIXp5OxKc3YWizbbVEr87R1C06mKYCytNU/jpBaxojLAtRscoCnp5GQUTGNhzo5wrwJBdCl0eQxoo6N2mEBa6x5YtW9TzXT93WDiM0R3dNfQIQl8h4lcQOoCXyFXf/A7llW0L8/j7heO/i5+Ch9vADf8S2sIwrldeeUVt7G87oewoL5je259+dqM2astzi59GnH//VePVoXebLVmYg0kxzHWKLFtYlZeTGi4LFy7s10rCHUHDBL8vFnwqLi5WW8wwdJSeYd1LzD6sjh51DI/WhbD+mpyc7BKCmHmXP//5z9Xvju+HbbxuueUWp783Hh9bYWxc744wNhPHPNbG986/yxBvCjCKe2PINgUKc6DpDaaXqS8m1fS08tqg2KWxyFYU6lDcMgyY1whFb1pamran72FUhG2rJUd9p1kPgMYUXi/G64K5rwz/pehlvYDBBIt1nX/++aqXm+cVDS8MtRd6Bqua89mo12ng+cPreLAXtBMGNiJ+BaETbC85iAd/eBx1isAhLEx094l3YErkwA8DE9pDQcjJEkOiGUJshF4UCi5auY15wbyVXvL5jco50jbf0k3598qZ/3RKSLOzoeeU+Vuc7FMQ2+ZjEgoVPYSTCz1HnCS7ChQezLtkqKxtDrcOBRU9eEZBzIrZZsJfh4LfGC7NdRba6g9BzHOQE3c9xJAtR5555pk++x54buvC2CiIuyOMmf9qTxjTw8hQbwphelmNMFydnmB6hPnzzsJYSZ2Cd9euXdqetlB489zXxS6vCVfNe+V5zfPb6B2mt9gRDHGfO3eu6rXm52RaxGARMF988YUqylikiYZLViJnpX/BOfC5QQHM+wHh9cG0BhpYBMEVEfErCJ2ktqkO3+dtVnOA58VN7rAirzA4oGiiCKY121iJleKIeU70kuihme8dWoJXN72krutMGzYff5h0rTZyXfgooJChCOBCUWxWrVYv3qPnCzPcsz8EoQ5FEYtEURCyMm1n4Wdj2B6FsC6K2abH2MrFFnr7bAUxP39f5LnRw3LGGWfgwIED6pgTTOaq91Z4bWfhecPCT7aCWF/vijCm+NXFMD35DMulcNNFvw69kvQGs81OV6sdUxgyb1YXu8xxtVdhmeHXutjlOc9zf6DBc5y5vPR0OsoVtoUpHxTAeqg0F1ap7s9rvTvwe2ZxJl34svAaDZeCc+E9mNeJnsLA1lesU9Df9ydBMEPErwNyqwqwtmAHPN09MTNqLCL95CIWhKFKdm4Onn3hn/jXs8+r+Yo6tnnBLHr1VdYK1DbWYVTEcFybcTa83F3HU9pZGB5IYaCLYQpEs8cFvaEUCBTDvZnraAa/BxYnI8zZpiGiJ7DQFIsY6d5hvnIyZ1Y9W4chvhTBuijmK0VTbwhihrfSA6x7uFmdnBEK/A5cEVthbBTHXRXG9LLaGiYofHk8br75ZtUTa0+YsTAaha5u1DFrDUZo0GKYPyfxPKcZ+j4Q4bVLDzpFL3sNG6GAp/ij4Y6RK0bvMA19js51hqwbxfDUqVNd2iDAiBDmyDNPm9cjIwquueYaba/gbBhGv3jxYmulehpPGFHEGgCC4EqI+LXDO4eW4PVNL2k1W/ng9ca9s+/ExAjzFgWCIAxOyhuq8Oim/2Bn7jplMt+MlKixGLY7AM8/+awaWmiEE2fmBXMC0BfewL6Ewos5kHq+MHMjbaFAYaVZCgcuFCS9mafJcFUW6iLLli1TwzadDSfODBnVBTEXju15Cwk9mJz4Gb3ELCLmjDBZerDY15iePMKJJSvYsmL3QEIXxraCWBfJ9nrk2oN5rDQ60ABDbzxzv5nrvWrVKrXomxk0XPG46d5dfl8D+bplWyQWsGIRMdtc5dGjR6sVm6+66iq7gpWeYZ7nRkHsqOc2jxULYxkFMc9zVziGNHIwX5yfiUYRHhOGzAu9C3PNaXBgVXTCNCEaIVhUUBBcBRG/JjCs9YpPf4nm5rYW0Njw4Xh+3v3aSBhs5FcXYWPRHgR5B2BaZCZ8PaRggwDcteYZRfiu1UYWhsWMx5Mzb1OFIEOi6VUywgmgnhfc1bDMgQAfG8yNpAjmMaAINQuppBeYBgFdDLMaszOhZ+umm25S1ynO+6owFz1r9AgbBTE9xhSm9uB5MHHiRKt3mK/03HbHOMDj/8c//hH33nuvOmZuJgtjXXbZZep4oGMmjI3rXRXGRhgmz5BMTtDpNR7olYx5rCgu/vGPf6jVjI3ecZ5b7MnLiAgaBboDxa9tqyV7Fa8Jc4fZXkkXwzSG9XXBPBrCmCLASA4K3+effx7XX3+9tlfobXjcmZLAXGvCyBSeo/1ZFE4QjIj4NWFfWTZu++4ubdQKixy9f85/tJEwmHj/8DK8tvk/aG62TBx8fULw2En3ICWo/9psCP1PQ3MDLv7oOjS3tM8DNVZwpieQFYdff/31NgLILC94MMLJMD1seog0wyfNYC6nnitMj21PQybpyWKeL49tXl7baux9DT3BzBnWw6X5ynxLR3mW9Fayd69RELMNTWcLWbFHKcM49XPu/vvvVwXxQMvL7Aq6MGYUwueff64KMra3clS8zB40SNBLbFt4i68Uya7sBaZnm/mrPP+ZD26E1wMrhHNxtseN5zkNPboY5kKjhCN4PI1imOkhvVWsjR7H008/XTWQ8DqgUYD1AIS+hQZCtsli/2jC64kCmBEIgtDfiPg14Vh1MX5u0tfV1zcUb53+d20kDBYOV+Th1m9+hxZrkLuFMQkz8KcZN2sjYSjS3NKMCz++Hk1N7T16Ty/6C1KD4rSRBYYacjJKj2RBQYG21RJeSa8cvcEUO4MdFj/hREcXwxQrttArxZBTXQx3J+SUhY+Y/8pKo7bed1eA+ZMMjTcKYrZhomfEHjxXKA6MgpihpfYq7zIvm949/Xxj/jlzGymsBxPM7+Y5xe+ZC4thmaGfQ7ZimNu7IpCZD0shbCuK+RofH99vwlgvYMUetbYe8Dlz5qiGNnq0+7IiO889o3eYbZeMLats4bnJfGFdEHNxhkhnhXC2xNJzyXmcaCAT+gdGIdDjzqgUQmMwI4V4TxOE/kTErx1uX/0k9uZt1EYWTht1Hn4x6gJtJAwW3jjwNd7a8qo2aiXAPwJvLH5aGwlDlfs3PI9NR9q20EmMzMTf59xt18NGTygnpwyJ1qtf6jAMmCKYkzRX9iw5Cz5i6BnXc4UpVs3CgzkxoojVQ6QTExO1Pfbh/2GRlVtvvVU91gMBTgiZi2oriB2JBQoZCmBOGnVRTIGsC1wWdGKYp96mh0YF5gEP5EIz9BxRzOhil8fInnjlsdCLVFEA8px77733VCMAQ/KNMNqAYbmsXMz8RD2cuiuh1BTG9BibCWOKOGdf1zwW/DwUc4ywMMJ2MvSwUeTxOLgCPMd5Lhq9w4yKcDTd5PVuFMM8x42t5DqChb1Ya0G/jtgKjIXQhP6F1yyfd/w+CAsEsgo0r1NB6C9E/NqhprEOL+75CHuK9sLT3QtzE2fgvJS5gzqcbKjyefYPeH7dP7RRK/ERI/HPuZacOmHoUtlQjT9t/Dd2HV2nXP8eGBU/FbdPvAqh3h2H7PL2yvDMJ5980pr/pDPY84LtQa8nBTCFMAXxjh07tD1tYXicLoTp4bXtGXn06FGrt4jFbNj6ZqDCCSIFGIWwLoq5MLTVHiyexRBpXRBTfD366KNqoR/CPDtOMgdSmCGNJLrYZfiqPQ85Qyh1QwlfHaUUUNy+9NJLaogwIxKM0PvI8+bSSy9Vw9ONecXG164IYxok7IVSd1UYs4AV81V5fttGT/D+QcHL3sfMs3V1eC6zCrBREBur5tvCyBBGyRgFMY+r2RyMXmeeCzRmEBrCaBATXAM+B++77z489NBD6phGDfYBZtSPIPQHIn6FIU99UwN+9u0dqKhqWx3zphm3YFHCNG0kDFaqG2vh6+ENdzfHk1Lm//JnPBQB3B3oCXn66afxyiuvtCkYQ+8lc9IYrshJ/VCDVaMpdiiG+crCVbYwFJieAl0M08PFEFh98sSJNHMJBxMUxKxSrHuH9Vd7bXoIhQGLjOk/Q6MK+1Ozz6krQjGqi11+n/bytjlZpgGE3z09vOPGjdP2dB6GoDNHmN5gtocyFobi72eBHgph/h2jwOIUie/TKIj19e4KYzOPMT2fujDmsWCu6scff9zmfdLgwe+SopcRJAPZGM/jyp7VRjHMWgHGz2sL75VGMcxq8oyi4DmhG4qeeOIJteK+4Hr85S9/we9+9zt1ndEsrFnAEH1B6GtE/AqCQnFdOV7a8xF2Fe6Gn1cAzks7BQsTpmp7hcEIc70f3fgi8or2wt3DB4szzsR1Ged0KIJ7CsUdvTnsS2v0RHEyoPcLHgp5wWZQ8DG8Vc8VZoinWUsh9hulWKAgJAx1HOhVezsDH9cs7qQLYX1x5EEj9IxSLOleYladZvhhX0PvKj26uqGDnl4zKOrYKkoPZWZ1Zns5z92BIptGKAphClgjFKJsiUOPKnN7HWEUxkZxrL86yu22hQaesLAwNV/VVlAzfJ3Fq2644QYkJSVpWwcfPF48t3UxzHx2Rng4ggYDPRye904KLGe0FBN6Bz77WASS1w6/O+YDs/2WIPQlIn4FQRhyNDY34ppvftfO23/BuMtx1YjTtVHvwrzXt956Sw3Rs62OvGDBAtV7MVTygu1BIcC2JboYtq1qq0NPMEUSPcGzZ88edMWeHMFHOMNjbQWxbZ9XW9gTV88f5ivFJr3GzoTvjcYM3bNPY4a9dlA0Zuhil0K9L/KV+f4oximCWZXWGJFBAcXrj95g5lN3tYAUfzdFtq0g1te7KozthVLzuA1mscdWS7oQ5ivPbXvnEKERTG+1xGgQvtJYJrgOrIdBwat7+WkIZuSTIPQVIn4FQRhyrC/chYeWP6yNWumPXt68BbMoD/OCmaNpvCUzr4+5a5woDKW8YHscOXLEKoSZM2YWIknhO3fuXFVEcWFe7EAOD+0OPIfoMXv77bfV1kd69duOoMAyCmK+hoeHa3s7B4W4LnaZ724Wxk4oUvTviaKXPY/7k9LSUjVEnEKYAstITEyMeg1SCPOa7CksYMU83ueee86u97uz6MLYKIr1dXqJB5sw5rHjeU0veGcNCMx/N4ZLM/KBx03oPz766CNcfPHF6vdJ/vSnP+Guu9q3GBWE3kDEryAIQ47v8zfhyR+e0EatRIQk46WFf9JGfQ+9QswLZiiYcWJHAaL3Cx6KecG28LFF8cRjxFxghj3SK2Qmhhm6qgthFkcayBWQuwM9Z2eddZY1uoBCgHl29D5S5HG/I1JTU9sIYi6RkZHaXkvIOb3zuuC1551nBAP/ry52WZG6L9vxdAUeK4rg//73v6ooNsIQbIpgTtxti7B1BI81wz5ffPHFdgWsKFb1AlaOim911WOclpbWzlvM1+Tk5AEpjNljmJExeqj/Aw88oNZMsG215MjgwxB6ns9G7zCPx1AzkvU3zG1nmzb9nL7zzjtVESzfg9DbiPjVYNGbDw5/j6zKo0gLTsLixBMQ4j34c8gEYShSWl+Ba7+8FY2NbcPnFmWeg5tGX6SN+g+27+EE+W9/+5taEEqHYkHvF0zvxVCFhaDo7SKvv/66mivNgjdLly5VBRirSPNnzOCkV+8tTAE2FDxAFAI8Rp988ok6pgGF6xSjDI9myLQxbJoedkcwjJQGGYo0Cjp7RYoonCl0uTCUuate5P6Gn48RBhTCehVtHRpfWCWaQpgCytGEnR5wtimyLWBFg8CZZ56pGrV4jDqa9HO6xlBqoyDW17sqjHkvoTC2FcVc2AbKFYUxveQUvno0AaMaKH5t4TFmayVdDHPh2BHMizd6h1kJvKvGDaHrsEXV6aefbi1YRgMQn3tDOd1H6H1E/CpwInzL9w+htKK1sIK/Xxiemns/Yv0jtC3CQKeyoQZPbfsvtudvgZ93IE5PW4SLhi0QK+MQZenRDXh2w/NoaLBMGMcmnoB7plwPXw/nFdbpKSz2xFxE5gWvX79e22qBk0CKYE4chtpEgSKCHgOyZcsW0/6mrCSrh0hTfJj10eXkdt68eaoQpiBmHuxgvR9QENx2223461//qo5Z4ZieTbNqq/Sq6WJYL0DEcOaOYHsaGiXmz5+Pn/zkJ2r+9WCB5xMjMrjYFmFiaD2LZLFtmR5ZwLY7LKrFqs27d+9Wt+nQc37dddepHksKTWdgFMZGcdxdYcwIAVthzFd6SPk99zVsicbzqqCgQB3ffffd+OMf/6iudwZ68G1bLdHIaA/eU3lfMXqHeX8QUeZ8WBeA92DdqMEUAxqc+uM8E4YGIn4V/rbjbXy752Nt1Mqs9EW4Y8LV2kgYyDS3NOMXyx7AsZID2hYLl0y4Cpenn6KNhKFGVWONWvU5zj8C4T6u2yuTt2kWC6IIpifKeNvmhIwieCjlBTM0jpNfTo5YGbcj7y2NCAyFpEeYYpiTYL1CrBFO7DkJ4zIQPZWd4Z///Cduvvlmqwfyz3/+s9p+xCj6KRRoMGAoMxd7XvSOoDfNGC7NdRZoGsgGBrZM4nnEyTm95xzrUDQyj5mvzOO3FZwUUfTyMmTamdWrO4L3Cwp2oyA2imR6uDuLLoxtRbHuMe4NwcI2cTRS6UXcGB77yCOPqOvdhceEn50iWC+mxZBqe1EMhAXhdCHMhYW1BuM9oj+ggYhpKXqkE41yLIzVl9eJMHQQ8atw15pnsDN3rTZqZXjsRDwx6zZtJAxkthTvw72K+LUlNCgeryx6zDIQhAEAhcgzzzyjTr6NeW2chOn9gjtq0TLQYQgvixOxSFJH4Yxm0OPDMFaKGC5mXk16eNhHVBfDnPRy4j8Y4Ge+6KKLrN7wa665BldccYU1d5dRBvZEAD27PB4M06WgPXTokDVcml5i5vw6mlbQM2oriCmaBqIgZt7uq6++qhavYr9ZMzh5pxec1yU/q6thK4yN4rirwpjC154wZgh8d4QxzycKX70t3O23347HHuudZzYNaTyPdc8wRbGxHZ0ZLIBmFMTsQS0ey+7BNm40OurGNkbjvP/++1LsUXA6In4V/r7zHXyz+yNt1MrCjLPxqzEXayNhIPNVzhr8Y+3ftFErAf6ReGOxJQxQGDzUNNbh3UNLsLfsMBIDYnB+6nxE+YVpewcHzJHipJtCOCsrS9s6NPKC2QeZXhoKOFZ+7Ql8BFK46CHSzBu27bNK2BeXoea6GNZzjgcqDB2n6C0pKdG2mMPes/zcFLv83BQ3jqCgZii6URDTc2fmadeJiIhQhaEuivnKfFRXF8T0UrGA1QsvvNCugJURTuiZG3zeeecNqDZc/M5sc4x7IowpgG1FMV9p/DAzLPG6pPDleyBs//bEE+0LFfYWvDfQMKaLYS48p/UKxWZQqDFfWBfDXKRIYeehIYb3Gt2oydQJdkEICXHdyCxh4CHiV6G4rgz/t+QeVNe05n9Ehqbg6Tl3I9BLLE6DgdyqAvzfV79Bi/LPyKSUObh/yg3aSBgMlNSXqzn8ZRWWCRPx9Q3Bcyc/gjDvYG3L4IFhlwyFZqskTs6MMEeOE8bBlBfMz8tiQ+z1yWI3LHrjTPh76fHRxTAnu2ZQnOmFs3icXX1yxnw6VlflZ6J3116VZ4qUmTNnWsUuJ/I9LX5EYwIFsbGoFie3HYWYGgUxFxocXOE8ZtSAXsDKGPbM98bQTXoDeS0yvN4IDQn0AlMID3TDlJkw1te7Kox5ftl6jCkimdqghzqz5RvTPvob3h94LhsFMaMfHMF0Copg3UPMc3oo9SLvKrxXLV682Hrv5fFitIqxyrwg9AQRvxqFNaV4ad/HKKstx7iIDJyfOg/eHoMjxE2wQE/gG1tfUyZcDeo4ODAGj8++GzH+krMzmLAXyXHBuMtx1YjTtdHghBMxThDfe++9NsKCecGcPLKNykAPIaMXcfTo0eo6P6dZwSZnwgI7umjkYlvsiHDyzkktxSIFsTMEY0/hJH3lypVWscv2PfYe90FBQdYQaAq0Dz/8ECeddJI67i0ojui9Nwri7du3txGTttD7PmnSpDaCmGKpL461XsCKOdM8B43Qc82CV2xHZvSMszox0xNee+21dsWV+BkoghnCT6E/mDAKY6M47o4wJvzeaZCx9RrzWLtCKgK9/ratlsyiR3T4nmn80D3DXPhZBmuxve7A642V0FesWKGOec/nfWywp/QIfYOIX2FIUVZfiW1a0atpkaPg4yGN7gcbN694BFkFO7RRK3OGL8Zt46/QRoMbtqphuwi2S+IkQmcw5AWz+jULBhGGRXIi3FfwcUmPJQUlPREsalRbW6vtbYVihh5AimEuzqro2xEUk5wg8v1x0mhPZFCsMRSX740eXhahogf94YcfVvdzcs5zh8aSvoSCnYKRQlgXxRw7CjNlxW4KYj1cmq/0vDor75KCnF5eVsa27R3LnHBeS5dccolDTx4/Fw0KFML8fozw/11wwQWqEGaxrMFeTZjC2FHxLbPryR40evDashXFfGWIdX+1MaMBh/cJCmG9mJZtxW9bmAtvzB3muUXRP5RhwTheG19++aU6ZrQNDZEdpV4IQkeI+BUEYVBxz/p/YmvWKm3UyvVTf4EzkwdP65XOQG/eSy+9hKeffrpNaB7FDXuUMi+YwmEgcd999+HBBx9UW/VQjPSnWOBEXfeuUgxTfJpBMaYLYeYwMmzbGdC7potdTgrt5Z1SBJx44omq0OVCkWh23OjZvP7669Xq2OT3v/89HnrooX49xhS+bHNjFMQMO6WgtAfPDXrWjIKYnqPOCmJ+fhbaoejVPU86FKsUuxS9FChdhUV99JZJtoXWOLmnB5m52AkJCdrWoQPvUXPmzLFW/GVuP4WO7jHuijDmOUsBbBTF+jp/Z18LY+bW0yOse4fpKXaUb08vMFtoGb3DLPA32I0jtvD6Z3QEo3wIjba81/FYCEJ3EfErCMKgYmvxftz3/YNqeyud+IiReHr2XUM2lYEh0MxPZEi07WSe+aoUwWecccaAmFjRE0BhQlFDIeRKUIwaQ6T1fEUjNDzMmjXLmi9M40Nnjzs9IfQ264KXotAenDjrebsMYaaHtDPw97Mwkz4xv/DCC1VR7Erh8hSnDD02CmKGdTsKp6VoZd9WCmFdFPMYGUUQRReLV9HrrRdZ0qGQYlgzPbT0nPcUXpP8HukN/uijj6wGB8LzgTmP/FsM/ewvD2ZfwqJ99HzTOEBohGExMT0UWPcY24ZRd8djzONLj7Gtt5ivNED0xfHm5+F718UwFxrPuN0e9ATT4KKLYXqK9b7Sgxl60nk+vPzyy+qYub80NvIaFoTuIOJXEIRBR3blcXyWvQL1zY1IDYzHaUknwMtdcvgJ29hQBLNKsjG/Us8LZr/gzgql/oBeVIY7831SlLkqnMRyMqsLYRodzMJ3OZFjiDTFMMWq0ePH30FxR5HEhb2e7YUAR0dHW0Ot+Xt6EtbO40vRxck54YSbxhP27XVVeC6zLQ6FsC6KN23a5DD3kiKHrWlYjZfCl9+XMVeewosilF7e0047rdeMQ8wrZ14whbBt6y6KG57rFMKD1dtFDzgjIvQWN/R+s5J9Z3NgzYSxvt4dYcwCVbaiWPcY92bfWUay8NzVxTBDph1VEScsAmf0DtPAMxiNJfyO+XxiOg+hIeDzzz9XI1oEoauI+BUEQRiCsNrv3//+d9W7Ulpaqm21FDxiXvBNN93kcnnBnMQyZJgChb0+2fNzoECv7fLly1WPBcWwrcjR4SSbXimG9dKza1soSYeeTLYB0cUuQ0SdWTCnqKhILSbG90woCD755BN1cj1Q4HlCIa97h/nKRS/uZQ/mklJospUWjRL8zAyl7m04HaPooQh+88032wl3Fn2iCGbYtbNC5/sbGh3o8T1wwFKLgyHf/PzOMjRQNPFvGL3E3RXGvL4cCWNHed/dgecDPeK6GObC89dRDjzfAz2iRkHMnH5n3hv6Cx6Pe+65x1qbgNEozKXn/U8QusKQF7+s8ry2cCd83L1xUtwE8Q4NIhj2erDiKLzcPJEcGDMobv6C4Gw4waYH9a9//as6KdRxxbxgevL0UDda/emNG6jQ+EBvLntYUgzbFlMyg15K3UPM3MjeFmQU4DfccIPVw07B9dZbb6mtswYqLKD1yCOPqKHzjvKGjVAMM0Sa554eNk1jQ2+GglOgMzqDQpAeQCOMzKAAphCmIB6ozzZ6a+nx1e879HAzF7q3POy22BPGXCjGuyOMbUUxXxlK7SxhzHOWIf66GOa5wQKHjqAR0yiGef4O5Kr/jz76KO688051nV5uGoqYqiEInWVIi9+Vx7bgqTXPoLHR8gAMC07AUyfdPSh7gQ41jlYV4u4fn0BxmaWgSEhQPO6adiNGhaaqY0EQ2sKJ4GeffaaGRC9dulTbaoETVPYL7u+8YIaGcoJM6BFJSkpS1wcS9Eay2I0eysx1R+19jMTExKieXt3by3FvwykCxSJ7rhJ+/zSU3Hzzzep4IMB8WvbCZgEr3ZOtwzBW5jWfe+656mc1hk3b87oTHgd6h42CmEW2esMjyygBiuBXX31V7YFqhO+BYcK8Lhj6PlDIz89X7ysMVSfsf8zP15/3FyO2wtgojrsjjHmv0sWwURgzbLmnwpj56cZWS+wvzUgTe9CYQ+ONsbo0389AMqL84x//UNMRCD8P84GvuGJodHMQes6QFb91TfW46qtfKzewMm2LhWnD5uEPk67TRsJAhKf0dUvvQWHp/7N3F3BSlH8YwJ/t6244miOObhCQlk5BQAQVFAVFRAVsDEDwr2IQgtJhICHdKd3dHQfXHVv/+c3O3u1ew3G3e8fv62dl3rndvbmd2Zl55o0xDZxh5uYSgPntp0Ahs+39N9mT8SApClvuHUKKPhUNfaujtlfR3fLG3lHfORpE53HRSR8NfEQBgE4Czah/Kg2eRH1AC7PvW06o2S0FczpZnDRpkjTX/lGfTjrJpya4uTW1pNp2OhmmmiL6fM2vo3+zQzU61AeaHtTskl5fWKi2acmSJel9YqmvHQVGOvG0V7GxsWLNGD0yN3Wm5v1Ua0on/tkFVjqO0KBf1B+VaunNj9z6EBMKoNTM1PLxpGr96CIJNYWnoJP51jkUGql2mgINbQ/2vF5oXdCFCPOAcNSyhMKvvQTfvNA+kbYtuhBBD/p+mv+l7gL5vZhlRrdGo30rPaiPt/lfujXd4/Tfpe8oXVygGmEaQIz+zWkfYkY1wVRzTV0uaHA3mi6Kpv4FQeNXLFu2TPyuEhoMkfsAl2zUEu1JeGrD74nIS+KIsJm5uQRiUYdvpRIrjsKTozFsQ/a1Er92/BEBTgUfqZPZ1pnoa5iwdwq02owT0aH1h6N72RZS6elGJ8ZPYjAo8wAs1NzYMrDRybz5VjKurq7S3MJHzUAp2NOgUC+99JI01/7QZ0UnnXTrFvqXTpRzQrW3FFzphJOCUna346E+2Zbvl11zXXod1S7Re1F4phGJn3RNDl0UoVuOmGuV6HdRALbFhZDc0Mk+Xbihiw2ZT3Hoc6btli4yPGrYovei4EbBwvKRWy0boaBNg4XRuqZ/6VHQQEzbFDXhpkG6LO/lTSjMUxN56qtMv9ue0MWDpUuXiiGRVK1aFd27dy82wTcv5m2EWg3Q95b+pYso5of54lF+0f6V1iEFYQrJltOPcrGLRkKnGmL6DlNzc3rk1eyffg/ta+kiGz0okNvbeqKLg3Sh13yRlloT0AUtVjJRK6Qn4akNvzfjwzBqy/tSKYOXezDmtX0yHy6zDZ1Bh77/DhV2hlkPMvO6zICXhpu1F2e0yxq6/WNExt6S5pgolQ74s+ssKOX5u5dnSWYZfilQFbQpJp0kUe0ZDdZkeQsYOhGimibqh0qhorC999574kkzneDQwDj2gmp6qEaXauXOnDkjBtScDq10Qkk1dObHo148oJNnCsH0e+hBTTCz+110clyjRg3x8Ti/JydUg0RN4+nkmdBJMV2Nt/UtV+jknkbD3r59e/qymVGtFg0O1qZNm0IZsZpCDa1zc00bPSwHkcsOfV70naGHubbtcb6ndNJPzaKpOTddqMocrihcUmuNBg0a2HwUYArp1F+TAhihZaLbR9lzLfWTROuKthUawTnzg2rBH7XGmIIwXVChB7U4oG2b/qVHXhekaFnowg3tP8wPatmQWySg7YcurNGFI3MLFdrP2BrtB+le9ubbhdFI9VQLXFz7wrOsaNuki/EcfguI/uwx+/6Haw9OSnNMetcciCGVi+9gHsxk8ol5OHBtm1QyKedXEz82HyeVWHEVp03ES2uGSyVrv3T4HsEuxaffW2GxDL80Yu2T6odIJ0x0yx7qX7Vv3z5prkmjRo3EQEr3DS6M2gE68FGNHfnkk09sXvNLYZfC1t69e8U+djndY5aCF3021ByPHnTS+CRRoKBmsLQc9KCThOxQCKbfTyGQau0LEoSoZuudd94R/35CgX7mzJni+xY16oNJNYlU+5O5STI1/6V+gN26dSvyJpx0kYBCKZ2Ym/+lsJEbupBAFypoXVWvXl38lz7b/KJgRbek+vvvv8XPxRLtA6iGlfo30+8oalQDSvsHcx9fui0XBZbsWjo8jcxhlC6gmC+i0LgG5n8t7wOdHxSAzRdWLB+5NWem7w9tp9TF4eTJk2KLn9z6vRPaZul7T32I6V/abm1xkYWaQL/++uvp+wBqRk/HiZLSouBpR8c1GiODw+8TEC+cRH93ajFO3TkIjdoFL1Trgx5lW/LVohKA+nR/eng6Lt47CoVCg5qlG+Ldmi/CQ110TTRZ4aA+vgPXvAG9wfpkgGp+/+g6k0dsFxRW+LVEJ7H0O+hk2/LEjE6whgwZIo6++SRHFKUTMhrhltDvLeqmbVTjTIGfAh89zP0VM6PjR+agWZh9cS3R4ZxOlCkE0zLS4DfZ9VGl9UI19rR8tJx0kvyoxz2qpfrqq6/EkVYJ/Y1Uq0eDohU2+t10IkR9kOnCgyVaDhoQjE5+zRdL7AUFCWodYPkw14LmhGrzzK0EzI+8atlpO6Am0RSCaRC7zNsA1QZTCKaLAkVRc0ehnPYJ5uDbtm1bMfgW1feiuDMH48yBuCDBOHMopgcFY8t9Nm1HtH2agzDtg8+fP59rDTWtUxqEjfZ75lBMTaeL4ryavk80Ajptb4S6ZNBtkfgCS/HH4ZexR5CsS4WDQs0XNEqYaWf+wI5La6WSsCMT/hvaYDi6lWkuzXm6FUX4NaNQSDVvFETMJx3Ezc1NvFUS1bw9iVGJqb8v3eORUBPsR6kRexzU1JtqE8xhlz7TnNDJXbNmzcQwSaHcHpoCEjopphNXc60wBaLsUO0NhWC6fRItv7u7u/ST3NHpA21nlicko0aNwogRIwpln0vNQ2k7oEfmiw8UEml7o+2dBgwqLug7Q4GCatzMgZgG2coNhRdzzbA5ENO87D5z6o+8ceNGLF++XGwWbYmCCo0aTp8ZrffCqCWjvskUfOlvJNRl4eeff7Z5E+ySIrtgbK49ftxgTCGYLoiZ/7UMxrRfpJYM5tph+teyK0x2aF9tGYZpuy2sYxI136YWBub9A10I++6773h7K+Y4/DLGnnp6ox4LLq/H6fALcHNwRa9ybVHHm0d7NivK8GtGJ0U0GjM1ibZsckn9+ag2kE5I6CT9cdEVfLoVCg3klLnJ9ZNAh0L63Mxhl4JvWlqa9FNrdJ9VCgsUGM01p8UBBS26cEB/HzVfpzCZGQUoGijJXCtMJ6t51Zxs27ZN7I9tbvpNzWtpfT2pE05q1k0XWOjkJ3OfVhqxmWp5qT9vSek7Sk3ZKWBQEDY3m6ZQkxv6XpiDsPkRGBhoFYgpGNCAZXTbp8zNWekCTu/evcW+kvS6J4H+Dgq+tPyE+h7TKM8cRIoGfVfoO24ZiAsSjKnFQebaYtr3Uf9i6gZCQZgedJEtt8G0aJsMCQlJbypN/1L/4Sd18YUuHtHxxtwFhPZlv/zyi92PXs1yxuGXMcZYrmwRfs3okEIBa968eVnuqUq3SHrllVceq18wnczQ+1LYoYD9JNCJoTnsUqDOqX8bLSudoFEYpBre/ARCe0friUbOpr+daoUpYGZ3CyYK+vSZ0wkkPXK6tzIFnOHDh6fXuFCTYzrhfNwaeurjTf14KfTSibUlWiZqVj9w4MAn3ofaXtHnYQ7E5getv9zQgEgUgi1riSnkUrPVnTt3is2i6Tua+TSQWgBQs2i6oPC4QZX6hdN3lsI7ofeke7Ny8LUPFIwt+xgXNBhTawtzIKZ9BLUqoG2AQgttq3ldvKFjFF10M9cQF3Skctq30/Zn/o7Q/ujXX38t0rsTsCeHwy9jjLFc2TL8WqKaJgqqq1atsqpFpSZ0VCNENU357RdMoZOaWA8ePBgff/yxNPfRUBPQQ4cOpQdeWr6c0DKaa3aplreknzTR+qHbA5nDsLm2LjM6saUgY/5cLLctOuGkAGxu4kojjc+ePfuRAioFXWpCn90AVlRbRLW8VLP8JPuTF1f0+dBnTevK3GyatuncTuuoSTuFYXPtMDUXp77hVCNsrikzo/DRo0cPMQhXrpz/ljUU1Cl4mJvZ07ZCA6LZ2y2xWPZyCsYUYKlW9XGCMV10oYtW9N40Ejq9T163CKMgba4ZpgcNYPco/cTpYib1ATbvy2h7/+233wq9ywx78jj8MsYYy5W9hF8zOgn5888/sXjxYkREREhz898vmF5PtY+EBlnq16+fOJ0X6g9HocAcdqlJXk4nbrQsFOaodpOCdk41nE8L8wBf5sGzaPTizKhGvG7duum1wnRySbXH77//vnjLIUIXDX766SfxM80J1URu3bpVDL10ccIS1bCbB7CiW+Ow3FHTc/r+W9YQUzcE+i7khPYPFIgpFNAFDPrOZP6eUE0c7Us6d+6c6/6Egi8FDvquEfrezpo1q8D3NWb24UkHYwrE1ByZLr5lvl91ZtRqgO5fTUHYXEOc13gSVPtMF+TM/d3pQhy1SnoS41CwosPhlzHGWK7sLfya0QnO+vXrxZMPWkYz6qtJJ9VUW0TNMzOjJrlU40soRNNJT07oIGkOu1SjRQPuZIdCFZ1EUWijmin6vU/L/UYfFZ0mXLp0SfxMKQzTCMvZ9YemCwgUcinwUICiZrWEPtcJEyZkuWhBTaRpfWY3gBUNvEOje9NraJo9Pup/SSMt0zox1xJTIM5t1F4KGrTeMt/Ci0Jsp06dxNpgakpq2aeYaqKHDRsmtiAgNKI41fxz8H06ZBeMzf2NHycY07aVV0ShEGsOwnSBhvbjmbc32oZHjhwp7r8ItUihFklP+wXO4qTYh9/o+AjEJkRCp3+0L8GTlqxLw6LbW3E16iIc1K5oF9QMLbyrSz+1HQe1M3w9AqBRF6+O+VqdFg+j7yI5lZqp2fZ6yn5hnW6+9x+SUmMR7F4BLwS3hq/GTfqpbSjkSri7eMPLLfdbVDD2JNhr+DWjww7V8FEI3rFjhzTXhGr3zP2CzWGUaoypxpfQFXzLv4eu7FPINQde6q+Wk/Lly6c3ZaYTc6p1KKlu3Y3E3+uO4dSFO0IoSRU+c+kHT4BBOH4nxt5DQvQN4XETqYmR0k+syVWOMGgzwpNPcH34l28uvjbq3knERVwRNgbrGkknj9LwDqoNN+9KkBXC6MOW1Gol/Hzc0L19LTzbJARKhf3fEzQ1TYd1209j086ziI5NEgJHzjW6uTEYdOJ6S054iOT4B8K/D5CSEJFlfeRGqXGFV1AtePqHQqFU4cbplUgS1i1xci+FcjV7Qa4o+tsZUR53dtagVtXS6NulHsqU8pZ+wmzFMhhTILYcmfpxgnFO6JhBt/KiMGyuIaYuLPT+7777rtjChNAFNQrAT8uYAcVdsQy/1Nzm1NWD2PDfnzhzzXqofVugPziugi8Ubpn6DN0Ih0tM7n0QioKjxgnP1O6Atg17ooy/fX8x4xOjsfXwamw9tBIxCbnfDL0oJLo5wlheCJgWV6MNKVq4XLwPedFe58lW1XK10bnZC6gb8kyh3FaisNBuooivk2VBv39f+BmcirqM8i6l0C6oAZRy29fU2eN6LGj4jY5NxKXrD5CUnPZEQ1N2HoTdw44ta7Bv7zZo0zJGCPX1C0SbDt3QtHlb/PPHXOzZuQle3r74csqvuH7tEi6cPYFzZ07ghjBtzOGE3dnZFVVDa6NaaB3xQa9/EtQqBfx93VGprK9VzZc9SBCC7kdTV2HX/kvSnMJn1CVDn3Jf2NfegyFZCD+G7EfJFsmE76zResRmyJSQu5SH0qUK5Grb3CbK19sFn4/pihYN7XfU+I27zuKbXzYI30/r2tgnRlgvhrRY4REFgzYSxtQoGLUxWddXtmg/aPoeyjS+0Pi1oasfYtnWnm0agklje8JFCMTMtuii3O370eJFHDODQY/oqAg8fBAmPO4h/OF98d+HYfcRER4mBOecWyjkh0bjgNJlyqNipWq4eeMKLp4/Jc53dnHDqPe/QJmyFcSyPXDQKFEmyAulA7lfsqViF34p+P6+Zip2Hl0nzbG9JGEHaKgcIJUy6IWTBvfLYVLJ9uQyOV7v9SFa1OkozbEv9yJu4uu5byM2IePenrYWJ6xXeXYHODu5sGHWtGZbvNnnUyjsILzl5GH0PWw7vAr7Tm1BjLCO6QBlS7GlPaHwyajBNySlwfnaAyh0j1fz8aSolWqUCaiIjk37oVH1VlAobD8K8OOG3z2HL+PvNcfw36HL0BmK9mKHUZ8KXeIV6OMuCDtji5N7OY0OK5xYG1KEf4TvNgVdY061BHLIHHwhdwiEQnjI1cIJRCGG0/JlvNG1bS0M7NUITg62H8U2Ji4JIz5eirMXc7/vZqESTikMadHQpwphWAjCxhTqK2zxHRWCrpCWTZMqN8hdq0LlXF5YdbYPSiqFHJM/6oX2LWzfCiyz9TtO4+NvVqGIv5bi982gjYMhNdIUiIVgTKHYap2KTOHX3oKvWWiVQMyYOBAemSs9WKGjmLFh5xn8ueYITpyxHlQtT7T96ZKEXUa88G88oIsTdv/xYtmoTRCeUNDjvxxKn5ZQOpeWyvahfq0yeKF7A3QQ9kX2doHVFopV+KW3/u3fKXYVfEm8pzNkZbPeBN+o1cP17CN+MYvAq93eE2uB7Yk9Bl8SVyUIcsesB13D3Si4hQs7TjtirwGYvrfLt/+GVbsWSnNsL1WjgrZakFTKoI9JhPuNjAGUbM3fKwgfvfwjfDyyXlwrSo8afmmdz/trH3783TRIkU0JJzu6xJvQx58XT7TzIlO5C995IehqKPD6C+cyRX/xoUbVIEz/eoDNT6xfG7sQh07clEp2wqCFPuUh9Em3YEi5C4V7LSEQh0HhEgKFo22/J9lRyGVY/PNQVK/8ZO51+yScvngXg0fNLfrgmxPLQJwsrNfUcOH75wu5U1konYLtLviaNapTFnOmmsYOYEWDji1TZm7CslWHpTlPUE7BWNg2jToKxvn7wig8akPlXlMq2ZeX+zXF6KFtn/oA/KTDL12qKzSnrx22u+BLHOOShQNy1qtFhoRCakpUQAvX/yiETNs3Kba0aP00uwu+xBiffe2uJiHnG67byv7T23D84l6pZB/oQPX3ttl2FXyJNpsLGkThbl9X8R9E3cOk+e8gJt5+Anl+zFy8yz6CL5HJoXQpD01AJ6j8Owgn1HQyrYFMLV2wFKblzuWg9G4GTak+0AR1g8qzARROpWwSfMmZC/fw8pj5iE/Mep/conLm0j37C75ECEK0btQ+TeFQ+nmoXEOg9m1pl8GX6IWEuWD5fqlkHxYuP2A/wZcI31Fqnq50rQi1X2s4BPcT/1W6VBDXt72i78fZy6Y+yaxofDNjY+EEX0LbocpF2JcEivsVOg7Qdqgp1QMOZQZAHdQTKr+2UHg1gtylknAM8RK2z6wtdFRuWQdZtBfz/9qP7+aY+imzJ6dQa36nLnoPJy9b37bATKGw7VWMBFcH6IJ9IJMGuKB+oc7XH0Kts13TTloThhyOcL1aDcHzbYZJJdu6E34D435+SSpZo4tTcrnt1q1O+N3x5f2FE2ZpByd8qMYHMfCwca2vXp/9eq1athY+HTpdKtneobM78eOfn0ol+5HspIE+JOvJsiFZC7eL9ncyU718XXz8yk9Sqeg9Ss1vZHQCOr74I9Js3Hw8VwYd9GnRwrmOUjjZ8TDtaOzQmOFtMaRPzrf0KUwffrMS67efkUoZAuvVhW/1UOFzs99QYitJ4eG4vn07tJnuN0q1vxuXjIKft20HSiQPI+OE7+dPYii3pHFzQ4V27aBxd5fmMDODVovwc2dx/9hxaU6Gzm1qYPL4XlKJFabb96LQ9WX7Ob9JJ7ZcSIQh9YHYRUPt3VD6gX2i/dH6hW8jwO/p/a4Xq2bPL37WQprK4OiiRkBZTyH8Fmqlc75oYUSkTA6F8Al4C9O2XyIgRTiZD7sRDZ3WOoT7evhj2pjlUsm2/tr6K1bvXiyVMgSU9YCzm4PNm2fQKXwkZNAJi+Ep7OSEJTL9wIZoRM4Ht2OQFJe1BvrHMX/bvJmsGTVlP3/DdH9Ge0I7qfjM/bmFXZf82kM4xduuti03U95ehNK+5aRS0XqU8Eu1vrMW7pZK1pz9/CDn2/9YoUNmSkwMdClZt7sgf3esnf+WTY5vz7/xKy4L3wdLpZs0RvV+L0gllp3EB2H4b8pUqZRh9tRBaFynvFSynYMnruH1sUukUobmH30IJx++e0Buzv75B+4etK6ACangh79nDZdKrDBNnbkJS1ZmrQCjY4qTr/0NFmhrdGxJfPhQyOZZL0S/8kIzsfnz06rYh99y1f2gVPLJVG4S41JwXwjAlmhQnXmfbZNKtjV71STsOrZBKpm4eDggoIynVGLZoQB8/ewDqZThi9dnoVLpUKlkO9SP+4OfBkmlDBpHFbwDXaFS2/Z7S0Mc3VapkCpTQGE0wE+vg0c2B4miZDQYkSB8X6PCqH+RteeaPI/Bnd+RSkXrUcJvvzdn4+JV6+2SQm+DEW9C48a1StkStrtL69bhRqbbNJFl04fZpL9olyE/4879GKlkUm/YMPhUt7/Bm+zNf8IJVWI4DcyVYdoXfdG6aVWpZDs79l/A6M9N90s2o+/nM+PHSyWWk4hz53Dst9+kkknpQA+sW/C2VGKFqfPgn3E3zHqf5F62LBoMHw4F3/s5W7qkJByZNQtxQtizRIMrrvpthFR6+hSrPr+ZUXNYDr55yy5k6Gw80q6l7IadV2lsP8KtvaPaIKUy61dObyjYMP5Pyu2wq9JUBrowG1jeE04uGmG7VNr04SQ8qsiMqAUdQmUG+AqfZXbPK8qH2kEFLz9XuHllvS/37QdZP097FBefdayDSp06cfDNjVyOkC5doNRkHVk+zo7GjpApeb+cH7Ji1rqhsO9/XFLw9m9bOR1bOPjmTOnkhIrPPSeVMsTZaQu34or3oIwxUXJq1sHCqNaXL1jlzcE56yAaKWn2c2ut3GTuS0jU+bw10lNNCCBqV1epkIFaeDDG2NMuuzFs+NiSt+yOKwY+rjxRHH4ZYznjPjn5wh8TY4wxxpj94/DLGGOMMcYYY6zE4/DLGGOMMcYYY6zE4/DLGGOMMcYYY6zE4/DLGGOMMcYYY6zE4/DLGGOMMcYYY6zE4/DLGGOMMcYYY6zE4/DLGGOMMcYYY6zE4/DLGGOMMcYYY6zE4/DLGGOMMcZYARmNRhgMhvRpuVwulmna/DDPM/9L9Hq9+DMik8mgUCjSy/QcmkdovmU5J/Ra83ub34eYX0+/m7GnFW/9jDHGGGOMFZBSqYRKpUoPpzqdTpy2nKfVasVpCrwUQulBPzcH09TUVPE5hJ5nDsz0L/3M/Lzc0OtoWdRqtfh76Pn0SE5OFn+X+f0Zexpx+GWMMcYYY6yAUlJSxGD58OFDLFq0CIMGDcJzzz2HF154AXPmzEF4eDg0Go0YSCmg0iMtLU0MphSUKbA6ODiI/966dQtTp05Fv3790LZtW7z55pv4999/ER8fn2v4pZBM709B+cCBA/j888/RvXt3dOvWDePGjcP+/fvF38XY04rDL2OMMcYYYwXk6OgoBuBdu3Zh8eLFOHr0KO7du4cjR45gyZIl2LRpE2JiYsRwa2bZxJn+pWAbERGBNWvWYMWKFThz5gxu3ryJHTt2YOHChWJ4pdrb3NB70u9Zvnw5Vq1ahcuXL+PKlStYv3491q5dKwZjxp5WHH4ZY4wxxhgrIKr1PXfunBhco6KirPr1RkZG4tixY2IoNYdd+hnV/tK/5hBM73H79m0x5NJzCf2M0HwKw/TeOaHfSTW/hw4dwuHDh9ObXtN8+peCcGJiovRsxp4+HH4ZY4wxxhgrIAqvFDYpACckJIhlCqKEmjfHxcVZBV5zCDb/S6hWl55Htb/m+eb3oPekEE1BNif0XHpvCs70fGJ+H3odvTc3e2ZPMw6/jDHGGGOMFRCFS3oEBATA1dVVmmsaCMscWCmcUpkCKs2jaXOZQio9KABT32Bifo659pf+pefmhH5ufj71H6agbZ5PaB4NhMXY04rDL2OMMcYYYwVEQbNcuXJo06aNGF4pyFJ4pZpWFxcX1KhRQwzFVAtsDqA0AjO9zvIRHByMOnXqpIdXej0FXgrVVatWFd8rJ/Q76TX0eloW+v1UpubU9LPAwMA8+wwzVpJx+GWMMcYYY6yAKFz6+vqiY8eOaN68Odzc3MTg6eTkhA4dOqBTp05wd3cX51EApn+pltb8WkJhlQJq165d0bRp0/Tw6uPjg549e6JJkybivJyY36dChQriKNMhISFimQJvmTJl0K5dO3FgLsaeVhx+GWOMMcYYKyAKnvSg2lkKqi1btkTt2rXF2x117txZrNGlGl9qgmxuhkzMTZ4tQ3FoaKgYmClE161bV3wPelSsWDG9D3B26LWEwm7Dhg3F2xzVr18fDRo0QI8ePdCoUSMxjDP2tOLwyxhjjDHGWAFR8DTXvFLwnDJlCv7880988803Yo0t1QQTc0i2ZB6VmUIx/Us1xL1798b06dPx119/4bPPPhNDNQXlvMIrvTfVDvv7+2PIkCFYunSpeN/h4cOHi7W/5oDM2NOIwy9jjDHGGGNPgDm80r/mgazM86nG1hx8KZzSv/RcelCNMD3XHEwpDNPPLV9nbu5M/XdzQ+9Bz6f3oNfTNL0HTZv7DzP2tOLwyxhjjDHGGGOsxOPwyxhjjDHGGGOsxOPwyxhjjDHGGGOsxOPwyxhjjDHGGGMsb4YE3L5yC7Fp1oO2FRccfhljjDHGGGOM5Snl5gqM6v0cmtRrjA69XsKojyZj1uLV2HviarEIxBx+GWOMMcYYY4zlSZ+YiCSjEQZtLG6eO4RN/8zHD1+NxdAXOguBuBE69BQC8YeTMHPRKuw5fgUxdhaIOfwyxhhjxZz59iiWDGlp0hTLjT6bzym7z9MWsl2vedzmhpnoU1OlqQz2sl4ZK85U3r7wVmUfIQ3aONw8LwTiFQsw7etxGNa/C5rWa4j2PQZh1PiJmCEE4v9O30WK9HxbKNLwazDQfcb43mJ50emyfkZKhVKasj2FQiVNZdBr9dIUywlt/9mv26yfJ2O2RPeEZPlgR5+Ti7NGmsoQdvKENMVyEnfnDpKjoqRSBhdnB2nKtpydsq7XpMhIJITdl0osJw+y2f6z+56wIsTHlrwVg89IHdgdU+d8iOaB+fs+GbTxuHXhMDatXIgfhUD86vPt8Gz7wZj6x1HE6Yv+75UJJzmF9ltf/KyFNJXB3dsJvqXcpRLLjC4O3LsWhdRk6yu7Ph7++HHMcqlkW39umYV/9yyRSiZ0MbV0ZR9oHDjI5STifhxiwhOlUoZpY/6Gr0eAVLKdXcfWYvaqKVLJROOoQrCwXlnuYqMSEX4nTiqZVChVFV8NnyOVitaFCxewYMECcbpv375wcXERp7PT9eVfcPtetFQyCenaFeXatJFKLDvahATs+OwzqZTht/+9hIa1ykmlojN5+gb8sfqIVMoQULcO/GvVhkKtluYwkXDqk/jwIa5t2QJtcrI008RRo8TmZaPh5uIozbGduIRktO8/DSlpOmmOicbVFRU6dICjl5c0h5lRTf6DUycRdjxr+O3foyE+HNlRKrHC1Krv/xAda/3dCu3XD6WaNJFKLDu39+7F+RUrpJKJn48rtiwdLZXsgP4elr0/FF+uvwaq0pGpgtCya1NoHlzCufOXcDc6FfkLl2rU7P4lfpncEwHKnFtl3LlzB1uEffXkyZOlOQVTqOF34rxROHf9uFTKoBIOLCqNAtz4xBqtiZTENLGGMLNuzQeif4c3pZJt3Qy7jI9mvCqVrDm6qCGX85rNTJuqR1qq9ckLqVi6Gr58fbZUsq1DZ3fixz8/lUoZSlfyhoMTnzjnhHahd69Fid9dSzUr1sf4IdOkUtF6lPD72tiFOHTiplQykSsUqNKzJ3xDq0Oh5Atalmh9U2i6sHIl4u/dk+ZmWLfwLZQO8JRKRefarXD0GjZLKrGC6NWpDia8200q2d5n3/2L1ZtOSiVWECt/exMVyvAF3aLQf+QcnL8cJpVMlBoNqgsB2KtSJW6CnonRYEDUlSs4+9dfWbpi1AktjQU/vCKVbO/hti/R8+2liKRaW5kXek9YjK/7V4SCfmhIwq1Tu7By2UIsW3cc0VpTplGqVGKXjaztH53Q4f0lmPaacL4hzcmsWIXfg2e246e/PpdKrCCmvfsXfD0DpZLtfT77dVy5c14qscf1es/xeLZeF6lkW5GxDzD6+34wGLPumty8HKFU57RbenrR3jMpNgWpKVkvbPRqNQTPtxkmlYrWo4TfTbvPYuzX1leZ2eNpWr8CZk1+USoVvZGfLMPeQ1ekEnscKoUcS2cMQ0h5f2mO7V24GoZBb/0OLXcbK5AWjSvjl6/6SyVW2JavP4avpq2TSqwgvhrbHd3b1ZZKtpaGjZ/1xug/L4u1uw6B/bBw45eo7ZD5YoYBYUcWYPz707D/fgqUbpXRY8hAhKru48zpw9iz5wTCU0wRVO3bE79vmIxGrtn3xn3S4bdQ+/zWr9YCoRXqSSX7VIjZ/4np8kx/uwq+ZMBzI6Cy8xohe1+3lYND0bRmO6lke97u/mhco5VUshYXlYyosAR+ZHpEP0jINvhSH/32jXpJJfvW9plqCPLnrihPwuDnG0tTtjHlw96oWa2UVLJDRj30ydY1QfaEgu93nz9vV8GXVK0YgMkf9YI9N6rSpzygqiupZH9qVS+Fb8YXj31ySdG1bU14uNq+60Bx5+3pjI4tQ6WSPdAjOjYhvVmzyskFjtnum+QIaPAKfpo5BrXdldDFXcbqhRvh0vZtTP7lD6xa8B5qupkqVdIi/8PuI0nidFEo1PBLA/mMGfgNQsrUkObYnytHwxBxJ14q2Z9OzfphQIcRUsl+VC1bB6MHTIJCbj8DcVmKDU/E2b23pZL9KR9UGWNf+hZqlX0NvtGtxSC7v6hRHLRt2APuLt5Syb4phRP+/332PNxd7WOAn2wZ6ZYKCVLBPr02sDma1qsolWyDBvOZNelFsYbLHmkTrkIXddAuQ5KPlzO+n9AXzzapIs2xL+1bVMekD3vB080Ow4SwPnWRB6BLvCHNsC8the/DzIkv8mBXRcxBo8L/Pn9e7ENvr4y6RPH4Yq+cHFT47rO+UKvt6TOUw8PdJb3rasLNndh+0nrME0tu1QZgdP+aYuDUxR7Cb7M2g47mPnUG4dWOFUxB1BCNS+eL7py9UJs9myWlJGD9vj+w5dBKJCTl/AEVNYPeiH+nH4GblwPaDKopzbUP5QIr47kmz6NFnU523S/i8u3TWLVrIU5cOiDNsQ/7Vl3E7QuR6PF2Azg4209/VScHF7QTglHX5gPh7OgmzbUv564fxf8Wj0OqNuttIuzBleNhKF/TDwploV67e2zP1GqH4b0/gUJuu2bij9Ls2ezyjYd4Y/xiRERlHZTN1nSJt2BIvAq1X2tpjn0Z9WprDO3fXCrZh+u3I/DX2qM4df4OEhLpu2zbEzyDXourRxdCn5aIwJD2cPerJv3EdtQqJfx93dG9Qy20bloFKqX9d+1ISdVizbZT2LjjDKJjkqA32P5CQuzD87h/aQvUjh4oX2+QcM5i632zTAy6taqVRr+u9VE+mPv42tLhUzfwzqd/IjHZ/m69lhaxF3KHUlC6lJfm2A8XJw1+mTgAdUODpTn2woA7q8ej+9jVMJ8taPwaY9RXX2NIqzLIrvokfM04tH1/FehIJHdth1lbf8azHsJ5x6KR6Pn1duiECFyz/yws/+JZ0wsyKVZ9fjNL1abg5KX9iI6PhE44ENralvW78OOkX8XpST99glr1qovTtuSocUJZIfhWLGX7ZXkUd8Nv4NKt00hOSRROsWx7knXvThiGD3hPbPbcpXd7vDnG9oMEKOVKuLt6oU5IMzio7b8Z0JU7Z7F4w8+4fPusNMc+6NL0WPnjIdRqWQZVGttX805HjTM6NO6FPm2G2TT4kscJv4ROrKkP8F9rjuL8pfvCibUdXBEXvsepYethTIuGOqAT5Br7qFGnmsJu7Wvh+c71UDqQR9zNy7x58/DNN9+I06VLl8bGjRuhUnErk+JOq9WiY8eO4skp+eGHH9C5c2dxmjEzGrV85cbj+PPfo7gbFiPNtS1qTZR2bzVkKldoArsJicg+KpqCgzzxQvf66PVcPbttrWBIPILP+r2Bv69YtJyVOaJc3Vbo1LEtmjasg6rlA+EunO5G39iP2Z9/gnkHwsR0IFNWwUd//4XB1dW49edodPpskxB+ZajS80f8O+U503tlUqzDrz3R6/WoVq0aLl++LJabN2+O3bt38+hzJcBrr72G3377TZxWKpU4d+4cKle2z2aA9u5m2BXsP7UFMQkR0Opsf8Fq54aDWDF/M1zdnfDZT29D42D7Wn0HumDlXwkt6nYSA7A9eNzwa4kODclCGLb1EWLH9m14b4zpFg/NW7TETz9PF6dtSaNWis3FWf4kJiaiXbt2iLK4n+5XX32Ffv36SSVWXP3555/4zOKWXyEhIVi9ejXkcv5+sOzp9AakZrp1ly1MmvgVlgshTJz+Zio6duwkTtuSg3BsURSTY0vE4el49c3puBivl+ZkJhP+Fpl4C1dLMmUNfLF6GV6oJMeJmUMxcNoB6CFHaL+ZWPFV9uPOcPh9Qv744w8MGDBAKpnQlejnnsv+qgMrHm7duoWyZctKJZPnn38ef//9t1RixVVaWhoqVqyYXsMwZcoUjB07Vpxm1p5E+LUHdHjq2bOn+PeY0Xe5Vq1aUokVB7/++iu+//57qWTi7+8vnsxoNNwPs7hKTU1F+/bt8eDBA2mOyYwZM9C2bVupxJj9iYiIQOvWrcXzCkLnFmvXruWLNo/EgLDD84TzsJ9x8J71/Zxz41JuMBb/+xGqqSLw+xt9MHUX7T+UaPn235jzVvatXp90+H0q17LBYMDEiROlUoZPPvlEPNlixde3334rTWVYvnw5Dhywrz7J7NEtXbo0PfgSCr9xcfYzhgB78rZu3WoVfMkvv/wiTbHiID4+Pr0ljiUKTH/9Zap1YcUT1fpmDr5k5syZfC7F7BpdHDYHX3L16lVs2LBBKrH8kSOg4VD8vnIJJrzaFsGueXf3kjtWxODxr6GKRoaUGxux/nC46QcyD4RUL2OaLgJPZfj9999/ceXKFYSGZgwd/swzz+D48eNYs2aNNIcVN2FhYZgzZ45YU2SJrkxTDSEfjIsvumBFYdcSNaGcNm2aVGIlDX1fswu6u3btwqlTp6QSs3fz58+Hm5sbPv30U2kO0LRpU7zyyitiSEpOzn+NAbMfSUlJmDVrlrgeaX2ajRo1Cjdu3MB///0nzWHMviQkJIgX0zObPn26eK7BHo3KIxQDxs3Axh3rMWfKOLzcpx1qVwyAi9ocMZVw9S2PJh2H4buFC/F2az8xfOqSZHD1cRGnNX4t0LqRk/jsovDUhV86oaKTaKoNtGyW06tXLyxbtgxffPEFb/zF1HfffYfevXtn2amtWrUKDg4OfGGjGKM+ZJlrAAmtc8t+hKzkoFrfS5cuoVu3btIcoEaNGmLzNK79LR6io6OxZ88ecZ8cHGw9Yum4ceMwcOBALFmyRJrDihNaby+++KK4Hi3Rd5QGN+P1yuwVbZvU3aJKlYzbmjk7O4vd5rj29/EpXcuhZc9X8eGk6fhr/S4cPX0Gp44fw8mzp3Fk70Ys+PEDdK7lkx48XWoMwvwte7Fn6zqsXv4ZGrgUXSR96sIvtRkfPXo0unTpIg6GZEYjFlLfuPHjx4thiRUv1H8jNjYWCxcuhFptPQgSrWcKT9u3b4dOZ/tBFtijoQtWNErsu+++a1XD8Oqrr4oDmVEAZiULrXOqVaKRYy3HYfD29ha/49T8nWt/7d/BgwfF9Uj9ezOjwSXfeust+Pn5iQNiseKDas5onY4cOTLbQUJr1qyJESNG4OLFi9IcxuwD9VOnc/y5c+dajQ9D/X9/+uknzJ49myvA8k2PiKsHsf6fJfh9zlws/Wc99h6/gqhU8wBYCmicnOGQ620pNfAJroTyfkVX60ueuvBLt1h44YUXxGnL2yyYQxEFYBqtkJvIFi/U74gG2aCgm3nAAlq3jo6OYkf527eL7iba7MnYuXOneDJFIdfyO+vh4SFe0Dhx4gQePnwozWUlAa1zGrWdbqGSmY+PjxiAN23aJM1h9opGePbyyv02UN27d+dBr4oZaklF6y03tM+mVhqM2RMa2JbOBatWrSrNydCmTRu888472LZtmzSH5cgQjrWTB+O5roPx7kdfYur/puCLj97F0P5d0Kx+I7Tr/iLeHvc1Zixcid3HLiM61b4y1VMXfqtXzxhJzLLm17JGkJrt8C2Pihfqv21en7TuLAOwed1SAC5f3v5uZM5yRwNR0GixtF4tv7N0uzLqS0ij/54+fVqay0qCChUqZBt8zSgAU80/1UAx+2X5fc1Nfp/H7AOvV1Zc1atXD3Xq1JFKWVEAtmwOzbIXtm06Ji46goRsKsmN2gTcvngEm1ctwo8Tx+O1AV2FQNwQ7XsMwqgPp2D9adsPVPrUhV9Lljtmbg5bsigUGaPO8botvijgDh48OH19Ztdaw8nJSTxgsZIj8+3KskNNoIvrLZwYY4wVvcxjD2SnTJmiG3W4eErF8T1HEJ3T7X2zYdDG49aFw9i0Yh5+XWr7u69w+JVwQCpZeN2WDBR6LftwW65XCsZm3FKDMcYYY6ywGREXmyj830yFUjXaoOfzvdG5bRNUK+uN9IGeszAiMTZemrYdDr8SGvCKlRyWNb+8bkuOnMIvY4wxxhgrbHL4B3ilB0inMv3w89IZmDJxMn6YsQCrNu/D4f1bsGzOd/ho1Cvo0a4xKge5w3RWLoODc9EObpWdpzr8ZteEkpUM3Oy5ZOLwyxhjjDFmK2rUadsUAUpTiztdciKSddYDWjl4lEG9ll0xZOR4TJ2+EGt3HMDhveuxcMa3GPtKxl07bIVrfiUckEoWDr8lE4dfxhhjjDHb8ag/EC+3Kg2Kv2kRmzFv0RmkmX6UAzmcfSuicdtuaFndQ5pnOxx+JRyQShYOvyWTZWsNDr+MMcYYY0VMEYQBn3+C7pXdAGMStv3yDj5fdArF5Y7tHH4lHJBKFg6/JRPX/DLGGGOM2Y4h7jBm/bAFns3boba/I4zae1jx9UsY8PpUbDhxH/Y+0g6HXwkHpJKFw2/JxN9ZxhhjjDHbSbl9FOvX/oP581bg5INk81xc3PU7Rr/QDi3a9cHwMZ/jp9//wvaD5xGeZF+VFRx+JTwicMliGX553ZYcXPPLGGOMMWZDwrlYRie0zHSIvn0GO9f9gelTP8Wbg3uiRcMGaN11AEaMnYQ1p2Kl59nOUx1+ebTnkotrCEsmDr+MMcYYY7bjWL4l+vZqjZoV/OCQUdeUI6MuCfcuH8O21QsxZ+lBaa7tcM2vhANSycLNnksmHvCKMcYYY8x2ZOoQDP5yJpZv2IPDB3dg+fwf8fmY19HnuWdQvZw31DmmSyOS4uKladvh8CvhgFSycPgtmbjmlzHGGGPMPqhdg1CzaUcMHP4eJv00Fys37cPh/Vvxx2/f4+PRQ9GrfVNUCfaE6bbAMjg4O4mvsyUOvxIOSCULh9+SicMvY4wxxlgRMMTiwB/f4Yuvv8fi9ScRqzNKP8idg0cw6rbogsFvjsU3v8zHv1sP4Oi+TVj86/f48NWm0rNsh8OvhAdFKll4wKuSiS9YMcYYY4wVPm30Dkz/9ncsXfQrvnr3RYyadsh0GyNDAm6ev4gHCfk/D3PwKoeGrTrjmWoe0hzbearDLw94VXJxzW/JxDW/jDHGGGOFTx8fhwStubZXiwv/7cc9oZx6bw3e798TLRs1RKtO/fDGexPE2xpto9saJdr/OTfX/Eo4IJUsHH5LJh7wijHGGGOs8Km9AuHvnHE+bdRpxZpfXUwM4gxCKNYn4f61k9ixdpl4W6MRdFsjCsRd+uPN97/Az3P/xvZDFxDB9/m1Hxx+Sy5etyUT1/wyxhhjjBU+uVtLjHz/eVT3d4IMCgRWC0WgSphycoKjTBzBKgu6rdH9K8exfc1S/DLlE7z5Ug80b9iQ7/NrLzgglVxc81sycfhljDHGGCsKGtTsMwErdx/Eof378Mc3neFMc8u0wPM9m6NaGW8IWThPRl0i3+fXXlieSPOgSCULD3hVMnH4ZYwxxhgrSmq4eXnAUUqNMmUFDPpyDlZt2YcjB7Zg2Zzv8fE7r4q3Naqafluj7NjHfX5lRoE0/dQ5ceIE6tatK06HhobizJkz4jQr/tq0aYMdO3aI07///jteffVVcZoVbzNnzsSIESPE6Tp16uD48ePiNLN24cIFLFiwQJzu27cvXFxcxOn8oEPCyfN3cObiXSQkpQpl6Qc2cvXqVaxft16cLluuHLp37yZOs+Llxo0bWPPvGnG6dHAwevXqKU6z4m/lylW4c/u2ON1N+H6WE76njNm79evX4+qVq+J0SJUQPPfcc+K0rVArYmdHNaqHlEK90GChnI8qVTuVEnUTZ0+fEnLVWZw7dx7nhHOSa3djoDPKULn7D1j7bSfpmflz584dbNmyBZMnT5bmFEyRhd8HUXex5dAKnLi0H6lpydJc26IawQcPHorTVKMUEOAvTrPiLzw8AqmpqeK0p4cHnF2ooQYr7hITExEdHSNOq5Qq+Af4idP2RKlQoVJwKDo07o3KwTWluUXrccPvv1tPYtHyA7h0zbRfZIwxxljRqlTOFy/2boxez9WxzxBsiMODCAX8/fJ/bp0ceR1nTp9Hmn+zR77dUbEMv6euHsL3S8ZDq+Pmp4yxp0f/9sPRrcUgqVR0Hif8zli0E78u2iOVGGOMMWZLL/dritFD29pdAE65Nh/9+/+BOu9OxQcDaon9gAvTkw6/hd7n9/bDaxx8GWNPpT+2/Ir/Tm6SSvZrztI9HHwZY4wxOzL/r/2YvmCnVLIfusREJCbdwLIvhuCVD5biarxB+knxUOjhd9P+vzn4MsaeWmv2LhH70dqrmLgkzF7CwZcxxhizN/P/3IfI6ASpZB/kSpVplGdjEk7++yUGDRiPdefjTD/MjiEJ1w//i2mfvovvVt+QZtpOoTd7fuObLohPyuUDYYyxEu770X/A36uUVCp8j9Lsef7f/+GHOdulUgaVoyO8KleCXKWS5jDGGGOsMBh0OkRdvgJtUpI0J8NbL7fCawNbSCXbM8Tvwdieo7DmTsayKlwq46WPp+Ld3tXhIM4xIOb6Iaz/dzXWrtuG4zdjhTlA+U7fYuO07uIz8qvY9fkdPKE19Abr+6x6+rvAyVktlRhjrGQwGIy4fyNaKmX4+o05KB9UVSoVvkcJvwPf/g1nL96XSiYuAQFoPGoUFA6mQxhjjDHGCpchLQ0Hf/4Z8XfvSnNMKlfww/JZw6WSfUi6twc/ffQFFu6/jfQbT8pc0KD3W+hTLRo71m/AnhO3kJypRXTpthOxbcbzUil/SkT4LRPiA7UD1yYwxkqe62fDoNdb71btOfx2eukn3HsQK5VMag0ahIB69aQSY4wxxorCw9OncWLePKlk4uvlgq1/vCuV7IdRF45tv36OCbO2IzwtP3FShkrdvse6/3WWyvlT7Aa8YowxZr90+qwDVWjc3aUpxhhjjBWV7I6/Ol163apdkSl90W7kz/jzt7F4Jjj3MZ/V7uXRsucbeOfVZtIc2+HwyxhjjDHGGGPskegSw3ArTAvfIC8opXlmSudANHxuMD798U/s3LMBc6aMRofqj3aP38LA4ZcxxhhjjDHGWN4MCbiwaxkmv/cS2rfsgJfHfo9VB2/DupOrDB6lm2Dgm29hUMc68NbYz72KOfwyxhhjjDHGGMtTyo3lGP/2l5i/9hDuJVhH3gxGRFxcifdf7I8JS47Dnm4FzOGXMcYYY4wxxliedImJSDRkHeBK6VwKTbv0R8dafukBU594Dcu+fBmD35mDM5E5BeWixeGXMcYYY4wxxlie5HIFlFIrZpnSFSFNeuLdiXOxZfcWzP/+C0xbvAhfDqgH5/SWzik4t/l/GNJ3JJafipfm2Q6HX8YYY4wxxhhjeXIIroUWzdpg0Ogp+GvzLqxZMAVvPP8MglwU4s9lmnLoO+F3zJ88ABVdTfNIwt1dWPzHQalkOxx+GWOMMcYYY4zlSe7WDB/9OgOfvtkTtUrldIsjJ9TqNQGLF3yJDpXMt28yIiEmVpq2HQ6/jDHGGGOMMcaeKK/Q5/HDkt8x5rkQqIWyTG776MnhlzHGGGOMMcZYvhh197F5+gfo1bYx6tRtjPa9X8e0FaeRJP3cktKjJoZPW4iZH/REvRplpbm2w+GXMcYYY4wxxljeDNHYOOktvPvTvzh3JwbJSTG4dXYXZn70Mj6YdRyp0tOsyD3RfNgUTHmjnjTDdjj8MsYYY4wxxhjLU9KFv/Dz32eR5cZFxgRsmzkF/15Ok2YIDBFYNXkE3nj3c8z65wiidFlvkVTUOPwyxhhjjDHGGMuDDhd37sONNHOIVcDFywtO0qDOxpRTWLn8OLSmopA03eBhDMOu9X/gh49ex5S/b8Mg/chWOPwyxhhjjDHGGMuDHjdv3pcCrBxVuk7G5j37sHPlp6jvqRR/fuXAf7ijNYdjNeq1bgxvBd30NxGHt+1BrN62tb8cfhljjDHGGGOM5cGA5JQ0mOKrBnWfbQVvpQzuVZ7HkI4VxWAZd+M8riVkBFzn0NqoJt3vN+LiGdxIrxa2DQ6/jDHGGGOMMcbyIIeLswOoHpeaQMdGx0u1wA6oWasSxIirC8e9sIx+v3KHUijl4yBOp0Xfwp3oLL2FixSHX8YYY4wxxhhjeVCickhZU8iFFofXrMCNVFMtr5OnJ5yFZGk0xiMh3qJnr1wDR425U3AcoqP0pmkb4fDLGGOMMcYYYywPCpRr8yxquJgiZMTp2RjzwQJciNZBrlJCIZPRTYCRlj4gllBMe4CwqBRzSWoybTscfhljjDHGGGOM5cmhTDe80q1Keu3v+U2T0bdDF7w1+z8kGSjaWgRcfRT+m7cAu8Kku//KXOHmJtUC2wiHX8YYY4wxxhhj+eCKdqM/Qt/qnlIZSIu7gYMHLyOZUq8hHAvHdUfnrp3RpnlrvPbTHiRKaVjtVR7lfWlUaNvh8MsYY4wxxhhjLF+UHo3w0cypGFjXP5swaUBixB1cvXwVd6NSLJo5y1G5ZTtUdTANl2UrHH4ZY4wxxhhjjOWbJqAlPluwDD+91xMhXmppbs6cSnXCWyNawDTus+1w+GWMMcYYY4wxli7q1BrMmb8COw9fQlRy9iM0yzSl0P71KVi9dSPmTh2HwT1aomopdyjTE6YMGveyeKbnu5izaBJaB6mk+bbD4ZcxxhhjjDHGmCQNx1b/hu8nf4jhg7qhWYNGaNt9IN4a+xVmLFiBXUcuIyo1IxDLnUvhmR6v4uOpc7B6+yGcOnkM+/fuxt79R3D80GbMnfIGGpSydZ2vCYdfxhhjjDHGGGMSI1JS0tL76xp1Cbhz8Si2rF6MHyd9iNdf7Ipm9RuhXfcX8fa4rzFj4UrsPnYZ0dI9fxVqZ3j5+sPXy0UaFdp+cPhljDHGGGOMMSaRwcvbTfh/zozaBNy+eASbVy3CjxPH47UBFIgbon2PQRg1fiJmLlqFPcevIMbinr/2gMMvY4wxxhhjjDGJGg0Gjcdn77yK7m0aomKAa75qcA3aeNy6cBibVi7EtK/HYVj/LmharxE69HwJoz76BisOh8MgPddWOPwyxvJNpnBDgE9NhATVQTnvQGhsO1o9Y4wxViBqBwVK+alQ0V8FXxd5rjVdjD1N1H51MWDEOHw7czHW7zqIgzvX4Pcfv8LoYf3QplEFOOXzy2LQxuHm+UPY9M88zFl6ADppvq1w+H1EKo0/gnxqoHJQfVQJqi0EgGC4qm17s2a7IfdH3Zqj8XLrSXit9YfoFlKdw1GJIkOpkLEY3upTvNjsI7zSaiq6lfWQfsYYY4wVLzKZHB0bu2FGcw98/4wH5rRxQ4iKT1wYy0oB18AQNO/YD2++NwrtSqtgbs0sUwWgRY/n8Vzz2ijj5ZDrBSRtaqrFfX9tQ2YUSNOFYvCE1tAbrDN+mRAfqB1sP9R1fslVQaheoQvql2mIsm7uUMisV6vRmIrY2DM4f2sLDlw7jhidfbVtLyqOAcPw1jMd4CJ9PEb9WazePBHHE219jedRKFC6wmtoX64cNPK8DoBGpMVtxT+HtyL2qVjlMpQLnYwh1SpIV83ScPbYKPx1LUosMZPrZ8Og11tvEF+/MQflg6pKpcJ34cIFLFiwQJzu27cvXFxcxOnstB84DQ8j4qWSScORI+FZsaJUYgxQO6vQp7YjajlY14zRGYTWYER8qgG343Q4+TAVFyMMNm/WxjI4umswqKYjKqhpL547o0GPJUcScCbh6TiPkckU6NXKHUM8pQadei0+3BCLc3bWR5E9PWJv3cLBadOkkomnmyN2Ln9fKtlexO5J6PnGQoTTuY7MEz0/W4xJAyuZmkUbknH7zG6s/mMhlvx7FFFa+i4p4VepJkopIiGvNw4LJrTDo6TAO3fuYMuWLZg8ebI0p2C45jdXMnj698aQ9lPxfM32qODukSX4EplMAw+P+mhaaxxGtBuDel45n2gWRxqv59Cv5US80X4KXm89Fi2DvKSfWJMrnaCRpolM5gC1Iq9DrZ2R+aNq2eYo51UBgR7l83hUQOmA6vDOMyQzxljx5lPKAc8HaFDdQ4VqFo/qnirU9lajeZADBlR1wTctvDDzWVdUduX9or3wFtZbRz9hXWVad9k9qnuqUded1x1jLCdpOLptPyKli/wOAe0xsHfFjP7AckcE13oOb01ahFULxqNpIN3eSIfwW5Go8epsLHrE4FsYOPzmwjPoFQxu2g/lnNR5Xi01kUHj0ghdnxmNeh72cS+rJ8HFox6q+lVGoHt5lPKui6revtluOCnRJ3AjRWdqzmDUIzH6KK4nFKdaXyITQrs0mR/aRKRIk4wxVlIp8nuRT9iBBnhrMKm5O6o5c4iyB490TBPEpUkTjDGWhR5RMfHprXtUTi5wzHYfI4d//Zfx4/TRqOWmgDHtFpZ8OQ5/nk2Sfm47HH5zoHBuhe7128NLmfERGQ2xuH37H/x74Gv8tmM8Zu+aiH9OrsIF2gjSW8jIoNDURIe6HeH1lH26+sTdWLzhNfy4eQx+2fwmvt+5HA8zPpjiyRiNE8c/waxtY7N5fIAZu5biXqYmrowxVrIZ8fBeEl7bHo1hO6Ix6kAcfr+dhrj0/b0Makcl3q3hkK/RQVlRMiLsbqK47oZm83h1WzTWhHOjdcZYTuTwcHdJrxRMuLkT20/GSaWs3ENfxLv9a4qB05B4CgtmrEeMjc+bOfxmyxGhVZ9HOU3GYduou4V9Bz/G7wf/xNE7p3A78hruhp/EqctLsWz7h1h/OwwZ61IGR6+OaBLgKpULkdwVft41UKV0U9QMro/y3gHQ5Gut0slJaZQLbIgaZZqiamA1BDg7pW/Mj82QiOi4OwiPj0HeXZ81wheoCkJKN0GtMs1QPSgUgS7Oj7lRKuDiFoLKwnuFlqoJf6cnVfNuQFLiHdyPvpHN4yYikpKl5+Xl8ZdP41gW5QMbIDS4ASr5BsNZmZ+1VLDPVqb0Qin/+qgR3BiVfErlc5vKSqkJRJmAeggVtjH6u4NcH2f9quHlVQfVhe27jFvu95xjjBUNnVaP8BgdwqN1uHkvFf8ejsPX19KsjoN+/hqE5DDqobOrEsH+atQorRGOP2r4ucrzvW9wcVOiYpBa2KeoUc5HCYc89olyhQw+PipULaVBNeF3BXnIkZ8eOQVZRgqvlgoAAH9cSURBVBpBODhAjerCMpbxUiBfu20LKuH8I8hPhWrC76Zl9nZ+cqMQa7UGcd1FZPOIjMt/f21axlLC5xMq/I2lhc80v5+NQvgw/IT1UUVYH5X9lXBzyN9fpnFUoDT9PuEzCRXWfykPRb7Wo5nGSSmc8wjrRHitv7AuH/fzdBK2i3LCuqXtopKvEk6PMUAWLUslYTkq+jz6tsGYbalQs0F1OEklo+4aZr43CvP23oFWmmdNjcpVyklNnY24tX8rjsXZNvzygFfZUDi0wIsdRqKiWtqVG9Nw4/wELDh3JceDgkxVB8+3H4sawg7NxIDY2z/ip0P700OgXFMLzzUeiIpOjpAZkhBx7w8sP3sSYl/wdG6oVWsUngn0hVqmQ1LCf1i7fyXuZ7pKItdUQuPQF9A4OBQeKqXFTtwIXepNnL36J7ZcPIp4vTTbgrNnK7Sr9Txq+vhCZdkeyqhFfOxhbD82G8eikhFUaQz6VBY2WKUH3DQa6XcI758WhXitaZ3qUw9j9e5FuCX8kTJFRbRs9DJquLtBYUxB1IOVWHnyABIzbWEyZRBqhvRFs/INEOBofl+Jkf7mMzh+eTl2X7+ElEyvdfTphb61Wwp/sxFJsVux8uAGJLu1QPs6L6CWt2/6QcQohPCwe//g3+PrcS/1Ea5iy0qhfespaO6lNpWNkdj333vYFJa/ZhpPbvkU8A3sjrbVOyLEw7KvuREGbRgu31iOjWf3IirTFYaCfLYiuQ9qVHsVbSvWhadaYXq90YDU5LM4cHoBbrqNwKA8B7ySwc27LVqHdkV1n0A4WDaXFLexIzhwbin23XuQ6fukQqVq76F9mUBhKgl3r83GqhvAMw3fQ6tAP/EkpzgMosYDXrGSKLiqG6ZV18B0hDPi3s0EjDiaIkxlcHB3wFetXBBiTiQGPWbtjsGGKNM3XeOsQrNKDugmhKUKmQbOopGzEpJ1WH0hEf/c0CLroUuG0uUc8WqIA+o6K2C1WzEYcO5eMqYcTUKsxQsVKgUaV3fC4DJqBKgsf58RacJ+d+PFBMy7kma1HyrYMgrHADc1etR0Qg8/IRRZ7Le1woH+geUgSsJ73bydiG/Pp1l9hq7eGvSu5oj2Qqh3tfojjYiI02Lx2QTsDNNbvSYvmdfd7RsJePuY9brLiVyhQOdGLmjnIodBZ8CSY3E4kShHo1AnvFpWDT9z6zhh+WLitZh5PAEHI7NfPvps2wmv6xOgFFvVpX86wmuvh6dg1qlEXMzmpNivlANeqOyIlp5K4bxImikSPtc0A/67nYwF54VzjhwGqaLf27mWE/oGqOAsrRP6nXcjUvH9yWTUru+WjwGvZChbwQkvVdSgrot1YKXt7+w9YfnPJuF2phMeZ28HvF3LAUHCC2LjUjHlcBK8KrjgY2F9BNBnJyzHntMx+N+V4tZFjBWW4jDglSHpBL58YRiWXbI4d5A5onzd1ujYsQ2a1K+F6iGl4aYW9gu3DuK3zz/Bb/vuifsFmbIKPvr7Lwyunv9KIB7wqgi4+NZFaeFAaWbQncLBa9dzvRpq1J7Gsdv3LZ4jF0JmVfhahEuFuizKeZeHr0sgfNwqooJvWWRZ9TIPBPlWRYBrILxcglHatxq8M11VVLk2R7/Wn+O5CrXhaRV8iQxKTTnUrvY+hjbpCK9Ml0WdvHvjpRbDUc/Xzzr4EpkKrh6N0ahMOWHplfD1FH63sz/c04MvEd5f7Q1PYT49fDwqw8/RdEiVKUujQkAI/IS/z9u1PMr5V4ZLpt+hdGqAHq0moXf1ZxCYOZwRmXDC4FoHz9T9FK80aIHMY6Y4uIagnGcpeLuUFj6nyigbNBivPDsC9YQgb3kwksmdEVh6EAY26oCiHLvjySyfGmVDxuGVZv1RzdMz0yBrMshVgahS6U30q1HN6gtc0M8WMm80bDgBvas2gJc5+BKZHBqnmmjZ8FN0Lu0jzcyJAgFl38LQFsNQzy/IOvgScRtrinZNvkCfSrSdWdLA1ztU3PbF7ce7Bpo2HIfWQabgS2QyJzhZfDcZY/ZDl2KwHvle2HcJ+VPk5OWACa3dMLqiAypmDpVEeK6Lkwov1nXDu5VVWX5eoZoLptR1Rn0heGTZrcjlCA1yQDP3jH2DXKlA96Zu+ED4fYFWwZfIoNYo0KmCA9wsdicFXUYnTweMb+GKAf4qi+BLhM9BWIbSQmhPf7goUddHZbUP9CvjjCnPuKC3n7CfzPJHyuDjrsY7TTwwokLW311Y6HOs7atCeVclKnooUdNbjRdbumOc8BmlB18iLJ+HEPzHNnVFbfMtHyzQZ/NBSze8VloNb4vgS2TCayv4OeDrJq7wtHpLGerUccOPjVzRzitz8CXC5yocq1pVdMaMVq6olE0fc7WwvoY3d8WQQHV68CX03qV9NZjawg3P5nGzUtq+mjZwx/9qO6Gha9aaWvp5jdKO+EH4XOq4Wf/QQfjcGniqUFb4N1T4HOuUd8EXNRxMwZcIT3czV7QwVkzInerg7QlDUc3VYts1JuP6sfWYOel9DOnTAQ1r1UBoaE00bv8q5kjB18QBjo623eb5G5eFAn6e5YVgKBUF2rjzuJWa3TVeS3qERV21qsVVOAbB53Hbi+ZApiiPNg2HoaqLOdwYkZZ8DZfv7seFhzeQaO5zJVPAM2AgulQum3GQkQWgSc2eCBAOFiJjGuJiTuLs7X248OAKYrSmq7VyISRRzXViapzFxpo9gz4eScLr8kVeBs82GoE6HhnNq436aNwPP4Szd47iTkJiRt9pmQYBZYaim7D8OZEr66Njw87wyzEMyeHq1xPNAm0z+vbjLp+z3wvoGVo740BNNbbx53HhzgFcjriPVKPwIQnr193Jh843TJ7AZ+tTdgjals4ImpnJ5O7wcXXLdafh4NUDveo8Aw/zgZ1uAxZ9EufuHMT1mJj0JpEyuRdCawxFffecWoDIhM+hF54N9Mr0+3TibVUYY/ZHJZzQeFruP4wGRKeavq8eQtALkU7yqdbtfqwWO++mYqPwuJRsyDjWyORoFuKEMhYHYY2rBkMrqS1uo2fA2Qep2HA7BfujdYinfYKwMzQHbRJYwQkDvJXS/sOI1BQd9kq/72yiQdwX0f7TMsgUZBnpfrGtazqitnjMpxZYOsw+HINXtkZj3Mkk3NBlvnxuRHxyRg0phcMxtR1QKn3faURYjBab76TgYIyw35OeSEGrfQ0XNMkUsoqGDB1ChXDuYXFxNBOFWonXqmis9ttypRJ96juhgbB9mF5HNbZ6HL6fii3303AnjT5bYf05CNuPRegPDnHB2PIapGdT4TN5KKyTbcJnsjtChwQ6FopkcHRR49N6TnCU5pjI0KCmM1o757S8VFmgQLk8ztPKCssxOliVHr5p+zstbH+bhe3icop5uxCW31GJ9+s6ZyxvJnKlEMRDNfDKdGEjjY9prBjyrj8cM6ePQcMA629dOmH/r8uy3wNcytZH7SDbtv5VTBBI04Vi5c4Fwv7K+o9393aCQmlxlLIralSs0A8hbuYrqwYkhG/Bf3ctr1pkT6YsgxplQ+Es7dhkSMLt27twO8UUDhWaKqhXoRZcpJ/rk0/h4I2LsBpYUeaOSuXbItjRHFAf4NyVvXgoNW/1KfcaulUoJx2w9Yi5vxBzd8/CgZv7cebmFpx8aESF0tXhSglGCLHuznpcvn4C8cLLFY6NhYNzI3iIv1/4ux7Mw8xd83FCCFVnbm3DwSs7cTspUQwrdxKSEB3xH07c3IaLKWVQy89P+jyEkH9tGuYdWoYDV9fjwOU9wt9nauUvU5ZDncoNpfcXfkPaJRy7diq92bNvudfRvWJ5admFk4MkajL9NdZd3CUEtP9w7OpexDrWRoiHu+nKvkwFT1clblw/ilhpE3L0bI7GQUHigVUm/H1K4YlG3T2cuTAXa08tx6mIZPh4V4Zb+lVVNRx0F3DofpipnBeZGyqWb48y5s+faiP9W6JRpS5oWtny0Rl1vJJx/t4Nqz4OBV8+PzQTdijVXKURxoXweEf4vH/7bymO39mPUzc24fiDcLh4VIU6YReO3H8gbpcF/mxlwWhR/yWUF/5u8S2E90hLOIytx2Zh66WduJWkgZ9nKThZJWM9wu9vwNloc79nDzSo+5YQwKUbnBujcebUV1h49F+cEpb9xLWtuCOvhmo+PmLAlsk94Y4LOBpm+hvouxdcpisqudDFFxnkCrXwPOEkKfEoth6djq1XDuBW9HlcDb8L6XzaLsWEJ9A5mpU2DboLn3deteZPTkREBE6ePClOh4aGQq2WmvFnY9E/B5CYZD28a6lGjeDolf0tzdjTyd1Hg46+5jAJxMemYd39TF2aKjqhn4/wHGk3oROODQsupIrHAIWjCu39FTh0PRHfHInHHxeF4CqEhyPCY/tNLZQBalSTalupj+7DiBSclw4eXqUdMSSI9gdCQfhybTkRiymnk3HkXhr23kjBultpuKLV48JDIQiLiySEnipOeEbq12nQ6vD59lisumH6fduuJmNThB4PhEB8XvjXfIZSkGV09NBgWFUHU7ARZm09HYelN3VITjUgIlqLKyoV2olh3IiUuFSM2ROPP29ppQuCMjSu44ru5lApnDNtEV4/4WgSDt1Nw57rwjII4bql8NlS3pYJvyNI2P9uDsvfhefM687ZWYU2FRzRrZL1o3M5Fa4IYTTSYrVSzW/zShqUor9LJhNvXygT1sGV+8n45ngC/riRhkQXBUKdzMcOGZyE3c0OYZnNx37/Cs54J1gtVSoYkRibivd2x2Gt8JxDd4QQKbzHTZXwHg4GrLmWiiThdSpHNV4XAnNF6eoENS3ecCoOXxxLwgHhM9l/MwU744C6gUrpnEMGB2EZUmJScU66RzE1wx9ZQwMf8wYpLPc1Ybm/PpaA5cI2c59aDLgprCo76LPfdiUV4dJHS8vxWn1HlJeWg7bpiXtisORyKg7TtiQse4q3CrWdaLuQif2SYyNScZH+CIGThxrdAlWgMwqqbdYIy0J/y+bz8ZhyKgm7IrU4+lDLI2yzdKmxsbh74IBUMnHUqPByv2ZSyV7I4Fq6Prr1bAF/WSzu3LiFqOTc90lyp8p4/asv8FwlZ+HV+RcXF4dr166hXbt20pyCMe8LWTonOFo1kTIiWZsonZznzqBNztTZWwOVOeQ8EV6oVrqmxdXHK9h7egsiLKqbEyLXYN/dGIuDeTWUF4I8kSmoz4/5LxN203Lrq6FGfSSuXl+Bg2HRUjkBMQlhwk7Zuk+SXhuNqPgw4fEAMcn5HfDJG9XLZCw7jIk4d34BTsZa9KU1RuLkqSVC2M748iiEwFbVJ4erSgKD9hp27v8Cy8/9JwSjW7h+ayn+vXDWogZeAVeXAGn6McgUcHDwEWtZrR++8PUqD/f0qtfsPeryKV0bo5q3FB4F+uR92HLmmHgyYGJEQtROrNg2HLNPnJLWc8E/W5VrXVRIv+AjPF1/HTsO/oJ9dy7iftQFnDw/DfP++xv30nLesSmcGiLUz7xDMyI1egM2X7lu8bcm49rFlbicvgwKeHlXz3IV3JI+7Rw27v9J2KYv437kSZy8fjz9QghjzD4ohONclRAXfFBJlVGTKgSNy0KwMYeImDuJeGVdJP53Mhn3hHBifUzRYY8QpDO+2jL4WwyCpKTAZbGbyHxYTU3S4cCFFNxNH8hACBlC2rDcs6QvlyRGCCibLqfBMr4XZBnVzgoEpocsPY4Jodry9Q+j9EgWZwghzUWJICEAmRtNUdPcNr7m8w7hnCMqBb9d0Vr8LiNuXE7GrvR9pwylhMDl/FinFzIohXOcACEoZn6UclWhSjZNlq0I6/XE1QSMO5CIixE6RESmYeWRJJzQZiyt0kF4v/REKUf9ICXSxz0TXr/6XCLumD4MkU44rvx3PBZDt8ZD+NhEXqU0aJDeHNiI6AfJ+P2a5WcCRN1Lxtw7FutE2EhaBmXcmtI7QI3yioz3SI5NwWeHEnFFSPcPI9Kw/nAcPha2GykrZ8tTeL/66eO/GHHkSiKOWbTt1wsrcZsQhKPNtbfCMjT0y9wdzYLwHnvPxmHmhVQ8jNXhyu1U3M5tARizcyrPUPR//0es2bIWc775AEN6tUHNCv5wNu8DqLIlqCpa9RmFmX8uwVutsr9dalGy9e+3Q3SQzXG3lausY4cZhHmWu+qCkSkroYxnxo5dl3QJt7LcR1eL8DiLWk6ZL3xcTLU++uT7iEk/QMng7DsIr7Z4BfUDgqyvfBYCmaoKynhkLLtRfwHn7kVKpQxG7VlcjkjKOGmQucPfPacaKD0e3lqM3Q9MYd3EiKiIs4ixaEYkU+Ycnh+fEfrUWOFkJreD1qMvn4t3CHzk5q+lAYlRJ3Enm2Yj9N7m2U/is3X0KG8RQoXgGrUbJ2Os72AcH7EKW67dsTr5sOTkXRX+6ScaBkRGXhJbHFgy6u4iPMF8AiecNDsHprcUyMJIYXkBjmZaDsaY7fmXdsHcLl6Y19Uby7p6YWoNRwRZBo34VEy7aH3hVJfx1c8iVWsRNoVdgspiv5Ao7DMS0g9dMrSu6Y73ajsKYY3q2rJjQFhSxqjFcpUSH7V0R+8KajhlTsGZPO4y0vHf8qWZf41CKcyTpkUWP3fyEkKnRaK/FaVDqjRtRoNN3bAISSohrKbXaD4hdL4SmUezGm1iGn46m2J10UCbrMfJTDt7F6lVo0KtQKh7RoUCXUTYH57979Cnf4AylPc21XKLhKcfvGd9ocLEiOthOouLwzL4uylgbudS2l0h1riKhOccvikEXasDmBHXLiRhteUoaZmUFdZNxoVlA45nuqhBUuP1uGvxvsEuOYVfI+KikjHjijbLezBW3MldyqJlr2H46JuZWL5hN46dOYtTx4/jzNkzOLBjNX6dNBKtQtylZ9sWh98sdMLBz3q3pFbmb0QyucpRGsrbLBnJGdVeBaZ08oeb2O7LROncHi93mY2x3eZYPGZjcLXKGTtemVJYftMh16g/g6M3bmXcikKmhrdfJ3R/5ju899yn6BRSB255nBg8LqVzANwtDtS65AeIzvaz0SE6IcLiwCCEdCcPaTorgyHrQcuQlmR14iDLOPw9OmM0Dh8aje/WvZHl8f2elYjOY/U+2vLJ4OFkahJsYkBcwsOM9ZWDgn+2Mrg6+licrBkQE3tLqqWwJJxMGnM6SZDBzdnf4iKKHP7l38f7VtsmPSahqXfGt0Qu1yDHsT6MUbgdGcYnCYzZHWGvJeyovDQKeAlfYGrKmU4IgeFRqRi3LwFh2Yy+6+KhRstQZ7zVzB3ftPPErI5e+L2zF76pqs5xT53wMBVrhYBifjeZELJbVHTB9Hbe+KGFKxr7ZzTpNbt0PQ3X0y8cUpNYFYbUccPiTp4YW9cJpbIZHMnscZYxNU6PW3rp98kUaFXKop2VTI5apdTpIUqfZsBNi0ZTzs4KWN7tp0J56cKC1cMDg70zfrtc+MxzuItUHoy4dzsBAzdEYkCmR//1MdiXxy1IKORnvo0hzUu0milsH9KyqYWQ7m91fNIjKo8+rvR5BTpZXNgQQufNeKvUmi4tyYCHFu8nF8K2qUZcDh/h1M3yPS7GWvTbtpD57zGj5fB3sngPoTy4mUem9eKFWa1cUDX9wC2sF6urHNbuR+myObYyVhIpoHFyshqLwV4UQfgtbt/yZCRaNfOVw9nRO181o2rnQLhZ7OQN+ijEJuV8RfFRyZVO6Vc0iUzuACeNO5wzPZxUFiNBGrVI05mvl2px9fw0bLx5C1bnJMKB2tGlJprUGo+Rbd4U+5s+abTsVqNL61JgXSdgZhCW17rzi1L+qB3jrZurFYwB2rQYxCVHZXpEI9mimdejyWn55FCprGupdXpdnn9LwT9bOdRKy3VuRKo2Oc/fa004AVZqpGkinPwoXbJsm84aN6sTZYM+FcJ5IGOsGKPwE5usw6G7yfjfoRgM3xmPmxnVcSK5EFib13fH7NZueK+KE9pT/1k3pRByFEJIUcDDqruRNYNejzVHErBBCMCWuwtqpVXe1wEfCYFkcgNHqwCZFJWMKSeScd1qPy3sl4QzsWfKO+OXtp4YWMa6hq4gy5iakIbV96XlE5arfhU3fFzfBW2rOAqByQ0jA6SALnxWl++kIMwicVFYynhfmdhdSrywkOlhHk+EGITA97hjH9Ct2JKSDVkeKcKJweO9Zc6vkgmh0NHyQxM+IPM1ghwJz3fOFCCTc7gKTDXilm2DhNMZ8UIubRsOGVeSRQmPXBkhsx7nQnhPZyFcZ1k3auHYnf40I1KyVlEzVgLpEXH1INb/swS/z5mLpf+sx97jVxCV5wDBtlfo4dcg7OiLFx1iEsItduXCgci1gtWVy+wpEOhd0Sok6xJu4mGee/n8Mxr1Vs2q9CmXcPLaJhy+mtNjI/adn4M99xOlVwjvob+PQ0fGYcbuX3Eo7DZSrK7AyuHg9ix6NOgGrye9ZRipCbjF71KoLPofW1NS+zALWiEgPS2sm8nLoFY75v0lLfBna4DO6l7cdPKVza2SckXLYLV1Ii5ybzbbZMbj0NW12Hb8H9x4gt8R9ugMBv782aMy4v7tBPRbG4nn10Sg96oIDN4QjYkHE7Dnrs7qOGUiQ/WarhhTJuN2M+KIzQ9Tsfp6Mv68loz1EZb9abNKiU/D7B3RGHM8Ef8JIdgqCwnvWTXYGe9Xsb4F0INbSRi7NRbfXk7GDXFE4Qw0kFO/Oq5oln6vuYIuoxF3heUy1+rRqMwNyzpiFI2O7K8y1dIK++kHESn45pz1vYWtd4FGPIxKFX5fUo6PP64m4Rfhc6D76xcHlqcZMiGZ5tjax0x4fubDgjqHczAa/Mvq0q2w8Zku7huz3BkgcxjOD6vtTDjWHr2dku06MT+WXk7CpPPJuW7LjD0qfaZt2eYM4Vg7eTCe6zoY7370Jab+bwq++OhdDO3fBc3qN0K77i/i7XFfY8bCldh97HL6qP/2otDD75Ps81o0jAiPvmbVLEXhWAc1/N2kUvbk6lqoWzrA4gPVIfzhGat7HhopIEjThGpus9YoyyGXDryZUR9TyyucBu1l7DsxF2uP/57DYy42nduHqCwHSD2iw7dh3d738MOmL7Hx2gUkpYcnmThicU2vXJp6P/rxQ1j2aFgOjSV38LGqJc+ghIezxai4wpEsNiFr/9WSyYDk1ARpmsjh4RqY0d8oBwX/bI1ITrMc1E0Odxf/LH3WaH5OPezoPRKEZbfc0hKjt2J9ttul6bHu+ELsvX0rxyZnrGgkJ1sP08dYfhiFk7E0IVBqtcKRLY/vsMpBhW6llelNYXXCNvfp9ih8tDcOc48nYOmJBPxrNZhU9uh3Xr+ehKnbojBUeO0KIYymhxPhuFk72Pq+vSQtWYe9pxMwZmM03juRhNPpt6YRXiIE4O5C2KXFKugy0q2KRlWl4EzLacChsDTcFT4fvXBs1QlJ7npkKuaeiMXIvQmIzrTTSxaeZ/m+MUL4XXYiUfid2T+WnUzENsuBnuwYNfGOk6aJylGBwDya0tHF3CjL5mkyOYKcpelM1M5y+KafMwmfdbIeicIHQ+8RZ7lrE96jrOU9SS3ktDR0/hpjuRzCex6+mv06MT/+PJ2Ey3k0HWfsUaWl2VdzgrBt0zFx0ZFMfehNjNoE3L54BJtXLcKPE8fjtQFdhUDcEO17DMKoD6dg/WnLPYJtFHr4LY6SIo7gpsWouJB5oXb1HgjO6XIl/bzWEFRzzKhVo9FyT9y6ZhUGjLoUq9Gg5c5lM+65K1KjbOWBqJXDvU/1KXcRabFcSqfK4sAKBZGSeBb7j03EuusPMw6kMk94WPwthkwXMDQqJ2kq/3RJtxGemvE+ClVlVMxmFGeZsoow3zljwzSG4U6U5YBRJZkR0XF3kD5gqXBIdvBuhqrOWbcHlXMoqvl6i9NP4rNNiL8rnjCY0O9tgMoO1h01NG6t0bJccI4nCvHCsme0dJTDyysErrmf4zA7YG8HVVbyqF0UCE6/mmZEZHgKzmQeDe8RRYenYtG+eKyz6FqkzHSfWEt6nQFXryViytFkqz6iNMoxvaKgy1g6WIPK0qBVabGp+H5fLEZQzfjqCOERidG74rD6utZi9PsMiXEGq36wwV5KWHYiKc60wvq5KQRgM5lCiY6lre80QaimvHyQSho3xYA78RYXBIQn1/NTZ3vCGuyngmWmvRqtg2mPZkSYcFCzfI8mQepM47II67+8I7q4Z/fOxIh7wtl9xnvIUdcn67IzVti0uY3EV+RScXzPEUQ/wiIZtPG4deEwNq2Yh1+XWt/GyRZy+sY/1Yzakzh802JgKGFX5+DRGS+2egfNg6vAU2PafcoUrgjwb40uLb5Ct7JBGQMVGfWIuLUKJ6wuO1INXThiLfofKVR10aZOO/hrlFCoS6N2zfHoX7O2df8YS4YruPIw4zZGMkVFNK/VAT5Zq+iEHzrBP+BZ1Anwk2YIv8+5HV5sNw7PBpfJVOMsh/UI16lISx8ohL50yRafhQIefs+gsrNaeJkr/H3K5ry8lgyXrZYdMh/UqdbV4nYIxAmVqw1AdSdz8DYKJxEHcTbm6bkBXnLkcdyyuJ2QXFUDzzUeghpenuJAKyqHMggNeROvtfkYParUNq3HJ/DZpkafwz3zfTcEClU9dGjQA2WdHYTjvatwYjcAg1q8ivKOOTWoFt4j6rjFRSMZNJ6d0LFShWxqkIX3VweiSvnWKJe5YxcrcsWvaworbmgTs6wddnVRWvXPdfLQ4MUKpnuhZofuEzu5mTMquVm3PaHDluVJDPXeMF08lKN1Y3eMCnWAS6YdEL3Gck6icKyjlxR0GZ0s9rdqdw0+auSCTlUd0aKCAxqV16C2EI7L+wjvmc0OMTk6DUdS0o/scPR0wGuVVNmeoClUclQq45DrgF32hPprHw23DJAyPFvdDX3KCEFX+APpfsn+gQ54/VkPfNfQGRWkz/H2A23G7YOEzyS4lCOezdQfy9XHEYODMwY7o2bqm25njHgRFqGzqJmSwTPAESOrasTbYKmE/9UNdcWkmg7wzuGCCbkrLEf6hQlh2etXckb99Kby1hxdVahXTm3VDJuxJ8Gqa5vNGREXa9laUIVSNdqg5/O90bltE1Qr651L1wa6z3e8NG07MuEDLdRP9MXPWkhTGcqE+EDtkH3tpr2Qq6qjS6sPhZ1cNn0fjcKOnGpDZYpsmigbkRq7AYt2LcRti6udJq5o1HQaOpdytXpPalpjFOaY3sto6oMnvrdQ1J/E3xsm44x0YFR79MTQVv0RkH5bBOH3JV3G5QcXEZmSIrzMBW7OwSjtHQJvjRppD+fgu71bxIExNN4D8WbLHvCU65EYfxaXHl5DnFYON496qB5QGhrpb9GnHsAfm6fhklSbqHLvidfbDICfRX8Z6t9pFA45cuM5rNo4EceTdJBrnsWQziNQTnqeNn4N5mxZjAfSgSPrshuQkngO5+9fRrxeOAB5N0CIt296MDcaHuDggU+x4V6MaYbAs/w4vF2/vnQCose9y19izsnzGQdWgcKpA155biiCzcsR/Te+3va3OJ0nWSm0bz0Fzb2kw5fw9TAYc2peZoQucRsWbZ2PO9LVgYIvnwqVa07CgJCyFqM+E1oOehdpuxCkhs/F97s3iid7Bf9s1ahe93/oW9Gy6b6AtvX0bTOzNJw9Ngp/XYuSygqUrfYFXqoeknFxxZiKaCEUX4m8i0ThM1KrveHlVhFlvILhqNDi3LG3hdeba/Zd0LT5THQMkOo8DHexffeH2BVRvG51dP1smDigjKWv35iD8kFVpVLhu3DhAhYsWCBO9+3bFy4uLuJ0dup1/DpLf6KGI0fCs2JFqcQYEFzVDdOq073iiRH3biZgxNEUYSpvCrUKo9q7oZVG2rsI+9U7kWnYEqGHxkmBNkEqi30XMWLb8Rj8dN1Uh1exhhu+DdFALhwbr4Sn4WCMHkkyOar7q9HMzbxPNCL8bhKGH0yCQTh+9m/jjv7ucmiF4/DBsDRcSDRA5aDAs6XUKCucmZleYsDqIzGYe1tf4GX0LO2M7xs45nrfckIB7dS9ZPx8OhnhGc18UKaKG/4nfL6W98O9G63FfxFC+BL2Jw5qBcq4KVHHUwFPIUBvt/jdecm87uisL6fuJtRke9GBGPz70HTUUgrnEeOec0MjKbSnxadg2Lb4TPdbl6F9cw+85SddzDTo8b/t0dgjNf919nbEpOZOwrmB1dFFWA7qDCZsH+bji0GHTzfG4JTwuciEdditpRte9c644EqDWx24l4pzSQa4OCvROlAFf/M6Ed7r+q0EvCdsk+ZLsHKlEi+3cUMPF+tLFvR7Tedc0gxLei0+3BCLc1Jz5+yWg9bhcWGbOhWvF7uieTgqUNlTiRquCmiEv8Hy9d7lXPBrPfOdQIy4eDke406nClOMZS/21i0cnDZNKpnQtnp806dSydbSsHPyALw5/4z4/XUq8yIWr/0UoRbDz6fE3MK5U6dw+vQZnD13DufOXcC1e7HCd1OGyt1/wNpvO0nPzJ87d+5gy5YtmDx5sjSnYKz3RCydQXsOG/fPwOlYi/uimgkHXblcmUMgkEHpGILKPt7pO8oM8Th9eQsiLGpVCQ2nbw6+uuSj2HTuoFXzaEtpMeuw9sxxJNLRSyQTDswhqFG+G56t1hctQzqhTqka8HFQC+9LB7mM0TH1adRnWHidTAlnt9qoW6mX8JoeqBsYnB58YYzHlYsrcMWiGa027iDOR1uP/ksHBNMyK8VbXuRHWswarDlzDAnpyy6Hg3MNcTlaVumEUB+LcGaMxZXz07H1fkbwtQnhb5TLVeKoyFkfajg4BcEjPek9CVpcuTAHh6Itr6oROlBnBF9hC0VaapzUvOtJfLZpuHhhsXCCmOn+g+nbpkAIsvdubsI1yy4BVvS4dWmWeF/j9Cwl08DTuwkahvRBq2rPo1nF1qjqW0YcQVPYPMWTEMZYyaZP04pNftPHPBH2KaV9NHilqhMGltEIoVKGZGHfcz699tNashAkaFdBTWMr+ztgUBVnvB7iiObuGftEfZoes84ni8GH9iuxWlPAUQmhsXkZRwyr5owh5R1Qzhx8hZ9GRqTgzzum/VlBlzH6ThK+v6G1HiApG3SbptrBTvi+qTMsW9veuZKA2WEWrxd+fykvNfqFOOONai54uaIj2viq4CWEPdp36h5h32n9VGHfK7w33aM4u4daeP9ypnsFPTGJkSn4+bJWOG+RZkhoOdKDr4CapsdKBzU6d9l8PAkHkjJucSUXlq0ZrcuqzugfrLEKvuHC7/jiZGp68CUGnQ6rzqYgLNPoWfR7hT9VZNTpseJaCmKyX63icmw5kYRDyRZ9xYV1WK+UA14WluMNWpayDqjvphTPo+g5eW0DjBVvatRp21TcJxJdciKSM11Nc/Aog3otu2LIyPGYOn0h1u44gMN712PhjG8x9pWm0rNsh8NvLrQJ+7Fix4dYcW4P7ielZjqAZDAaEhCVGJO+w1OoK6Flk68wqHZLeGeq+0+O+Bt/H92CB6mZbmFjTEP0w3+xdOc0HA+/ixjhQEz3VE1OfogEq41Ki9tXvsf8A3/jclx8zjtZoxYJsUex5+rJ9D5Guvhd2HbuACIy/26REdrkC2L/378v30gPzCLjffx3bD4uxme+yi+E9ZS7CE82Ha2M+mjhc0gQlkk46TCkICEhHClWH5peOMB/h/n7/xKWPSEjIFkS/uak+MPYfvBzLDt/IUv/KG1KGGJS6bMxCgfKGEQmxlsvq8Coi0JMcpK4HAZDMmITI6Sf5IMxCnci7mYaBTsnwt+f+lA8yTJ7Estn1F7C5r0TsfXWdSRnsxxGYxIe3l+NlWeOWFy9L/hnq08+hNX/zcSp6LhMrxf+lrRbOH56IhYe246wJGoGb/r7YlOsm6Qb9XewZ/+nWHHhECKz3c5MjIZY3Av7F0fCLJu/aMX7GqcYhJMMYVlTU8MQa9EEnDFmO8lJOoSlmQZwokGursQ/2nfz+vkEfH05BRGZgggF1Wv3kzF6Tzy2xRrEUKcTdmwPLC7APryZhDl30xCf3Y5NeP59Ifh8tjcGR9IHGjJgz7lk7Mg8KrSEau4OXU/E6P1JVoGsIMvo6usgNsEVrwULP6d7Hc+/lIQlV5Ox/EYydkXqrMZzcPNwQL/SGd0+DMLv3H4oDp9dyDoytSWqmT0flozVDzIfWXIWG63N9T0t0aBid5Iy3puW67ZQ1gp/E/0sItEAiz87XbgwP1H4OX1WCSk6PLS6gi9sL+fi8eGpJFwWXpxlOYTXxCWk4dej1iNYp8Sl4gfhM593L83iwq4lYT1ohZB8MR5vZzOQGIm6m4TPjifjQubfK7xfjPD+k/6Lwd83tQij5u/CvMQUIYBn+vuSY1Px3Z44cTmy3QZFRqSl6rH1cjKuWZ0T6MWBz+icgLaZGxmDazBWbHnUH4iXW5UWLySmRWzGvEVnkHsHRTmcfSuicdtuaFndQ5pnO9zsOd808PQMQSmPIHg4uEAtl0OvTxR22LdwO+IiIrWBaNHkI7QK8LJorkrh6CbOXVmM9RdOWY8grQ5ChcCaCHB2FVJpNB5GHsflyKgsQSl3Knh4VkMZz9Jwd3CGSkY71wTEJd5FWPRVhCUmSc+zJlN4IMi3OoLcfOGsUkGvjUZk7GVcD78lhC3pSdmg1wUH1EVpNy9oZEKQSrqNGw9O4cFjjRarhqdXdZT1EpZdvJ2PTgg74XgQfR43oyNzbJL1tNE4VUJF/8rwdnSGwpiCxKT7uBtxDvcSLcd3zqygn60T/P3rorxnABxkqUhMvIErYecQLRzAHwVtL6V8qyHAzQ8uKrWws9EhLS0GUfE3cTfqBuIe+z7J9o2bPTOWM7WjEhX8lCjtKINRCBxXI7S4GZO/YKZ2UCLYRyn2d6Uur/FCoLkeqcW9uJxf7+qhQnkPBfwcZMI+1BTeLodrEZfLrTcedRllcgX6t3bHC+40GJIQguJTMXJnghAALV8hQ/U6bvi6glrqFpNzE1jqB+vno0IZFwU81dShBEgS9r/34/W4GaVHSjE+QCqUcgT4Cp+vmwIuciBRWIe3Y4TPN8qiX3A2aJ2UFdZ9aWHF0zgjacJnECZ8HrQu83NbUeorXTZAjfLC6+XC/vlurBYXH1rfPjI/aDmCvU3boIuwnuh+y7HCidNt4f3uCdtIyTyqsaJk/82eTdIe7sQnr36A1ZfjIFMFode4H/HJS7WQw8DsBfKkmz1z+H2CZIpA1K/zDjqUK5/RjFhg1B/DX+un4lx2l0sZYyUKh1/Gni6Ono74pqWzNN6FEVevxuO9k1lDrV9FF8yondH/8+SFOHx+LmOAJsYYKw7h1xB3GL9MXoVEdwOOr9+Akw+oQsYBVZ59EW+OeAnt6gRK+7kng/v82jGj/j6OHP0Uvx1YhZtJGQc0mYz6h2aEYcYYY4yVDDLhTErq/iby81Ah0xhLUKoVeDZYLQ06JTAYcCQ8564hjDFmr1JuH8X6tf9g/rwVUvAV5+Lirt8x+oV2aNGuD4aP+Rw//f4Xth88j3CLW9LZAw6/T5wWD+8uw7zN7+HPk+txKSoMcQm3EfWITUYZY4wxZv9SYrU4kd5nSAZXLwfMau+Btxu4oG8tZwxu4IrJ7Tzwopd0j1ijEXfvJ2NjOJ8XMMaKIaUyl5pdHaJvn8HOdX9g+tRP8ebgnmjRsAFadx2AEWMnYc2pWOl5tsPht5AYdQ9w/vJ8LNk+Ct9tzrgVDmOMMcZKDhpV+K/jyThlHlRJJoOLkwrtyjhiUCUn9CnjgBAH0yjT1NPszK1EjD2SnMcAMYwxZp8cy7dE316tUbOCHxwytXLJjlGXhHuXj2Hb6oWYs/SgNNd2OPwyxhhjjBVA7MNkfLElBp+cSsSa+6m4GK9HuBCGaWC/yGQ9LkamYvXlBLy/IwqfHE1GAg9kzxgrpmTqEAz+ciaWb9iDwwd3YPn8H/H5mNfR57lnUL2cNzLd6MaCEUlxlnf5sA0Ov4wxxhhjBaRL0+PMlST8tj8OY7dEYdi6SLy0JhKvbojC2F1xmHs6GVfyObI1Y4wVB2rXINRs2hEDh7+HST/NxcpN+3B4/1b88dv3+Hj0UPRq3xRVgj2lcRFkcHB2El9nSxx+GWOMMcYYY4xZMaaewoxx7+GL72bjn437cPlefJ639HLwCEbdFl0w+M2x+OaX+fh36wEc3bcJi3/9Hh++2lR6lu1w+GWMMcYYY4wxZiX1/kls3bAeS2d/h4/eeQVdWzdBoxad8OJr72HitN+xasshXHuYlHcg9iqHhq0645lqHtIc2+HwyxhjjDHGGGPMml6fKdjqEP/wGo7sXouFM6di3FsvoVOLhmjaqpuppvfnBViz4whuRqZKz7c/HH4ZY4wxxhhjjFlReHrCTWVxI/Ns6RBz/xIObl+Neb9MwvtvvIgOz9RH07Y98MrID/HtjEXYsPsE7sXaRyDm8MsYY4wxxhhjzIrKow0+mDgWw/p3QdNaFeCRn3sbEaMWUXcuYN/WFfjtx68x+rUX0LpJM7zz+wXpCbbD4ZcxxhhjjDHGmDW5K2p2fBkffPE95v+9AQcOH8Cm5b9j6mejMaRPBzSsFgzXPGuGJYYEXDx9SSrYDodfxhhjjDHGGGO5kqndUK5mc/R48U18NOlnLF61FQeP/oc1S2dh4odvYUD31qhTKQBOSukFmei0OmnKdjj8MsYYY4wxxhh7ZAqNN0Lqt8bzL7+NCd/Owp/rduHQwV1YseBnfP7ecDzfsTmql/OGWi6Hm5eX9Crb4fDLGGOMMcYYY+yJULkEILRJBwx8fQwm/vg7Vm7ah8MHtuPXD1pIz7AdDr+MMcYYY4wxxgqNg3sgfN3yOWBWIeLwyxhjjDHGGGOsxOPwyxhjjDHGGGOsxOPwyxhjjDHGGGOsxOPwyxhjjDHGGGOsxOPwyxhjjDHGGGOsxOPwyxhjjDHGGGOsxOPwyxhjjDHGGGOsxOPwyxhjjDHGGGOsxOPwyxhjjDHGGGMsX4y6+9g8/QP0atsYdeo2Rvver2PaitNIkn5uzzj8MsYYY4wxxhjLmyEaGye9hXd/+hfn7sQgOSkGt87uwsyPXsYHs44jVXqaveLwyxhjTzGZ9C9jjDHGbMxolCYs2deROunCX/j577PQSeV0xgRsmzkF/15Ok2YIDBFYNXkE3nj3c8z65wiidNn9fUWr0MOvTManVowxZq9UKoU0lSHx4UNpijHGGGNFJbvjr0ppT3WVOlzcuQ830swhVgEXLy84SacSxpRTWLn8OLSmopA03eBhDMOu9X/gh49ex5S/b8Mg/chWZEaBNF0oXprQCgaDXiqZeAe6wtFFI5UYY6xkMOoNuHstSipl+PqNOSgfVFUqFb4LFy5gwYIF4nTfvn3h4uIiTmenz+uzcOVGuFQycRQOZE3efRcqZ2dpDmOMMcYKky4pCQemTUNSRIQ0x6RMKS+smTdSKtlaKlaN64bxq27CCDmqdP0G86Z0h/LqErw5ZDKORuvgXnU4/lz+LsqrTBWgcfunoPPQeQjXG1GqxWf459eB8FTkv3L0zp072LJlCyZPnizNKZhCD7/DJ3dGQnK8VGKMsafPd+8sQ4B3aalU+B4l/K7cdBwTvlsrlTIoHRzgG1pd/JcxxhhjhUefmorws+egTU6W5mT48O2O6N+toVSytWQse6cTJmy8L0w7ov+3u/BFd3dhOgWbJvTD6GUXYXRoiek7f0VbT1ONtT5uI95o/x52x+ig8euNBVsmoa5DCQ6/v678GruPb5JKjDH2dAnyCcbUt5cUaReQRwm/ySlatOn3HZKEfxljjDFmPxzUSmz7awxcnOylxWwq1nzUAx/8cx1GqNDpo434fkhpsR/tvRVj0OHDddApq+Hj5X/gpWqmi+fGtNP4otfLWHYlATJVA3y7ZT66BarEn+XHkw6/hd6I/Lkm/SCXZ+1TxhhjT4POzfrb9dgHjg4qfPROZ6nEGGOMMXsx9q2OdhR8iRKVQ8rClOy0OLxmBW6kmupRnTw94SwkS6MxHgnxFj175Ro4asydguMQHWXdHbaoFXr4LRcYgnde+JIDMGPsqdPz2ZfQqn43qWS/urWthQ/ebC+VGGOMMWZr7wxtgz4d60ole6FAuTbPooaLKUJGnJ6NMR8swIVoHeQqJRR0sd+oQ1r6gFhU8/sAYVEp5pLwn20VerNns1sPrmLzweU4cXE/UtKytme3laSkJOh0pisQcmGFObs48wjVJYBer0diYsatth0cHKBW57+JBTOh3YPeoBM/T4O4q7D1LouWCdClmb6zKrVC2IuJkzYmE/cfSoUSGrUjKgeHon2TPqhZoaFN9ieP0uzZ0uY95/Db0r24ePWBNIcxxhhjRalyBT8M7f8MOrWqIc2xN/HYOOEljFl2HuY6XLVbOdStpsKpQ5eRLPPHm3M2YHRzZ+GEPAp7Zo3FOz/vQaJw/iZT1cPkDQvRK9h2zZ6LLPzao0OHDqFx48ZSyeSXX37ByJH2MqIae1z9+/fHn3/+KZWA0NBQnD59mi9slACvvfYafvvtN3H6448/xtdffy1OswyPG34JHRIOnriO0+fvIjYhRSzbitFgwD8rViA+PmPQxOc6dEBQqVJSiRUHp06exNFjx6SSibOTM55/vg/kCm4VVlzRRdG/hONsSmqqNMekbZs2KFO2rFRizP4kCMeU5f+sEI5vpqa5zs7C/qiPbfdHdH7q7uKA0CqBaFqvot2fr+piDuGrV0bhj3PR0hxLcjj7BCHAU4OUyLu4FyWcS0g/0fj3wcLNE1GnJA94Zc86d+6MDRs2SCWT0qVL48qVK9Bo+FZMxdW5c+fEsJvZ6tWr0b17d6nEiqPbt2+jUqVKSEsz3UCdQt3169fh4+MjlplJQcKvPfnrr7/w6aefSiWTWrVq4e+//5ZKzN7RhYs2QhiKi4uT5pjQid2HH36IIUOGSHNYcTN//vxsT0Zr1KiBf/75RyoxZn8++eSTLMcROtYMGjRIKrH8SA3bjW9Gf4I/jj/I57175ajRdzqWfN0Gj3IfiWI34JW9olrfzMGX3L17N71WiRVPX375pTRl7Ul9aZjtTJ06NT34koSEBHzzzTdSiZUktJ6nT58ulTKcOnUKO3bskErM3s2bN0+8YDVt2jRpDtC0aVNMnDgRc+bMQXI2t/Vg9o/WG50rffbZZ9IcE1qvsbGx2L17tzSHMfty//59rFq1SiplmDVrFlJSzP1SWX5oAlriswXL8NN7PRHipZbm5sypVCe8NaLFIwXfwvDUht8JEyZg+PDhmDlzpjQHePXVV8WNf8qUKUjN1IyHFQ9U67t58+b0Wi+zjRs3iju8Xbt2SXNYcRMWFpbthakZM2aI65aVLNRtgS5uvPLKK9IcoGHDhmjSpAl+/PFHmzbHZvkTHR0tdjeh762Tk5M016RPnz549913sWzZMmkOK06WLl0qrj9aj5Z8fX3FGuGVK1dKcxizL3TRLTg4GPXq1ZPmQCzTef+SJUukOSy/ZJpSaP/6FKzeuhFzp47D4B4tUbWUO5TpCVMGjXtZPNPzXcxZNAmtg2w//s5TGX6p1rdMmTJi8M3cpv71118Xm0PMnTtXmsOKk59++kms0c/cl5uas2/dulU8KLPi6X//+x+effZZvPzyy9IciBeqGjVqJNY2sJKDrr5Tk+dFixahfv360lyIAYpOXAIDA7FpE98/3t4dP35crPGl/nTZoeBUrlw5ceBJVnwkJiaK6y1z8DWj4+1bb72Fy5cvS3MYsw8RERE4duwYFi5caNVdqnbt2li8eLF40Ya2b/bo5M6l8EyPV/Hx1DlYvf0QTp08hv17d2Pv/iM4fmgz5k55Aw1K2brO1+SpDL9Ug5Rd8DWjAFy2bFlotVppDisOqMn6sGHDsgRfM2p699577+HWrVvSHFZcREZG4syZM1ixYgXU6oymNXRSvW7dOvEki9dryUEXqig0Va9eXZqTgdb/zz//jBs3bsBgyF8vI2YbdLEqp+BrRv2BeYyN4oXuntC2bVuplL2KFSuKD8bsyc6dO8ULqNRCIbMqVaqIXW3o+MPyQ4+Iqwex/p8l+H3OXCz9Zz32Hr+CqFTT+M8KtTO8fP3h6+Ui3RPYfjyV4ZcGPcprFDUaDEupVEolVhwEBQWhQYMGUil7NBAHNW9hxQs1V6dmsJmbThI6uaZQvGfPHmkOK+5at26d64kz7ZvpIiV3T7FvinyOnJrf5zH7kN/1JZc/tT3rmJ3q1KlTtsHXjCq+2rVrJ5VYjgzhWDt5MJ7rOhjvfvQlpv5vCr746F0M7d8Fzeo3QrvuL+LtcV9jxsKV2H3sMqJT7aubEu+ZcmHvw4wza/ldX7xei5+uXbvC3d1dKmVFAZhGNWYlQ161hYROrB0dHaUSY4wxlrv8HFvy85ynXdi26Zi46AgSsml8ZdQm4PbFI9i8ahF+nDgerw3oKgTihmjfYxBGfTgF609bj/xvCxx+GWN2z7Kpc07y8xzGGGOMMfa4UnF8zxFEm1o354tBG49bFw5j04p5+HXpAWmu7XD4ZYwxxhhjjDGWByPiYhOF/5upUKpGG/R8vjc6t22CamW9oc4xXRqRGBsvTdsOh1/GGGOMMcYYY3mQwz/AKz1AOpXph5+XzsCUiZPxw4wFWLV5Hw7v34Jlc77DR6NeQY92jVE5yF0a9EoGB+esY7cUNQ6/jDHGGGOMMcbyoEadtk0RoDSNn6NLTkSyznpAKwePMqjXsiuGjByPqdMXYu2OAzi8dz0WzvgWY19pKj3Ldjj8MsYYY4wxxhjLk0f9gXi5VWlQ/E2L2Ix5i84gzfSjHMjh7FsRjdt2Q8vqHtI82+HwyxhjjDHGGGMsb4ogDPj8E3Sv7AYYk7Dtl3fw+aJTSJR+bO84/DLGGGOMMcYYy5Mh7jBm/bAFns3boba/I4zae1jx9UsY8PpUbDhxH1rpefaKwy9jjDHGGGOMsTyl3D6K9Wv/wfx5K3DyQbJ5Li7u+h2jX2iHFu36YPiYz/HT739h+8HzCE96hPsiFQEOv4wxxhhjjDHG8qZUQiVNZqVD9O0z2LnuD0yf+ineHNwTLRo2QOuuAzBi7CSsORUrPc92OPwyxhhjjDHGGMuTY/mW6NurNWpW8IOD6R5GuTLqknDv8jFsW70Qc5YelObaDodfxhhjjDHGGGN5kqlDMPjLmVi+YQ8OH9yB5fN/xOdjXkef555B9XLeUOeYLo1IiouXpm2Hwy9jjDHGGGOMsUeidg1CzaYdMXD4e5j001ys3LQPh/dvxR+/fY+PRw9Fr/ZNUSXYE6bbAsvg4Owkvs6WOPwyxhhjjDHGGMtgiMWBP77DF19/j8XrTyJWZ5R+kDsHj2DUbdEFg98ci29+mY9/tx7A0X2bsPjX7/Hhq02lZ9kOh1/GGGOMMcYYY+m00Tsw/dvfsXTRr/jq3Rcxatoh022MDAm4ef4iHiToxOflh4NXOTRs1RnPVPOQ5tgOh1/GGGOMMcYYY+n08XFI0Jpre7W48N9+3BPKqffW4P3+PdGyUUO06tQPb7w3Qbyt0Ta6rVFi/gOxrXD4ZYwxxhhjjDGWTu0VCH/njOGcjTqtWPOri4lBnEEIxfok3L92EjvWLhNvazSCbmtEgbhLf7z5/hf4ee7f2H7oAiL4Pr+MMcYYKyoG4SRFrzfY9EHLYCm75xT1w2jMX/81e2UP65UeluxxW2OMPR65W0uMfP95VPd3ggwKBFYLRaBKmHJygqNMHMEqC7qt0f0rx7F9zVL8MuUTvPlSDzRv2NCu7vMrE3b+Rb6XMBgMSEqJR5ouTZpjO/Pnzsd7744VpwcOGoCfp/8oTtuSRqWBg8YZCnk+bp5lZ9K0qUgU1q2tTyouX76MJg2ekUrAfwd2oWq1alLJNmTCjsJJWK8ataM0hz2O4cOHY/bs2eL0L7/8gpEjR4rTLMOFCxewYMECcbpv375wcXERp4ujLVu24K233hKnn3322fR1z3KmEwLAzv0X8ee/h3Hm/D0kpYq9tGxKn3QX2vAd4rTMIQAa/3bitC0p5TL4+riiW/ta6NulPvx83KSf2K/b96KwaMVBbN55FtFxydJcGzLokHL7D6kAqHxbCyfGpaSS7ThpVKhRLQgvdG+IVk2rQKnguh5m7e2338bmzZvF6a5du+K7774Tp1l20hAXlQSVhwccha+SUXcNS76cjOX7z+LK7Uikt4zOkwxVev2Ef7/pIJXz586dO+K5wOTJk6U5BVOk4Tcy9iG2HPwH24+uQWKy7e/zRC4fvY/D66+K0xXq+KFJtxBx2tacHFzQsm5HtG3YE0E+ZaW59okuZpy6ehAb9/2F01ePSHNtKy4iCWtnHpNKQJfhdeHu5yyVbKtS6Wp4rklfNAptJRyQVdJcll8cfvNWkPBLh4RjZ27hzKW7SExKg9HGtShXL53AuuWzxOlylWqgez9TELYljVoJfz93tGlWFc6OammufbgbFo3h45cIISlammMf7DH8WlIIQXj0620xuLftRyLNyYxFO/Hroj1SyU7Yafi1FBzkiV+/eRGlAjylOcwWtDq9eFHu5p0opKbZ/oLcuhW/4uqF4+J0SGhDdOwxVJy2JQeNCuWCffBsk5Bic8EmJeYWzp06jTNnzuDcufM4L5x/XLkTjZwGhg5uOwlbZ/SRSvlTbMPv4XM78fNfX0Av7Cjtib2GX0svPjcSnZ/pL5XsC9X0TvvjI5y8fEiaYx/sOfyaBfuXxyev/AwXJ3dpjn2KiY/A/tPbEB5zX1zftrZoxgrs3mza3ga+3h2tOzcTp21JpVTDzzMQzWp1gLuLlzTXdh4n/NKh4J+Nx7FkxUFcuxkhzbU9XeIt6CJ2i9Nyx1JQ+7UWp+0BBd8ubWvizcEt4eVh+9p1Cr5D31+I+w/jpDn2w5AWC33iZXFapnSH0rWyOG1vxgxviyF9bL9Pyey3ZXvw87ydUsmOGA3QxmQcaxXOlSFX298xLcjfHb99+xIHYBugligL/t6HZasPIzwyQZpre2nhu2FIuiVOy53LQe3TXJy2B/6+rnixVyMM6tUEimLYaiEl6ibOnj4lBOKzYiA+J5yTXLsbIwRiGSp3/wFrv+0kPTN/imX4peD7018TYDDYV4dnEh2WgPvXYsRpDyEcBVWyzx1jnzavonerV6SSfaAg9MOyD3HqymFpjv1IS9biyvEHUgmoWMcfGif7q2UtHxSCj17+UazptzcRMWH4/d+pYm1+EV0jy5dDa68I6zZMnG7QsSJCGgaK0/ZALlegYbUWeLXb+za9qPGo4ZfW77ezNmPJSvu6iEXsOfyalQv2wpwpL9m02Sytw/4j5+DClYz9Hns8c74dhEa1y0sl2ztw/BqGj1sildjjqlrJH39Mf03sgsSKBgXfj6euwsYdZ6U59sOew68Zdcn4Ykw3GwVgA8IP/43FB1JQqUYoatWqibLeGulnjy458jrOnD6PNP9mj3y7oycdfhUTBNJ0oaDmzV/+PlL4Ati+iUN2HF3U8A12Ex+uXvbbF/P89eOoXbkxvNz8pDm2t37fH9h25F+pZF8UKkX6eqWHUijbo5j4SGh1qcK6bSLNsQ+3H17DxLlv42bYFWmO/bh3NRoxDxIhk8sQVNkT3kGu0k9sjwLI3fAbOHFpPxpVbwkHtZP0k6IVERGBkydPitOhoaFQq3NvmvvdnK1YvOKgVLIvcpUrFK5VoXQLhdK5LCCzv+9yTFwytv93UawFpmZrtnDi3B38tuw/qcQKIjE5DR2fDZVKtvftr1tw43akVGKPKyIqEU0bVECAr323tipJJvywBuu2npZK9kXhWAoKt2qmY4tTGeHYYn81rJeuPUBUbCJaNrZFq1Qt/pvziXAuuAqb1q7Aorm/YenKTfjv0ClcvnkfsclGOLl7ws1BKT0/dyonT5QqVxllfB2kOfkXFxeHa9euoV27J9NdptBrftfuXYJlm039tVjBNK7RCqP6fSWVbIsuZrz7Qz9ExdlP88jiysXRFb98sEpsOmsP4pNiMGbaACSl2E/zpOKotF95TB4xH3J50R9QH6Xm90F4LDq/9DN0PEJqgb31ciu8NrCFVCpaH01ZhXXbsp5kVu7cGX61akKRxwWQp45w6pP4MBwXVq4U/n0ozTSh/r+blrwDX2/bX1gLj4zHcy/+CH2m76drqVKo1rs3HDwfrQblaaBPS8PDU6dxef16aU4GukA1aVxPqcQK09Wb4ej9Gp//Pwlr549EcFBRd6lKxdqPe+L95deQ49mBXA2f4MrigLKh1UMRWrMWatesggDXJ3sRuNg1e37/p4G4H3FbKpkolXL4lfGAgxMfjLOTlqLFwzuxwr/W/aPlMjlmjV8DZ0fbj0h54vJ+fLvINEq2JVdPR3gHuELOIytmQQODxYQnio/MxgychPpVbXPSnNnq3Qvx19Y5UokVxPuDvkHdkIxRx4vKo4Tf7+dswYK/D0ilDGpnZ3iFVIZcmb+ruk+TxAcPEXvL1FzOkrenMzYuGgW1uug/s75v/IpL16xDXLlnn0VIjx5SiWUnJSYau7/MelF59tRBaFzH9k2fD564htfHZm3y/OyEz6Fx4xrM3FxctQo3d5u6TJhVqeiPv2a+LpVYYfpy2lr8s940oJQlRy8veJQvB5kNLgzbM6Nwjhh99ZqwTzJ1xbQ0oGdDjB/RUSoVFR0O/jgYr8w4ikfqtKpwgH+ZEFSrVh3VQ6ujRo1aqFWzMnydH/+4WOzC79Cv2yMlLUUqmQSU9YCLO9/uJTfaNB1uXgiXShmmvL0IpX3LSSXb2XZ4FeausR4WnpoWl63qy/1p8nDrYjjSUq0vbLzcZTTaN3600e8Kg16vwzvfP4/o+KxN7JzcNFBrOAhlhy5YJcVnvXVbzYr1MX7INKlUdB4l/D4/fBYuX7fe13iUK4cGb7wBOdcW5uj23r04v2KFVMqw5JehqBESJJWKTpchP+POfeuTpnqvvQYfG9/irTj475tvstT+TvuiL1o3rSqVbGfH/gsY/fnfUsnE2c8Pz4wfL5VYTiLOncOx336TSialAz2wbsHbUokVpo6Dfswy+J5PtaqoN3QYwME3e0IAPvLrr4i6bBoc0KxsaS/8O7fo72yhjTqLDWt24PjZszgvfJ8uXg9D0mOMWyxTOiGgXFUhDNdEp0Ej0a3Wo124e9Lht9C3Pq0u66ek4hPoPKnUSmHfkDVE6uzg3shEJ4SkzNQOSg6++aDUZO2zaC994mMSIrMNvn7B7ggq5wWfQDd+ZPMIKu8ND9+so4lfvXtRmrJf8QlZR/Au17o1B988BD/zDFROWft0x8Xbwb1XJTJF8btXvC0UtxoorjHLHxm3WrGp7I8tbTj45kb4bMoLx9/M4uKtKxGLisorFN2HvIXPp87EH2t34cjhPVi5aDq+HPsmXuj6LGpW8IdjPg4zRl0S7l85hm2rF2LOUtuPL2KTLZDjEWP2KSk1a5Ns4urBLTXykt1nlJzD52lPDNk0/sku1LFMZLJsP6dCbkzFGGPFQnb7Qj625E2Z3Wdki+OK/i4Wvd8HnXsOxOgvluJCnAEKJz9Ub9QOLwwdjS+/m43lG3bj8MEdWD7/R3w+5nX06dgc1ct5Q51jujQiKS5emrYdvvzCGEuX3cGKKvO5Rj9vNPp0ZhyEGGOMMVbc6BNPYsfO87h6/ig2rd6Ne1YNPg1ISzPNULkGoWbTjhg4/D1M+vF3rNy0D4cPbMMfv/2Aj0cPRa/2TVEl2BNK8RRJBgdn218A4fDLGGOMMcYYY0ykjYpETJrpAr7aww++zhkX+JPOzUHP+nXQqE0/fLH4ODJ39nFwL426LTpj8Jtj8c0v8/Hv1gM4um8TFv/6PT58tan0LNvh8MsYY4wxxhhjTCR30KQ3X059cBT/nYg2FQR6nRZaow6xd09i/T+78VCbdys3B69yaNiqM56pZvvbs3H4ZYwxxhhjjDEmUnlVQAU/B3HaqLuCaa/3xsvvTcJvy9bi0KVw6Ipxry4Ov4wxxhhjjDHGRDJ1LfTsXgPmMdONKfexf+0CfDvhPYz4+A/ck9JvcuRpbFy7HSeuPECKQZxl9zj8MsYYY4wxxhiTqNHg1Q/xetOgXMNi6oM9+H78CLzQpSUaNGyB7gOGYeyE7zD3z/U4eOYWEuywipjDL2OMMcYYY4yxdHKn6nh7xlx8M7wDyrjlfd9sbcJDXDy2B6uXzcaUz97F4D7t0aheE3TsPRijPpqEmQtXYteRS4hM1kuvsA0Ov4wxxhhjjDHGrMidyqPHmJ+xYecWLJn+Nd4Z+gLaNigLjfTzvOhTY3D97EFs+mcBpk0cj9df7IbmjZqh26Ax+OXvw4jMx2BZTxqHX8YYY4wxxhhj2VI6B6FBu74YMfZLTBnXHf4q062PNAHNMPCl3mjTOBRBHhpk3BApZ4a0GFw6vA4/fzIEvQdMxL57WuknRYPDL2OMMcYYY4wxE/1dLHq/Dzr3HIjRXyzFhbiM0ayUTq5wUZpirqNXHbw8jpo0r8COg0ewb8s/mP39Fxg97AU817wOyvq65BI29Qg7vQjjx8zG9SKsAebwyxhjjDHGGGNMpE88iR07z+Pq+aPYtHo37umkHwgcKw3E9MW/4PMxIzD4hWbwkWqBaZAsrzI18GyX/njzgy/x0+9/YvPeQzi4cw3m/TwZH7z5Erq2bogK/s5WAfTByWVYvjtOKhU+Dr+MMcYYY4wxxkTaqEjEpJlqY9UefvB1zmjQnHRuLoYNeAfT/vwPETplHmFSAbfAEDTr0BvDRn+C72Ytxoade7Hutw/QOEBteoohCiePXjJNFwEOv4wxxhhjjBWQwWCA0WiEXJ5xeq3TmarMaL75QfPoOebn6/V6yGQycdrM/Fz6mfm59NBq8+4faX4d/UuvMc8zv49CoRDnMZYTuYMGamkzTn1wFP+diDYVBHqdFlqjDrF3T2L9P7vx8FGbLMudUKHFK/hgUEMhGhMD4qIy3r+wcfhljDHGGGPsCaCAmZqaioiICNy+fVt83Lp1C5GRkUhLSxNDrkajEcMpobJSqRT/NYdb+hn9S6+5efMmrl69ijt37iA+Pl58rTnQZodCLqH3pPcJCwvD9evXce3aNfFfWjZ6MJYblVcFVPBzEKeNuiuY9npvvPzeJPy2bC0OXQpHwW/fK4ODsC2b6pOFaUdHcaoocPhljDHGGGOsgCjAUmilsLto0SKMHDkSL7/8Mt555x3Mnj1bnE+B1Bw+KShT2Rx6KbBSuKUAe+bMGfzwww8YMWIEBg8ejPHjx2PZsmVimDYH55zQ+yUnJ2P79u348ssvMWzYMPHxySefYMeOHfmqPWZPN5m6Fnp2rwHz3X2NKfexf+0CfDvhPYz4+A/ck9JvcuRpbFy7HSeuPEBKztdksiGHX9OeGPp8W9SvUQfPNKsmzS98HH4ZY4wxxhgrIAq/0dHR2LBhA1avXo2LFy8iPDwc586dw9q1a7Fp0ybExcVBpVKJz6eQaq7xNf9rrq2l569fvx43btwQ3+Po0aNYsWIFDhw4ID43NxSqKWivWrUKe/bsEWuN7927h0OHDmHbtm1iMGYsd2o0ePVDvN40KNewmPpgD74fPwIvdGmJBg1boPuAYRg74TvM/XM9Dp65hYRcqojdKz+HMRNnYOk/y/BOex9pbuHj8MsYY4wxxlgBUY0tNS2mkEshmFCgJVQ+e/as2HTZ3BeXQqy5/y0FVppPj/v37+PkyZNISUlJn0cowF64cAGJiYliOSf03vS7KHSb+xzT76IHhWJ6X8byIneqjrdnzMU3wzugjJu5Djhn2oSHuHhsD1Yvm40pn72LwX3ao1G9JujYezBGfUS3Q1qJXUcuITI595YLhY3DL2OMMcYYYwVE4ZJqbql2lwKoOdAS+peaG9N8mjbX3pqfZ55P09Q3mGpnza81B1d6PTWZNs/PDb3eHHyJ+T24vy97FHKn8ugx5mds2LkFS6Z/jXeGvoC2DcpCI/08L/rUGFw/exCb/lmAaRPH4/UXu6F5o2boNmgMfvn7MCKL8P6+Zhx+GWOMMcYYKyAKpb6+vmjYsCGcnJysQir15Q0ICICjo6M4n2p8KehSWKZ/zeGUeHt7o2zZsmIfYHqe+X1cXV3F91CrpVvE5IDep0yZMvD3909/X/N7eHp68mjP7JEpnYPQoF1fjBj7JaaM6w5/6d6+moBmGPhSb7RpHIogD/MAVrkzpMXg0uF1+PmTIeg9YCL23SvaPugcfhljjDHGGCsgCpmlS5dG9+7dUbt2bTg4OIjBlvr4NmjQAO3atRMDLKGaXnMwJZZBmd6jY8eOCA0NTQ/J9LpWrVqhUaNGYpDODb1ntWrV0LlzZ/G96L1pno+PD5o2bQpnZ2fpmYw9OqWTK1yUpu3W0asOXh5HTZpXYMfBI9i35R/M/v4LjB72Ap5rXgdlfV1yCZt6hJ1ehPFjZuN6EdYAc/hljDHGGGOsgChkUq0s1fz26dMHjRs3RpUqVfDss8+ib9++VoGYwq+5ybM5+NI0NVWmWmMKqRRe69Spg5CQEDH40nvSe9Dr8uLm5iaG7S5duohBuEaNGujUqRPatGkDFxcX6VmMPTrHSoMw+88Z+HzMCAx+oRl8pFpgGiTLq0wNPNulP9784Ev89Puf2Lz3EA7uXIN5P0/GB2++hK6tG6KCv7NVAH1wchmW746TSoWPwy9jjDHGGGMFZK7FpYBLgXfKlClYuHCh+G/r1q3F5sz0HMtaXvNrKNCaa3lpXmBgIAYOHIiffvpJvG3ShAkTxFBNtch5NXum96cm09R0+rXXXsP8+fMxd+5cvPXWW6hatWr672Ts8SjgW6U1Bg5/ByP7N0Tu7QgUcAsMQbMOvTFs9Cf4btZibNi5F+t++wCNA6Tt2BCFk0cvmaaLAIdfxhhjjDHGngBzeKUA7OHhIdbAUk0rNVW2bOqcud8thVXL/r80TUGX+ujSe1BTZXoOsQzPmdFrze9B6HfTclCzaXofWobcXs9YTgxJd/Hfil8x4f038FK/3ujRvSee7zcQQ0e8i08n/4yl/+7BlfB8jCQud0KFFq/gg0ENhWhMDIiLMo2OXhQ4/DLGGGOMMcYYy4YBd/bPxivduuLVD7/HsjU7cOjkWVy4eB6nTx7F3m3r8df8X/DFB8PQtdUz6DxoLOasOYGYXPvxyuCgMQ+QJUw7OopTRYHDL2OMMcYYY4yxLGJOzMHIt3/AgTtJ0pycGXUJuHp4Nf73/kB07TMGyw7cF6JzduTwa9oTQ59vi/o16uCZZtWk+YWPwy9jjDHGGGOMMWv6a1jw7UJciM97kDVreoRfXI8vhvXDmJn7EavPWgvsXvk5jJk4A0v/WYZ32vtIcwsfh1/GGGOMMcYYY1YSz2/C+pORUslE5RKMRm174sWXX8WrL7+I53u0R6PQMnBLH/U5g1H7EBt+fAtjf96PR87PhYTDL2OMMVbMmQe3saRPTZWmWG70aWnSVIbsPk9byHa9ZrO8LKvstn97Wa+MFQ963Dl6ArfT++7K4FtjMOat24BFM6bgsw/HYdyHn2Hi1F+waMUWHDq6G0t++AC9W4TAxXI8N2MCds4eh2nr7ubQBLpoFXr4Vciz/gq9zk6ivx0zGIziIzOFwjTSn60p5NajFBJer/ljyKbph1xuH+uVMcIjgeaTHX1Ozk5Zb31y58B+u1pGexR56RKSo6KkUgYXZwdpyracnTTSVAZa3uhr16QSy5aBBujZJxUyuDhn/TxZEeL9Ud7s6jMSwu+tMKQvkaIsBo1/Fw0DVNIMazKNHxp0HobJv63CumVfo0s1T2lAK4H+IZZ//wuOxv2/vfsAa+pq4wD+z2JPBRREQFQQRQEn7r2tG/eq9XNVW2u11o3WvUfdEze4UFRQ3FtwgcpSBAURQdkbknxJuCQ3jAqiovj+nidtzgm5HEOSc94zyz5W4EgaOV/0VZ68qg/ikt4zqVyaOqqobC55QagHrkgfopMRH5PCpBQ2TT8JPe2vNy++KHefXsJGN2cmpVDFsiLUtf77/LkfWWZGNiJClD8PUhP7zUFzu85Mquy8fheKmZtGMSmF6nUr0+f1I4r62x5ceIO59/UEBQXBxcVFdt/JyUl21EVRfvp5E16/UW78W/XoAYt27ZgUKUx2SgquzJvHpBR2rxmJBrZmTOrrWbrJE0dO3WdSCtrGxjCsUwdcQeGNlR+WpOmTGhuDtw8eMhkKGqoCnD/8O3S0vt7uo0VJSklH58HrkZaZzeTk4nC5MHVsAlVdPSaH5BFlZyP22TMkv33L5CgM6tUQM3/tyqTIl9R2wGrEJShvkFRnwABUcXRkUqQwETdvIvDECSaVy9hIB14HfmdSX1MmTs34CTPcX8kCYIFBb+y9uAwN1YvXHhQlPcbqCZOx634ME0Br4Ke57lgxzLxEo6+RkZHw9vbG0qVLmZzS+eLB794zq+Ht486kFFRU+RQkFSEjPRuZacoVnVQNUxssGLudSZWt1PRkTFrZG1k5Badfaeqqgs8vODL8oxMKRUhNzCjQqcfl8rB5+kloa+ozOWUnNiEaU9Y4MSmFyhb60NL5NkZCvlVx75IlN+UOK3VVTeyc7cWkvp6SBL8TZx3CrfuhTCoXTxIo1R02DEaSoEnyBmVySZ6M+Dj47z+AhPBwJkfB+9DvMDLQYVJfT0RUHHqM2sSkSGkM6tVIEiB1YVJlb8nGc3D1eMCkSGmcdfkVpsYVmBT5kkZM2Q2/gDdMKpdAQwMOY8ZAz8KCySFs0hkdj3ftQnZ6OpOTq5GdOXauHMGkvqZMnJ7ZC3+dCJMFr5rmw3HQYzZsVIs/GJIR7oZfBi7A/YQcWbqy40wc2z0ShrziX+O7C36LGkkiJTe+72y0tP92KuRtJxfj+qOv37Avbxysm2La0BVMqmxl52Tjt9V9kJSayOQo6BpoQFWdRo8Kk5GahaQ45cpKqpaFHeaO/pdJfT0lCX4v3QrE1AXHmFRBXB51ZLFJq0yxqPBpWy2b1MS//wxiUl/fnJWn4OHtz6TIp9DSUIXr1v/BtHLZd0bmef3mAwZN3InUdFrrWxo/dayHRdN7MSnypZ08/wjOq88wKWXSmWTS2QtEQVqvFBWSLZ3ZG93a1mVSX1MWbqwYirG7/GVrdfn6PbDr0ko4apbkb5cOz3lOmOr6PPcaul2x48oaNCvBNb674Fdq87EFuOV/kUmRT2FhXBPzx2yBiuDbWa8S9f4V5m8fj7SMgtOzSfEI+ALMGb0BNUxtmZyyd+LKbhy/sodJkdL4Y/AiNLRpzaS+npIEvzlCEboO34CY98lMDvlU/y4aiJaNrZjU15edI8Ss5e64cC2AySEloaetji3LhqJ2TWMm59vhFxiJCX8fpAD4E3VqXRtLZvSW1LnUmfe1pGdko+PgtUhOpY33SkNfVx0XDk6BikpZ7A0jQsSxP9Ft9jlJGCzBNcaEHacxpUXJZjdFHZ+KjrPOQjr2y+HbY9HZ/ehvUfzZv587+P0q3S5j+8xCfetmTIqUlDTwnTVq3TcV+EqZGJjj75GroaZS9uuivkdcDhe/DVz4TQW+Uh0b94GGmiaTIp/KxNAMDtYtmNS3i8/jYuWcftBUp2UopTG0T2O0aFSTSZUNacN+2d998Mvg5tDRomUKJdHYwQK7Vo/4JgNfKTsbU2xbMQz1aldhckhxSD8HYySfB+nnggLfr0tdTYDls/tChU8jvJ9KVcDDCkn9XDaBrxQXhg3qo6Ya8zcUvcWx9XsQmlGycVMVyXtB8elLRUoZb3r1VUZ+pbJzsnDy6h5c9D0lWy9KPk4aVLaw74wB7f8naZh+/TVkxRUWFQRX7214ElpwsxVSuOqmNujb9mfY12zK5Hxbwt8GY6nLVKSkJTE5pCSMKhhj7uhNqKBjyOR8XSUZ+c3zOCACE2ceopGlTyANfKeP7/RNbQqXkZmNC9cD4B8YKRt5+To1/fdFVdKgrGSgjR4d6sLCtOw3kiyuJ0Fv4HXtGeIT0mQzN4gy6cdQW1MV9WxM0alVbaip0nKdsnT5dhCmLzyGnEJOMCFFE/C4WLvAqUxnE8kIo7Bj3GCsuhHNZAhQp4cz1i/uh6pqxanzhAjcPR79ll+X3JOO/FphlttRjKhT/A7a73LaM1tGVjruPrmEmPg3yMzOYHIJm6pADUb6VdDEth3UVTWY3G+fdH33w6Cbss4NkVj6FidsHA4XGmpaqFu9IWpWLYu1GyUTGROGrScWISwqhMkhxWFjYY+J/eeVWeAr9SnBr1RcQgpOeD7G0TMPEB1LHR//RTqa0bF1HdnusXWtq9Bu6IQQUoQ30fE4eNIH7l6PqYP1I6T7DvTt5oChvRujspEuk1u24u6txoBfdrDO++WiUp1e+G3GJPRqYioJh4smzgnDhlHDsNk39zQMjqAhVnrvxU/Gxe+U+u6DX0LI90U6sn/lwRnExFGHVVFUBaow0DdGh0Z9YGFcxr20Ep8a/OaR7kwel5CKlDQaMSyMmiof+rqasml9hBBCiiczK0fWyZqekbvzL1GmIalTKuhpluE05yKIEnFh6Rj8sc9ftm5XQQAjK0d06d4NbZo2gF0dM2jxFR3BWXEBOLrWGSvc/JDXelSt1B/7LyyCXbFGjXNR8EsIIeQ/lTb4JYQQQgjJI856hUN/T8Tisy9k05cLw1fXQ+XKRtDVVIEwLQ5vIt4iWT5aLMVBzZ9Ww3VVd5RkZ5nvcsMrQgghhBBCCCHfH46KOYYs244Vox2hU0T0mJOegMiwEDx7+hRBL6PyBb7SKc+W6D24bYkC3y+Bgl9CCCGEEEIIIUXiqFRBjxk7cHz3HHSra8TawbkYOFpoPXYehjQo+72MKPglhBBCCCGEEPIRKjBrOhxrj52Hx55/8HOv5rCo8N9HsaoZ2GLEvB1YNckR38I2vrTmlxBCyhla80sIIYSQr0KUjrcvnsE/MBRv3sYgPjkV2UI+NPWNYGFdH80c66BiCTa4yo82vCKEEPKfKPglhBBCSHlAG14RQgghhBBCCCElRMEvIYQQQgghhJByj4JfQgghhBBCCCHlHgW/hBBCCCGEEELKPQp+CSGEEEIIIYSUexT8EkIIIYQQQggp9yj4JYQQQgghhBBS7lHwSwghhBBCCCGk3KPglxBCCCGEEEJIuccRSzD3CSGElANBQUFwcXGR3XdycoKWlpbsPiGkaOnhnliyaC+exKZDJG8ZccDh8qCipgGdCkYwq14bjVt2QtvGZlBjfoIQQsiXExkZCW9vbyxdupTJKR0a+SWEEELID06IEC9XHL/xGIFBwQgOzrsFISjwGfwf+eLmpbM4tH0lpgzvhh6DnXHxRRrzXEIIId8LCn7JfxAh5d1z+Fy/AI9TJ+F++iyu3vZDRHwm8/iPTZwZgt3TBqJ1k4Zo3Lwzfl11GQlCmkhBCCHfHzFycnKY+x+TjYiHh/Hnz9Nw/nUWk0cIIeR7QMEvKSA7IQAHF49DW9sqqGhijSatO6Nn777o06sH2ja3h7lhBVRz6IY/Vp1CWMqPG+zFX96Ev9cdxXWfB/C9fQFb5yzAmYjiNp4IIYR8uzio1n4m3I4dw1HXA9i53hmju9WFFod5WCIj5jLWrzmHROr0JISQ7wYFv4RFiJfnF6NDvcYYPmc7rj6LRpZi4ZOcWJiG8MeeWDe9Dxo49MWeex+YR8qHBJ9N6Ne2CRzs7NGoeXcs84iEiHmMLScpCcms10csSkVqWmE/SQgh5HujpmcKm7p1Uc++EVp2GYwZa3dj+VBbVsNJjLBrZ+ETX0jwK6kn3wQ/wq3LXjjtfgrnvK/hUUg0MopTRUieGxnkg0ueHjh9xgvX7vojKimbebBwOanReHb3Cs55nMbZ81fg8+QVUnI+EpSXpoyymWHBuH3JC2ckZbzx4DkSs0rWCZAe+wI+1y/i7OnTkt99HU/C4vDf/0pCCCk92vCKMEQIdf8DnYdtQmiqkMkrDg5UDdtii/dp/GynyeR9z0QI2dofthNOMpUwH23/uoLzy1tAIEsrZLzch96tJuDCmzSIOTyYNpkNz6vOsFVlDQ0QUgZowytCSioHD/4dheEbfZFbA3Jg0+9fuC3pABVZOlda4Hb0H7AGoXmBHs8cU/e5Y1xDDVky+fVNHNy5Dye97yI8Lv8SIS50qjig37jpmOTkAK38ww+iBPi4bcCqbe7wj0qVhNYKHIEe6rUfh3+W/AxrTUUdk53wFAfXrMTu0z54l64ctarq10TPCQsxZ2R9pc25SlVGifhgD6xdtgmn7oQhg1VIFW1DGOqwXi0OHza9F2Pd5Eas+lOIqPtuWL/BBd4PwpCqNFlKgErWbTBiyjSMbGdRoM4lhPyYaMMr8kVIA7mx47YpBb5cgQFaDJqBbUfO4cadu7h15Sz2rv0LPeoZgSeve8XIjL2CuRPXITT7x+pHUbMcAc8X4Qj2fwz/wNcIubWAAl9CCCnHBAYVoaeoACVVYDaymeHKhIdbMLTvWKx1vVZIUCklQtKbB9gzfyxm736Wb5QzFTc2/oaxzgfhly/wlRJnJ8DP+zCuBqYzOZKrpTzGqrHjsMz1boHAVyoz/jnOHTyHsEzF1UpXRkng67cTY4fPgOtt5cBXKis5Fm/evFHcIl/h6cMgpMl/LgsBx2djyM8L4H4vf+ArlY13wd5YOWkY5hwIoFFgQsgXQcEvkUjAscWrcTVGURHyNOpgxpG7uHp4GcYO7IoWjk3QrE03jJyyHKfv3cT6QXXAZwXAb+5txvZz8Uz6yxFnvIPfzfM46XoQh46cwMU7QUgo1lQrIRIj/XHJ4xgOHTyMk2cv4/HLOKaH/9Nx1AxRs64d6lqbQP2jnyYh4l77ycpwcP9+HHJzxxWfkGKWP78svHl2A6fdDuHICS88Ck+SNFkIIYR8SdkxsYhjrfHlcPVQoSJfck+IiPu+eJHM1CpcdZhYN0TrDp3RqZ0jqhuo5uZLiZNwcddO+CQqvrXTnx/Fmj2+SGcuzRFUhG3T9ujSuR2a2JpCgyfJFOfIA23pSPWTQxtw0O+9PFBWM7BCc9nvawabKjqyBp4wJ1vyk3lKV0ZxzgvsXrob/om5zxdUqI+Jy/bC/ZQr1s3oDTO1/J2/HGgbGCCvTzjRbzdmLDqFt/I6TwVVbBzRoWM7NLQyhPRVlBHG4vTqBTgRXFhwTgghpUPBL0HW2zNwORWiCJ44qug0bRec+1aHtL7Nj6NWE+M3rUBfc9Y0Z2E0zrldAPvgh+xYL0zu0BC1ataAde366D/nHJLzx3miaOz/owvsatVEDavaaNptAR4puonlst7dxspxnWBpbA6Hll3Qd9AwDB3cDx2b1YaJqT1GOrsjMn83tIwIb312YVSbWjA2t0eHnk4YOmwI+vZoD4calWFu1x+77yZKfi4HvhsHwdqyOtrPvaDUWLizfSCsqlVDtWqWqNVoCm4l575SorR7mN+3OWpb1YBVLXv89PsRxBS68UkS7rstQM+G1WBskVuGYSNGYOjAPmjXpBYqV66F3pM241FMwc2yPlxfhnb1a6FmTRs077sGIdlCxDzci1Eta6F63VboNXAoBvfrigY1zeDotBz33xe8BiGEkM8hHQ/OXcFrVoelSkUb1DaTTtDloaKxIdTVq6Dt0FnY73kDl04fxPZNG7BxiwtOnd2JfjUUyw9yEh7C90neKK4IUT6+CMkbveVoodccNxzduxnrN2zBvuOXcP3CPsyZMASNazDTikUfcPduiHx0lKfdAsuPncBu2e/bA/fL13F27z8YM6Q1TOVRZWnKCKQFeePCszgmpYnuv6/E5D5NYSOp/7qOXoi5Q+rKG5U6NQZj55kLcFnQKXfKtaSuP7HFFSF5+2JwK6LnrMM44+6CTf9uwcFTZ7F1gqN8erYozR/HXX1p9JcQ8tlR8Evw7spF3ItTHNfA1+mAsRPqK61zyo+n3wGjneqwgmMRXt27iSBWAJodG4Drtx4h+EUoQgIf4fY1fyTlCw7Fkgrx4TVf+Ae/QOjzQNy7fAsvUxU9zVLJQQfg1KIrZmz3RnhCZr7pYGKkx/pj30IndOq/AS/yBcCxt5aiW+cJcLn2Aun5N+8SZ+ON/ynsdXskqWCzEeDzEM/DwhH5nj3lTIyMhCiEh4dLbmEI8buH4Ojc6liYEoSr3vcQ+DwUz4P9cOP8PUTniz3FORHYO74TWg9yhseDCBQc5BUjMz4EpzZNQvsWI+ERyj42Q4SE4Pu4+SgYL14EwffaXVw78SfatBkDl5thYM1kk/yeRPgem4VBQzfh1cc2OSGEEFIiWUlhuLDtb8zZ58eaMcSHXY/eqMOMeJr8tBDXbp3H1nkj0dhCW6mBJdCzR492NRR5kuA1JjpvZFNSj6VnKOodsQg5iiFeGW3TJhj+2//Q2JCJZMUZyMhQlEQsko4Ks7/71WHZdAAmj2kHfdY07U8vI5AR8RrRTCXG4VuifkMj1vNVUcfOSvLfXMnhTxHFrYyKsiFrIDPqKrzuRcvuSxnYDceUoXWQu1JagquL5mNGo3WlvJaHCOG+9xDxgy2nIoR8eezvPfJDysKT+8+QyqpfjOq1QpO8CrZIKnBwtIcm6x2UGhmM0ATlwLW0RGn34TzyT3i8SGIaBhxom9ijc5++6NHWDgaqTAHEOQg8NxvT1z6WN0zEOUFY//dG+CUwjQiOCszs2qGvU3/0aN8IVfUEkquJkZOVJfkvD0aV9D76geCqVURFvY+9NnkycWP5L5i0/Z5izZOkDFXrtkavfn3RqVlNaMkbJWLEPz+CSWPW4WURwasw+RymjtqIwLwpawWIEHppBbZ4JjBpQgghn0aMkDMz0MrREY5NGqC+YxdMXuMlD/6kdCz74/f/1WdtzKQKLc2itmniQVtHU1LnKGTLA1weKptXYW0ulYazK37GxIUuuBOaKPlmLwTPEOZVdeXXE6XexfyRY7Bi/xW8TiqqjpD61DJKA14+q8NbiJx8ndmZkgBeqayshxP8HiNYfhoCD9UcGsBIsXZKhqtugeqmipHn5KhXrCnShBDyeVDw+8PLQHh4LKuO4sKweg1UZG/oUQQNczOYqCjeQmLRe0S/U+6tLh0Rgg+txA7fGKZ8PFh3WwmfwAfwOnEcHpcfwv/SAtjr5vWEp+Lijh14xCyayo6+iauPPzDP5aJ613XwfXARx92OwuOiD8IjQ3B2y1wM6VoHfEkw33nhWYQEB8L7n86KtUeSe03HuSIgKAhBQcEICTqAnwwLmwxeUObrI1iw9qq8Y4HDr4LRG28j0P8q3I8dx/lbT3Hv8ARYquW9hiK8vrEBOy9Ip2EXJMpORUqGCDyNGhg2fz+u33+IC/v+QiND1hi98B0un73DJAghhHwqYWYK4uPjEZ+QgmyleJIPE/vhWLN9Fhrq5+8MzcLbJxewY9VcTBw1CD27dkDrls3RrGlz/LLFhzVqLKGoeFGhRV/0sNJlUpKHst7iysElGNWjDX4aMRuHroZJams2DbQZ2A3mrE0WU6PuYdei8ejapjPGztmJu69SmEfy+7QyakjaBmZMh7N0/e81b8W0a3FOJM6eeyC5ci6+XnVYGue9Njl4+/qt/DFp4Pz4yCS0lHYssG/NB2Cvf960ask1M9OQQSt5CCGfGQW/PzpREuKTpCOfebjQ1tNX6vktCk9HB6wTFyQ1VTrSSnRM0kcII3HiyE2kMIXjqjbCtNWTUEsn723LhXHzKZjaRzFNKzXyJm4F5E7TEqalI0OY19MshjA7C+xBVa6mBbqOn49J3avIns/VMISllRXMDDSU/v1quiaoYW0Na2srWJp8fHQ4lxBBx4/iZlxe04CLGt3mYdn4+lCslFZBbafFmDfASnFNYTS83W+xGgnK+NoOWHDyGlych6FlAwd0HL4EO+d0hmKfESHevnjO3CeEEPJZcAXQNbJE4/aD8PdaV5w6NBstq7I2iJIQpQZjz7SB6Oo0Gat2uOHSnUcIfhmB6Jj3+BAXj8TUojuHuer2mLJqFjrX0FOuf0VpeHHvGBaM74MRM44jkrXeRa/+WKya1x/m7ClYEjmpEbh2dCVG9+6Pxe7PldbNlqaMahZdMKBtVaZ8Wbi+ZQLGTF+BzVvWYeYvo7H++lumLZE7HbyevFwipKams+NoZKcl5nYsKN0SkMb69Rw1DagVd6IVIYQUU/Ha8aT8EgshlAeIuTgcpaq3SBwuR7mS5vDA532+t5Qo5T7usHay1LZwRKNq+Vciq6NOHQv5G1mc8wovXuT2j6uaWMJcP69xIkb4xRlo33kSdngGgNmz6gtKxs0bTyFfrsRRR6tePWFYYERdDx27NWV1IggR8fQxogud+sxH41ErML2TCeuDy0P1ls1gmTf9WyIrufCRY0IIIcXFgVXPFZAe83fX5z78njyBzw1P7N+8AD93s4VO/u9yUQLOLf8LKzwCFDs2qxrCtmkH9OrnhAEDB6BLffZ3d0E6NXtj/YmT2DZ3JBwt9ZV/VpwOP/eFWLT7KWtkVg11+y+Cu8dezBjWBmY6ypGiMC0MB5xn4mgAM2Zc2jJydWFdx1y+KZU4JxZ3T+/C+nVbcPLuKybI5sPMcSLmTGoiX/8rbWry+OwZU1yY1Osq+X0DMbCI26DBw/GH8wQ0yBfYE0JIadG3yo+OowY1VXalJEZacrJSD21RchKT5KOyubSgq/v53lIZkWGISFHMeUp+uQPtq1aCkZER62aMjguvKBoD4gykpuRWwVytdvjfiPpQyWujiDMRdHkzxnavh2pWbfH7Gg+8Vv4HfDbSIDz0VYr8deTwTFDdSptJKdOyrAZjgaIhlRbzFkVt2ixQUVHucJDg6elCi6vIFeXQPDFCCCktnkATehX0oa+rDbV861Pzy3p/Ba7nnsvXvKoYtsXqE144vncTVixZhH8WOmNMe8sC39/5cVRN0HrYLLicvQSPXfPR274Sq6GWAd9TZ/CcvduhhEaVJhg9dxs8r3hhy5whqF1RsaZXlB6Ac2eeyALT0pYx5YkL5m26Aen+zxxBFTRqWQ/GOiqy8vFV9WBpJ6lz5+7EkZ0TYaPNbgtwUaGCLuvfwYFx/cGYt3AhFhZxW+A8B2N72MgDbUII+Vw+X6RCvk9cHRhWZE/zFeHDm0h5r/B/SQsLQ1SmYgiVp1EFVU2K2kij5HKSU5DK2qFZuub1Q2wsYvPd4pJZO0Bz1KGplVcGdXSauwOrhteHBvudLhbiQ+hVbPizNxo0HomTQYqjHD4bYQqSmCBchqMJLa3C1woLtLSgzhpFEGZmIEtcjD9AHslTP9agIoQQ8uVkhIciQr6hEwfmTXuhI+vYIJmSfK9zNVGjxRAs3bkE3aooQsC0mCi8L2JTRL5WVbQbPh/blwyGgbxOESL2TZQs4C1dGbPgc8oTL5kTFfSsemPJVjdc9fWDn/8TPPG/B0+3LZg2rCkqsjpzc3FRuboF9FhlCn/8EDF0MgEhpAxQ8PvDE8CyhjFrB0cx3vnfx7O88waLlIUHt/2UdomuYGUHK42iw7CS1PtSXD4PfFZYp1qpMYaOHYdx44q4jZ+AP+ZuwuTuOswzJNfQsMFkl9t45L0FY7vaQkep916E94EH8OuoFQj53McpcPjg81kfr3zHUrCJMqTBLpOQ4KtLguFiTj0nhBBS9jg8HhQTcMSIfx2Gd/J6RVLXPDmCNQcesKYsswkRdGAK+o1ZgUvB8fKRWSmxdGkSu37Q0MjtLBVGYtuEfvhtlQfCEpWvKhIKWbO3uFDX1JQ19kpXRjGSkhTHAMYHHcKMPxdi3b/bse/gYRw+7IaTp8/h6h1/RCUVnH2kZdcUDVmbM37w34+1B57KRpHzy4p/gYtHXXHvdVG7XxBCyKej4PeHx0ftRvWgyxp5TI/2winvD0yqcNlx3th7IoBVSQpg264DzFjBJYfLA+uyyElPURz5k0dU8LiEPAJDQ+izepBVdZpi+vot2Lp1a+G3LZuxZsFQWCnOi2CowqrdeGw754fwIG+sGNcKFeTlFCP6wWG4+6Yx6YJKGrRLcXgGqGSgqOil5xlHFFGRp4a/wttsRW+8jqk5jD/fADohhJAvTMOyFqprK7qR3z/ejDGj/sLyNaswf+pI9Bn2D25HK+/XrCBEzJtIBNzYhV/7dkLvkVOxaOUarF42G78M/AteUXnP48C0viNqqnIgFn7Am/BwnN8xDT07dseYPxdg1do1WDJrHIbNOIIPefUqRwf2jvVkxzGVrowC1G/ZAPKVTcJ4PPQ6hC0b12Ll8iVY6DwXf0//A+NGOaFds1YYMnUb/GIUQTBXqymGDnCAvFYUfYDH0iH4yWki5i1dhXXrVmOp8wyMG9odLVr1wK9z/sHx27R/BSHk86Pgl6BCyy5oU5m1skb4FnvmLcLdD4WvHRXnRGDf1Nk48SqVyZG8kdTsMWBYQ9YIMsDT0oQGK/pNfOmPAKVrpuLGhoU4+CyeSStTqWwNKyN1JgWkvL4L3/DS9ARzoV+9PaZv9cCm0bbyN79YGIXXrxVTlHlKm3aJkZKYd8ZwCfBMUcfGSPEBEyXj7sWbhfRyp+DK+TtQHMvIh3WTJsU6aooQQsi3gaffBiMG2iuCO2Qj/P5p7N62A0fO+iAmQwxt07qwqljY9sU86Olry+Y5iXOSEHz3LPbv3Ibte47hzssEef3D12uMMRO7QEfygxyeDvR1c3tJsxLDcOPMIezYug0ux6/itfwseEmw3OR/GNXZUJYqXRm5MOv+F2b3q/XRhqM4+wMenF2DXydsRDAzTVp6ukHD0bMwoYUp6/lZiPC/BNe9O7Bly3bsPeyOq/dfIJGZCqVcFxNCyOdB3ywEPN2OGDfCAYpBWzFi/f9Fz5YDseLQNbx8n3twvTDtHR6d34EJndtgwj4/xbFBHD4aDJuJwXWUj30QGJjBVFeRl53oBefftsIvJgPp7/2xZ1of9J3pgfjC51iBo9oQndqayd+kosz7WPnHRgQWslWzOCcOj87twV5PxWYeGaHb0cW+Kxa5Ps63u7MIQvZoM1cLWvLecK7kvjbrtRAi6MIBnA9NhTgzBg+vP8T7IkaqlamiZdeWqCAPYoV46LoYW2+xR9RFiLq6AosPPZOXmatqi94D6yt1IhBCCPnSONCrYoZKsg2cOBBoGsDM3LAE38XqaPHrciwa2RQV8q955ajBuu0kbN23BF2sDWTX5KtVhGHFvDCUB5t+EzGuUy1oFvoLBajq0B/Ld29Av1pMhzDPHAOn/A+ta+TbFZrBERii+YD52LZxNCzkZwGXpowiRN/bh62eIUx9xYWJfU+MGjUcQwY5oV/v7mhRz4S1wzMQ++wADni+Z1KSZ6hbY/y/u7B8fKcCO1OzcQR6sG0zGr1bKs49JoSQz4UjlmDukx9YdvwVTGzdH7uexBUc5eQwxxTk5EBY4O3CQUXbX+FxdS2a5u8tFsXg3/6O+O1kmNI1OZLrcSQ5Itm1OLJri4U5krQkpdoRRyM80c8wtwWQ/HAFWrSeBf8URU+2TtVG6NKpGWoYa0GUFoeIl8/ge9sXz2PTULXTJvh7ToSupF5PvDUX9u0WIzybj8rWLdGpfQNU1RUh4tF5nDz/TBIQ55ZKxaAPTgYcRTfmd6b6L0fjJrMQkKGImDkc6VopEUT8ljjw4iKGVBUgO8YFHar/gutM2XStp+C63xrUYxoa4iw/zGjdCavuxih67rUs0K5nNziYayL+5T2c8biJqLwNSDgCNPr5MC5s78tsDCJC6I4BsBl7XH6EROs/L8F7VSvZFLY8GeFb0KbOZNxLyy2HQf25iH2wUHaf/JiCgoLg4uIiu+/k5AQtrXyb2hBCvpjkqMe4cfMRwqKTwdWqhNpN2qFFneIF0ilvn+Kujz/C37xHSg4fuoZVUdu+CerbGCl97yukI/KJD3z8Q/H2Q5KkjtKCkZk1GjRphBqGRe+VXNIyijMfw7nvGBx5kSxLa1kMxE43ZzgonfCQCK/5I/HHkUAmQOah0ei92DOjcYGyC9Pewt/3PgJeROJ9UjpEXBVo6hnCzNIa9exsYfIfwTEh5McSGRkJb29vLF26lMkpHQp+iVxKiCv+128SXJ8qztYtDoFeQ8xxccPsntUKVJzvb8xHi86LEZxe2PAuB5om3bBwohac57oiuZDgV1qx31o3FL2mu+PDR3eG5MCi+1b4e4yFtiR2TA9ch2YNpuFxob+bwa2AgSsvYv9UB3nlLM4JxNy27bDkZnSB14EjcMTOZ1cxuqbqR4NfqST/rejV7Q9ce5Px36+pJLiu1moOjrvPg4OefKybgl/ySSj4JYR8Tsl+G9F36Ca8lm2QxYP9sB04MLd5vqBWhBCXieiz5ApyFzjx0XziEez4vW6xAn9CCCnM5w5+adozkdOyGoiDt69j77yhsDPRRFEbDnMF+qhuaSTfzCo74T4W9G+O3lP3IiheeZ2wQcvZOLxjAmwrCCShKQtHFVZtp+LEdTeMbl0bZvqq4HL4qGBqDkM19k+qo/mUg7jsOh+dbQyVNtBSwhGgim03TBjfBZrMz6hbD8XiuU6w0i94Nq40UNYyaYo/t3lhJyvwleLwbTBt82L0sNLL9zwO1CvZwKpy7k/zVCvD0swAAi5H8hwNmNS0gG6+Gl6n3nicvuaGqT3rQrvQwnOgomeFQTMP4bLnfFbgK8WFhomF5LVRk7w20ml4RrCwqFCgEcHTMoGlqR74knJwBVqoUsOMeYQQQggpPXFWFuT7MkKItwGPEJFvB8vs+Ic44vGYCXwleJVQv3F1CnwJId8UGvklhRMm4fmD2/DxC8brqA9IzRKDr6GHqjXqommrlrDSDsayAf3g7PWSdQwDB2qGdTHgt2VYPbML65xBIDMuAOc9vOEX+h4cbRPYNu+Obs3MWBtvFIMoDS8fXMPN+wF4FR2PjBwu1LQroEo1azg0coSdZeFrn0Spb3Dv6lU8CAxHbGIWVHQrw6peU7RtbQcD1ihtfqK0SNz09MSdZxFIEQpgYGaLNl27ws7kU47dFyHx1QNcvuaD4LB3kB4BrKpjCEubRmjbthFMijgDmJBPQSO/hJDPSZR0HVN7TYYna+dpHRNbNGlUC0baKkiPewW/uz4IjcvblJKHGp0WYM/a/jBSOmKQEEJKhqY9k2+GKC0QW3/7GX/v8ZGvn5XiqnfFiYgz6FWRJhYQUhYo+CWEfF4iRN7YiN/+2oFncYrTEQrF1YJDzz+xZO5gWGpR4EsIKR2a9ky+GVwNG0zceQU33WaieVVN+RRhsTADmVn/sc6WEEIIId8RLkxb/o7DZ9yw8q9f0L11A1iZG6Oinja0tXVQwagKrO2ao/eIP7HJzRMHlw+hwJcQ8k2ikV/yWYiSQ3B820bscvXCs7TOOH5/IxqrU8VHSFmgkV9CCCGElAc08ku+SVxtKzhN2wgv3+eIePYvBb6EEEIIIYSQbwoFv4QQQgghhBBCyj0KfgkhhBBCCCGElHsU/BJCCCGEEEIIKfco+CWEEEIIIYQQUu5R8EsIIYQQQgghpNyjo44IIaScYR91pKKiQkcdEUIIIeS7FBcXJ/v/5zrqiIJfQggpZ9jBLyGEEELI946CX0IIIYQQQgghpJhozS8hhBBCCCGEkHKPgl9CCCGEEEIIIeUeBb+EEEIIIYQQQso9Cn4JIYQQQgghhJRzwP8B2+ehAET4tvgAAAAASUVORK5CYII=;" parent="1" vertex="1">
          <mxGeometry x="638.6" y="923.5" width="130.31" height="76.5" as="geometry" />
        </mxCell>
        <mxCell id="xc2eHRiwwFAbVCIYUw1M-7" value="ColBertV2" style="text;html=1;strokeColor=none;fillColor=none;align=center;verticalAlign=middle;whiteSpace=wrap;rounded=0;" parent="1" vertex="1">
          <mxGeometry x="673.75" y="1000" width="60" height="30" as="geometry" />
        </mxCell>
        <mxCell id="xc2eHRiwwFAbVCIYUw1M-8" style="edgeStyle=orthogonalEdgeStyle;rounded=0;orthogonalLoop=1;jettySize=auto;html=1;entryX=0.537;entryY=-0.019;entryDx=0;entryDy=0;entryPerimeter=0;strokeColor=#000000;" parent="1" source="xc2eHRiwwFAbVCIYUw1M-1" target="xc2eHRiwwFAbVCIYUw1M-5" edge="1">
          <mxGeometry relative="1" as="geometry">
            <Array as="points">
              <mxPoint x="870" y="880" />
              <mxPoint x="712" y="880" />
            </Array>
          </mxGeometry>
        </mxCell>
        <mxCell id="xc2eHRiwwFAbVCIYUw1M-9" style="edgeStyle=orthogonalEdgeStyle;rounded=0;orthogonalLoop=1;jettySize=auto;html=1;entryX=0.958;entryY=0.392;entryDx=0;entryDy=0;entryPerimeter=0;strokeColor=#000000;" parent="1" source="qmfGkKpHFtfPqxLsQfzV-28" target="xc2eHRiwwFAbVCIYUw1M-5" edge="1">
          <mxGeometry relative="1" as="geometry" />
        </mxCell>
        <mxCell id="xc2eHRiwwFAbVCIYUw1M-10" value="RAG based Final Answer" style="rounded=1;whiteSpace=wrap;html=1;" parent="1" vertex="1">
          <mxGeometry x="460" y="940" width="120" height="60" as="geometry" />
        </mxCell>
      </root>
    </mxGraphModel>
  </diagram>
</mxfile>
